<?xml version="1.0" encoding="UTF-8" standalone="no"?>
<!DOCTYPE svg PUBLIC "-//W3C//DTD SVG 1.1//EN"
 "http://www.w3.org/Graphics/SVG/1.1/DTD/svg11.dtd">
<!-- Generated by graphviz version 2.42.4 (0)
 -->
<!-- Title: G Pages: 1 -->
<svg width="525pt" height="1371pt"
 viewBox="0.00 0.00 524.81 1371.20" xmlns="http://www.w3.org/2000/svg" xmlns:xlink="http://www.w3.org/1999/xlink">
<g id="graph0" class="graph" transform="scale(1 1) rotate(0) translate(21.6 1349.6)">
<title>G</title>
<polygon fill="white" stroke="transparent" points="-21.6,21.6 -21.6,-1349.6 503.21,-1349.6 503.21,21.6 -21.6,21.6"/>
<!-- main -->
<g id="node1" class="node">
<title>main</title>
<ellipse fill="#fff7e6" stroke="#d69e2e" cx="40.31" cy="-426" rx="40.11" ry="22.76"/>
<text text-anchor="middle" x="40.31" y="-429" font-family="Arial" font-size="10.00">Главная /</text>
<text text-anchor="middle" x="40.31" y="-418" font-family="Arial" font-size="10.00">Main.js</text>
</g>
<!-- news_teasers -->
<g id="node2" class="node">
<title>news_teasers</title>
<path fill="#e9d8fd" stroke="#805ad5" d="M232.61,-1192C232.61,-1192 167.61,-1192 167.61,-1192 161.61,-1192 155.61,-1186 155.61,-1180 155.61,-1180 155.61,-1168 155.61,-1168 155.61,-1162 161.61,-1156 167.61,-1156 167.61,-1156 232.61,-1156 232.61,-1156 238.61,-1156 244.61,-1162 244.61,-1168 244.61,-1168 244.61,-1180 244.61,-1180 244.61,-1186 238.61,-1192 232.61,-1192"/>
<text text-anchor="middle" x="200.11" y="-1177" font-family="Arial" font-size="10.00">Блок «Новости»</text>
<text text-anchor="middle" x="200.11" y="-1166" font-family="Arial" font-size="10.00">newsItems[]</text>
</g>
<!-- main&#45;&gt;news_teasers -->
<g id="edge1" class="edge">
<title>main&#45;&gt;news_teasers</title>
<path fill="none" stroke="#6b7c93" d="M40.61,-448.79C40.61,-574.15 40.61,-1174 40.61,-1174 40.61,-1174 148.26,-1174 148.26,-1174"/>
<polygon fill="#6b7c93" stroke="#6b7c93" points="148.26,-1176.45 155.26,-1174 148.26,-1171.55 148.26,-1176.45"/>
</g>
<!-- team -->
<g id="node3" class="node">
<title>team</title>
<path fill="#c6f6d5" stroke="#38a169" d="M260.61,-750C260.61,-750 139.61,-750 139.61,-750 133.61,-750 127.61,-744 127.61,-738 127.61,-738 127.61,-726 127.61,-726 127.61,-720 133.61,-714 139.61,-714 139.61,-714 260.61,-714 260.61,-714 266.61,-714 272.61,-720 272.61,-726 272.61,-726 272.61,-738 272.61,-738 272.61,-744 266.61,-750 260.61,-750"/>
<text text-anchor="middle" x="200.11" y="-735" font-family="Arial" font-size="10.00">Блок «Состав лаборатории»</text>
<text text-anchor="middle" x="200.11" y="-724" font-family="Arial" font-size="10.00">posts[]</text>
</g>
<!-- main&#45;&gt;team -->
<g id="edge2" class="edge">
<title>main&#45;&gt;team</title>
<path fill="none" stroke="#6b7c93" d="M79.34,-432C105.66,-432 135.61,-432 135.61,-432 135.61,-432 135.61,-706.69 135.61,-706.69"/>
<polygon fill="#6b7c93" stroke="#6b7c93" points="133.16,-706.69 135.61,-713.69 138.06,-706.69 133.16,-706.69"/>
</g>
<!-- pubs -->
<g id="node4" class="node">
<title>pubs</title>
<path fill="#fed7d7" stroke="#e53e3e" d="M241.11,-444C241.11,-444 159.11,-444 159.11,-444 153.11,-444 147.11,-438 147.11,-432 147.11,-432 147.11,-420 147.11,-420 147.11,-414 153.11,-408 159.11,-408 159.11,-408 241.11,-408 241.11,-408 247.11,-408 253.11,-414 253.11,-420 253.11,-420 253.11,-432 253.11,-432 253.11,-438 247.11,-444 241.11,-444"/>
<text text-anchor="middle" x="200.11" y="-429" font-family="Arial" font-size="10.00">Блок «Публикации»</text>
<text text-anchor="middle" x="200.11" y="-418" font-family="Arial" font-size="10.00">Main_publications</text>
</g>
<!-- main&#45;&gt;pubs -->
<g id="edge3" class="edge">
<title>main&#45;&gt;pubs</title>
<path fill="none" stroke="#6b7c93" d="M79.4,-420C79.4,-420 139.94,-420 139.94,-420"/>
<polygon fill="#6b7c93" stroke="#6b7c93" points="139.94,-422.45 146.94,-420 139.94,-417.55 139.94,-422.45"/>
</g>
<!-- confs -->
<g id="node5" class="node">
<title>confs</title>
<path fill="#bee3f8" stroke="#3182ce" d="M244.61,-274C244.61,-274 155.61,-274 155.61,-274 149.61,-274 143.61,-268 143.61,-262 143.61,-262 143.61,-250 143.61,-250 143.61,-244 149.61,-238 155.61,-238 155.61,-238 244.61,-238 244.61,-238 250.61,-238 256.61,-244 256.61,-250 256.61,-250 256.61,-262 256.61,-262 256.61,-268 250.61,-274 244.61,-274"/>
<text text-anchor="middle" x="200.11" y="-259" font-family="Arial" font-size="10.00">Блок «Конференции»</text>
<text text-anchor="middle" x="200.11" y="-248" font-family="Arial" font-size="10.00">conferences[]</text>
</g>
<!-- main&#45;&gt;confs -->
<g id="edge4" class="edge">
<title>main&#45;&gt;confs</title>
<path fill="none" stroke="#6b7c93" d="M54.61,-404.81C54.61,-359.24 54.61,-256 54.61,-256 54.61,-256 136.44,-256 136.44,-256"/>
<polygon fill="#6b7c93" stroke="#6b7c93" points="136.44,-258.45 143.44,-256 136.44,-253.55 136.44,-258.45"/>
</g>
<!-- picture -->
<g id="node6" class="node">
<title>picture</title>
<path fill="#feebc8" stroke="#dd6b20" d="M232.11,-104C232.11,-104 168.11,-104 168.11,-104 162.11,-104 156.11,-98 156.11,-92 156.11,-92 156.11,-80 156.11,-80 156.11,-74 162.11,-68 168.11,-68 168.11,-68 232.11,-68 232.11,-68 238.11,-68 244.11,-74 244.11,-80 244.11,-80 244.11,-92 244.11,-92 244.11,-98 238.11,-104 232.11,-104"/>
<text text-anchor="middle" x="200.11" y="-89" font-family="Arial" font-size="10.00">Главный баннер</text>
<text text-anchor="middle" x="200.11" y="-78" font-family="Arial" font-size="10.00">Main_picture</text>
</g>
<!-- main&#45;&gt;picture -->
<g id="edge5" class="edge">
<title>main&#45;&gt;picture</title>
<path fill="none" stroke="#6b7c93" d="M27.61,-404.47C27.61,-329.73 27.61,-86 27.61,-86 27.61,-86 148.69,-86 148.69,-86"/>
<polygon fill="#6b7c93" stroke="#6b7c93" points="148.69,-88.45 155.69,-86 148.69,-83.55 148.69,-88.45"/>
</g>
<!-- home__news -->
<g id="node7" class="node">
<title>home__news</title>
<path fill="#faf5ff" stroke="#b794f4" d="M415.61,-1328C415.61,-1328 385.61,-1328 385.61,-1328 379.61,-1328 373.61,-1322 373.61,-1316 373.61,-1316 373.61,-1304 373.61,-1304 373.61,-1298 379.61,-1292 385.61,-1292 385.61,-1292 415.61,-1292 415.61,-1292 421.61,-1292 427.61,-1298 427.61,-1304 427.61,-1304 427.61,-1316 427.61,-1316 427.61,-1322 421.61,-1328 415.61,-1328"/>
<text text-anchor="middle" x="400.61" y="-1313" font-family="Arial" font-size="10.00">/News</text>
<text text-anchor="middle" x="400.61" y="-1302" font-family="Arial" font-size="10.00">News</text>
</g>
<!-- news_teasers&#45;&gt;home__news -->
<g id="edge6" class="edge">
<title>news_teasers&#45;&gt;home__news</title>
<path fill="none" stroke="#6b7c93" d="M185.61,-1192.06C185.61,-1229.05 185.61,-1310 185.61,-1310 185.61,-1310 366.38,-1310 366.38,-1310"/>
<polygon fill="#6b7c93" stroke="#6b7c93" points="366.38,-1312.45 373.38,-1310 366.38,-1307.55 366.38,-1312.45"/>
</g>
<!-- home__life_e -->
<g id="node8" class="node">
<title>home__life_e</title>
<path fill="#faf5ff" stroke="#b794f4" d="M415.61,-1260C415.61,-1260 385.61,-1260 385.61,-1260 379.61,-1260 373.61,-1254 373.61,-1248 373.61,-1248 373.61,-1236 373.61,-1236 373.61,-1230 379.61,-1224 385.61,-1224 385.61,-1224 415.61,-1224 415.61,-1224 421.61,-1224 427.61,-1230 427.61,-1236 427.61,-1236 427.61,-1248 427.61,-1248 427.61,-1254 421.61,-1260 415.61,-1260"/>
<text text-anchor="middle" x="400.61" y="-1245" font-family="Arial" font-size="10.00">/Life_e</text>
<text text-anchor="middle" x="400.61" y="-1234" font-family="Arial" font-size="10.00">Life_e</text>
</g>
<!-- news_teasers&#45;&gt;home__life_e -->
<g id="edge7" class="edge">
<title>news_teasers&#45;&gt;home__life_e</title>
<path fill="none" stroke="#6b7c93" d="M215.61,-1192.22C215.61,-1212.37 215.61,-1242 215.61,-1242 215.61,-1242 366.31,-1242 366.31,-1242"/>
<polygon fill="#6b7c93" stroke="#6b7c93" points="366.31,-1244.45 373.31,-1242 366.31,-1239.55 366.31,-1244.45"/>
</g>
<!-- home__sem_t -->
<g id="node9" class="node">
<title>home__sem_t</title>
<path fill="#faf5ff" stroke="#b794f4" d="M415.61,-1192C415.61,-1192 385.61,-1192 385.61,-1192 379.61,-1192 373.61,-1186 373.61,-1180 373.61,-1180 373.61,-1168 373.61,-1168 373.61,-1162 379.61,-1156 385.61,-1156 385.61,-1156 415.61,-1156 415.61,-1156 421.61,-1156 427.61,-1162 427.61,-1168 427.61,-1168 427.61,-1180 427.61,-1180 427.61,-1186 421.61,-1192 415.61,-1192"/>
<text text-anchor="middle" x="400.61" y="-1177" font-family="Arial" font-size="10.00">/Sem_t</text>
<text text-anchor="middle" x="400.61" y="-1166" font-family="Arial" font-size="10.00">Sem_t</text>
</g>
<!-- news_teasers&#45;&gt;home__sem_t -->
<g id="edge8" class="edge">
<title>news_teasers&#45;&gt;home__sem_t</title>
<path fill="none" stroke="#6b7c93" d="M244.86,-1174C244.86,-1174 366.55,-1174 366.55,-1174"/>
<polygon fill="#6b7c93" stroke="#6b7c93" points="366.55,-1176.45 373.55,-1174 366.55,-1171.55 366.55,-1176.45"/>
</g>
<!-- home__sem_s -->
<g id="node10" class="node">
<title>home__sem_s</title>
<path fill="#faf5ff" stroke="#b794f4" d="M415.61,-1124C415.61,-1124 385.61,-1124 385.61,-1124 379.61,-1124 373.61,-1118 373.61,-1112 373.61,-1112 373.61,-1100 373.61,-1100 373.61,-1094 379.61,-1088 385.61,-1088 385.61,-1088 415.61,-1088 415.61,-1088 421.61,-1088 427.61,-1094 427.61,-1100 427.61,-1100 427.61,-1112 427.61,-1112 427.61,-1118 421.61,-1124 415.61,-1124"/>
<text text-anchor="middle" x="400.61" y="-1109" font-family="Arial" font-size="10.00">/Sem_s</text>
<text text-anchor="middle" x="400.61" y="-1098" font-family="Arial" font-size="10.00">Sem_s</text>
</g>
<!-- news_teasers&#45;&gt;home__sem_s -->
<g id="edge9" class="edge">
<title>news_teasers&#45;&gt;home__sem_s</title>
<path fill="none" stroke="#6b7c93" d="M200.61,-1155.78C200.61,-1135.63 200.61,-1106 200.61,-1106 200.61,-1106 366.22,-1106 366.22,-1106"/>
<polygon fill="#6b7c93" stroke="#6b7c93" points="366.22,-1108.45 373.22,-1106 366.22,-1103.55 366.22,-1108.45"/>
</g>
<!-- home__krivorotko_info -->
<g id="node16" class="node">
<title>home__krivorotko_info</title>
<path fill="#f0fff4" stroke="#68d391" d="M430.11,-1056C430.11,-1056 371.11,-1056 371.11,-1056 365.11,-1056 359.11,-1050 359.11,-1044 359.11,-1044 359.11,-1032 359.11,-1032 359.11,-1026 365.11,-1020 371.11,-1020 371.11,-1020 430.11,-1020 430.11,-1020 436.11,-1020 442.11,-1026 442.11,-1032 442.11,-1032 442.11,-1044 442.11,-1044 442.11,-1050 436.11,-1056 430.11,-1056"/>
<text text-anchor="middle" x="400.61" y="-1041" font-family="Arial" font-size="10.00">Krivorotko</text>
<text text-anchor="middle" x="400.61" y="-1030" font-family="Arial" font-size="10.00">/Krivorotko_info</text>
</g>
<!-- team&#45;&gt;home__krivorotko_info -->
<g id="edge15" class="edge">
<title>team&#45;&gt;home__krivorotko_info</title>
<path fill="none" stroke="#6b7c93" d="M249.61,-750.23C249.61,-816.1 249.61,-1038 249.61,-1038 249.61,-1038 351.95,-1038 351.95,-1038"/>
<polygon fill="#6b7c93" stroke="#6b7c93" points="351.95,-1040.45 358.95,-1038 351.95,-1035.55 351.95,-1040.45"/>
</g>
<!-- home__zyatkov_info -->
<g id="node17" class="node">
<title>home__zyatkov_info</title>
<path fill="#f0fff4" stroke="#68d391" d="M425.61,-988C425.61,-988 375.61,-988 375.61,-988 369.61,-988 363.61,-982 363.61,-976 363.61,-976 363.61,-964 363.61,-964 363.61,-958 369.61,-952 375.61,-952 375.61,-952 425.61,-952 425.61,-952 431.61,-952 437.61,-958 437.61,-964 437.61,-964 437.61,-976 437.61,-976 437.61,-982 431.61,-988 425.61,-988"/>
<text text-anchor="middle" x="400.61" y="-973" font-family="Arial" font-size="10.00">Zyatkov</text>
<text text-anchor="middle" x="400.61" y="-962" font-family="Arial" font-size="10.00">/Zyatkov_info</text>
</g>
<!-- team&#45;&gt;home__zyatkov_info -->
<g id="edge16" class="edge">
<title>team&#45;&gt;home__zyatkov_info</title>
<path fill="none" stroke="#6b7c93" d="M254.61,-750.28C254.61,-806.01 254.61,-970 254.61,-970 254.61,-970 356.39,-970 356.39,-970"/>
<polygon fill="#6b7c93" stroke="#6b7c93" points="356.39,-972.45 363.39,-970 356.39,-967.55 356.39,-972.45"/>
</g>
<!-- home__petrakova_info -->
<g id="node18" class="node">
<title>home__petrakova_info</title>
<path fill="#f0fff4" stroke="#68d391" d="M430.11,-920C430.11,-920 371.11,-920 371.11,-920 365.11,-920 359.11,-914 359.11,-908 359.11,-908 359.11,-896 359.11,-896 359.11,-890 365.11,-884 371.11,-884 371.11,-884 430.11,-884 430.11,-884 436.11,-884 442.11,-890 442.11,-896 442.11,-896 442.11,-908 442.11,-908 442.11,-914 436.11,-920 430.11,-920"/>
<text text-anchor="middle" x="400.61" y="-905" font-family="Arial" font-size="10.00">Petrakova</text>
<text text-anchor="middle" x="400.61" y="-894" font-family="Arial" font-size="10.00">/Petrakova_info</text>
</g>
<!-- team&#45;&gt;home__petrakova_info -->
<g id="edge17" class="edge">
<title>team&#45;&gt;home__petrakova_info</title>
<path fill="none" stroke="#6b7c93" d="M258.61,-750.19C258.61,-794.05 258.61,-902 258.61,-902 258.61,-902 351.77,-902 351.77,-902"/>
<polygon fill="#6b7c93" stroke="#6b7c93" points="351.77,-904.45 358.77,-902 351.77,-899.55 351.77,-904.45"/>
</g>
<!-- home__zvonareva_info -->
<g id="node19" class="node">
<title>home__zvonareva_info</title>
<path fill="#f0fff4" stroke="#68d391" d="M430.61,-852C430.61,-852 370.61,-852 370.61,-852 364.61,-852 358.61,-846 358.61,-840 358.61,-840 358.61,-828 358.61,-828 358.61,-822 364.61,-816 370.61,-816 370.61,-816 430.61,-816 430.61,-816 436.61,-816 442.61,-822 442.61,-828 442.61,-828 442.61,-840 442.61,-840 442.61,-846 436.61,-852 430.61,-852"/>
<text text-anchor="middle" x="400.61" y="-837" font-family="Arial" font-size="10.00">Zvonareva</text>
<text text-anchor="middle" x="400.61" y="-826" font-family="Arial" font-size="10.00">/Zvonareva_info</text>
</g>
<!-- team&#45;&gt;home__zvonareva_info -->
<g id="edge18" class="edge">
<title>team&#45;&gt;home__zvonareva_info</title>
<path fill="none" stroke="#6b7c93" d="M263.61,-750.24C263.61,-779.57 263.61,-834 263.61,-834 263.61,-834 351.39,-834 351.39,-834"/>
<polygon fill="#6b7c93" stroke="#6b7c93" points="351.39,-836.45 358.39,-834 351.39,-831.55 351.39,-836.45"/>
</g>
<!-- home__semenova_info -->
<g id="node20" class="node">
<title>home__semenova_info</title>
<path fill="#f0fff4" stroke="#68d391" d="M431.11,-784C431.11,-784 370.11,-784 370.11,-784 364.11,-784 358.11,-778 358.11,-772 358.11,-772 358.11,-760 358.11,-760 358.11,-754 364.11,-748 370.11,-748 370.11,-748 431.11,-748 431.11,-748 437.11,-748 443.11,-754 443.11,-760 443.11,-760 443.11,-772 443.11,-772 443.11,-778 437.11,-784 431.11,-784"/>
<text text-anchor="middle" x="400.61" y="-769" font-family="Arial" font-size="10.00">Semenova</text>
<text text-anchor="middle" x="400.61" y="-758" font-family="Arial" font-size="10.00">/Semenova_info</text>
</g>
<!-- team&#45;&gt;home__semenova_info -->
<g id="edge19" class="edge">
<title>team&#45;&gt;home__semenova_info</title>
<path fill="none" stroke="#6b7c93" d="M268.61,-750.32C268.61,-758.79 268.61,-767 268.61,-767 268.61,-767 350.75,-767 350.75,-767"/>
<polygon fill="#6b7c93" stroke="#6b7c93" points="350.75,-769.45 357.75,-767 350.75,-764.55 350.75,-769.45"/>
</g>
<!-- home__neverov_info -->
<g id="node21" class="node">
<title>home__neverov_info</title>
<path fill="#f0fff4" stroke="#68d391" d="M426.11,-716C426.11,-716 375.11,-716 375.11,-716 369.11,-716 363.11,-710 363.11,-704 363.11,-704 363.11,-692 363.11,-692 363.11,-686 369.11,-680 375.11,-680 375.11,-680 426.11,-680 426.11,-680 432.11,-680 438.11,-686 438.11,-692 438.11,-692 438.11,-704 438.11,-704 438.11,-710 432.11,-716 426.11,-716"/>
<text text-anchor="middle" x="400.61" y="-701" font-family="Arial" font-size="10.00">Neverov</text>
<text text-anchor="middle" x="400.61" y="-690" font-family="Arial" font-size="10.00">/Neverov_info</text>
</g>
<!-- team&#45;&gt;home__neverov_info -->
<g id="edge20" class="edge">
<title>team&#45;&gt;home__neverov_info</title>
<path fill="none" stroke="#6b7c93" d="M269.61,-713.68C269.61,-705.21 269.61,-697 269.61,-697 269.61,-697 356.07,-697 356.07,-697"/>
<polygon fill="#6b7c93" stroke="#6b7c93" points="356.07,-699.45 363.07,-697 356.07,-694.55 356.07,-699.45"/>
</g>
<!-- home__nesterova_info -->
<g id="node22" class="node">
<title>home__nesterova_info</title>
<path fill="#f0fff4" stroke="#68d391" d="M430.61,-648C430.61,-648 370.61,-648 370.61,-648 364.61,-648 358.61,-642 358.61,-636 358.61,-636 358.61,-624 358.61,-624 358.61,-618 364.61,-612 370.61,-612 370.61,-612 430.61,-612 430.61,-612 436.61,-612 442.61,-618 442.61,-624 442.61,-624 442.61,-636 442.61,-636 442.61,-642 436.61,-648 430.61,-648"/>
<text text-anchor="middle" x="400.61" y="-633" font-family="Arial" font-size="10.00">Nesterova</text>
<text text-anchor="middle" x="400.61" y="-622" font-family="Arial" font-size="10.00">/Nesterova_info</text>
</g>
<!-- team&#45;&gt;home__nesterova_info -->
<g id="edge21" class="edge">
<title>team&#45;&gt;home__nesterova_info</title>
<path fill="none" stroke="#6b7c93" d="M266.61,-713.76C266.61,-684.43 266.61,-630 266.61,-630 266.61,-630 351.58,-630 351.58,-630"/>
<polygon fill="#6b7c93" stroke="#6b7c93" points="351.58,-632.45 358.58,-630 351.58,-627.55 351.58,-632.45"/>
</g>
<!-- home__mikhailapov_info -->
<g id="node23" class="node">
<title>home__mikhailapov_info</title>
<path fill="#f0fff4" stroke="#68d391" d="M433.61,-580C433.61,-580 367.61,-580 367.61,-580 361.61,-580 355.61,-574 355.61,-568 355.61,-568 355.61,-556 355.61,-556 355.61,-550 361.61,-544 367.61,-544 367.61,-544 433.61,-544 433.61,-544 439.61,-544 445.61,-550 445.61,-556 445.61,-556 445.61,-568 445.61,-568 445.61,-574 439.61,-580 433.61,-580"/>
<text text-anchor="middle" x="400.61" y="-565" font-family="Arial" font-size="10.00">Mikhailapov</text>
<text text-anchor="middle" x="400.61" y="-554" font-family="Arial" font-size="10.00">/Mikhailapov_info</text>
</g>
<!-- team&#45;&gt;home__mikhailapov_info -->
<g id="edge22" class="edge">
<title>team&#45;&gt;home__mikhailapov_info</title>
<path fill="none" stroke="#6b7c93" d="M263.61,-713.81C263.61,-669.95 263.61,-562 263.61,-562 263.61,-562 348.37,-562 348.37,-562"/>
<polygon fill="#6b7c93" stroke="#6b7c93" points="348.37,-564.45 355.37,-562 348.37,-559.55 348.37,-564.45"/>
</g>
<!-- home__kabanikhin_info -->
<g id="node24" class="node">
<title>home__kabanikhin_info</title>
<path fill="#f0fff4" stroke="#68d391" d="M432.11,-512C432.11,-512 369.11,-512 369.11,-512 363.11,-512 357.11,-506 357.11,-500 357.11,-500 357.11,-488 357.11,-488 357.11,-482 363.11,-476 369.11,-476 369.11,-476 432.11,-476 432.11,-476 438.11,-476 444.11,-482 444.11,-488 444.11,-488 444.11,-500 444.11,-500 444.11,-506 438.11,-512 432.11,-512"/>
<text text-anchor="middle" x="400.61" y="-497" font-family="Arial" font-size="10.00">Kabanikhin</text>
<text text-anchor="middle" x="400.61" y="-486" font-family="Arial" font-size="10.00">/Kabanikhin_info</text>
</g>
<!-- team&#45;&gt;home__kabanikhin_info -->
<g id="edge23" class="edge">
<title>team&#45;&gt;home__kabanikhin_info</title>
<path fill="none" stroke="#6b7c93" d="M260.61,-713.72C260.61,-657.99 260.61,-494 260.61,-494 260.61,-494 350.08,-494 350.08,-494"/>
<polygon fill="#6b7c93" stroke="#6b7c93" points="350.08,-496.45 357.08,-494 350.08,-491.55 350.08,-496.45"/>
</g>
<!-- home__main_publications_more_detailed -->
<g id="node25" class="node">
<title>home__main_publications_more_detailed</title>
<path fill="#fff5f5" stroke="#fc8181" d="M469.61,-444C469.61,-444 331.61,-444 331.61,-444 325.61,-444 319.61,-438 319.61,-432 319.61,-432 319.61,-420 319.61,-420 319.61,-414 325.61,-408 331.61,-408 331.61,-408 469.61,-408 469.61,-408 475.61,-408 481.61,-414 481.61,-420 481.61,-420 481.61,-432 481.61,-432 481.61,-438 475.61,-444 469.61,-444"/>
<text text-anchor="middle" x="400.61" y="-429" font-family="Arial" font-size="10.00">/Main_publications_more_detailed</text>
<text text-anchor="middle" x="400.61" y="-418" font-family="Arial" font-size="10.00">Main_publications_more_detailed</text>
</g>
<!-- pubs&#45;&gt;home__main_publications_more_detailed -->
<g id="edge24" class="edge">
<title>pubs&#45;&gt;home__main_publications_more_detailed</title>
<path fill="none" stroke="#6b7c93" d="M253.31,-426C253.31,-426 312.56,-426 312.56,-426"/>
<polygon fill="#6b7c93" stroke="#6b7c93" points="312.56,-428.45 319.56,-426 312.56,-423.55 312.56,-428.45"/>
</g>
<!-- home__conferences -->
<g id="node11" class="node">
<title>home__conferences</title>
<path fill="#ebf8ff" stroke="#63b3ed" d="M425.11,-376C425.11,-376 376.11,-376 376.11,-376 370.11,-376 364.11,-370 364.11,-364 364.11,-364 364.11,-352 364.11,-352 364.11,-346 370.11,-340 376.11,-340 376.11,-340 425.11,-340 425.11,-340 431.11,-340 437.11,-346 437.11,-352 437.11,-352 437.11,-364 437.11,-364 437.11,-370 431.11,-376 425.11,-376"/>
<text text-anchor="middle" x="400.61" y="-361" font-family="Arial" font-size="10.00">/Conferences</text>
<text text-anchor="middle" x="400.61" y="-350" font-family="Arial" font-size="10.00">Conferences</text>
</g>
<!-- confs&#45;&gt;home__conferences -->
<g id="edge10" class="edge">
<title>confs&#45;&gt;home__conferences</title>
<path fill="none" stroke="#6b7c93" d="M200.61,-274.24C200.61,-303.57 200.61,-358 200.61,-358 200.61,-358 356.93,-358 356.93,-358"/>
<polygon fill="#6b7c93" stroke="#6b7c93" points="356.93,-360.45 363.93,-358 356.93,-355.55 356.93,-360.45"/>
</g>
<!-- home__conf_astana -->
<g id="node12" class="node">
<title>home__conf_astana</title>
<path fill="#ebf8ff" stroke="#63b3ed" d="M426.11,-308C426.11,-308 375.11,-308 375.11,-308 369.11,-308 363.11,-302 363.11,-296 363.11,-296 363.11,-284 363.11,-284 363.11,-278 369.11,-272 375.11,-272 375.11,-272 426.11,-272 426.11,-272 432.11,-272 438.11,-278 438.11,-284 438.11,-284 438.11,-296 438.11,-296 438.11,-302 432.11,-308 426.11,-308"/>
<text text-anchor="middle" x="400.61" y="-293" font-family="Arial" font-size="10.00">/Conf_Astana</text>
<text text-anchor="middle" x="400.61" y="-282" font-family="Arial" font-size="10.00">Conf_Astana</text>
</g>
<!-- confs&#45;&gt;home__conf_astana -->
<g id="edge11" class="edge">
<title>confs&#45;&gt;home__conf_astana</title>
<path fill="none" stroke="#6b7c93" d="M256.76,-261.33C316.05,-261.33 400.61,-261.33 400.61,-261.33 400.61,-261.33 400.61,-264.68 400.61,-264.68"/>
<polygon fill="#6b7c93" stroke="#6b7c93" points="398.16,-264.68 400.61,-271.68 403.06,-264.68 398.16,-264.68"/>
</g>
<!-- home__conf_dynamics -->
<g id="node13" class="node">
<title>home__conf_dynamics</title>
<path fill="#ebf8ff" stroke="#63b3ed" d="M431.61,-240C431.61,-240 369.61,-240 369.61,-240 363.61,-240 357.61,-234 357.61,-228 357.61,-228 357.61,-216 357.61,-216 357.61,-210 363.61,-204 369.61,-204 369.61,-204 431.61,-204 431.61,-204 437.61,-204 443.61,-210 443.61,-216 443.61,-216 443.61,-228 443.61,-228 443.61,-234 437.61,-240 431.61,-240"/>
<text text-anchor="middle" x="400.61" y="-225" font-family="Arial" font-size="10.00">/Conf_dynamics</text>
<text text-anchor="middle" x="400.61" y="-214" font-family="Arial" font-size="10.00">Conf_dynamics</text>
</g>
<!-- confs&#45;&gt;home__conf_dynamics -->
<g id="edge12" class="edge">
<title>confs&#45;&gt;home__conf_dynamics</title>
<path fill="none" stroke="#6b7c93" d="M252.61,-237.68C252.61,-229.21 252.61,-221 252.61,-221 252.61,-221 350.4,-221 350.4,-221"/>
<polygon fill="#6b7c93" stroke="#6b7c93" points="350.4,-223.45 357.4,-221 350.4,-218.55 350.4,-223.45"/>
</g>
<!-- home__conf_mathematicsai -->
<g id="node14" class="node">
<title>home__conf_mathematicsai</title>
<path fill="#ebf8ff" stroke="#63b3ed" d="M443.61,-172C443.61,-172 357.61,-172 357.61,-172 351.61,-172 345.61,-166 345.61,-160 345.61,-160 345.61,-148 345.61,-148 345.61,-142 351.61,-136 357.61,-136 357.61,-136 443.61,-136 443.61,-136 449.61,-136 455.61,-142 455.61,-148 455.61,-148 455.61,-160 455.61,-160 455.61,-166 449.61,-172 443.61,-172"/>
<text text-anchor="middle" x="400.61" y="-157" font-family="Arial" font-size="10.00">/Conf_mathematicsAI</text>
<text text-anchor="middle" x="400.61" y="-146" font-family="Arial" font-size="10.00">Conf_mathematicsAI</text>
</g>
<!-- confs&#45;&gt;home__conf_mathematicsai -->
<g id="edge13" class="edge">
<title>confs&#45;&gt;home__conf_mathematicsai</title>
<path fill="none" stroke="#6b7c93" d="M248.61,-237.76C248.61,-208.43 248.61,-154 248.61,-154 248.61,-154 338.3,-154 338.3,-154"/>
<polygon fill="#6b7c93" stroke="#6b7c93" points="338.3,-156.45 345.3,-154 338.3,-151.55 338.3,-156.45"/>
</g>
<!-- home__conf_innovativemethods -->
<g id="node15" class="node">
<title>home__conf_innovativemethods</title>
<path fill="#ebf8ff" stroke="#63b3ed" d="M451.61,-104C451.61,-104 349.61,-104 349.61,-104 343.61,-104 337.61,-98 337.61,-92 337.61,-92 337.61,-80 337.61,-80 337.61,-74 343.61,-68 349.61,-68 349.61,-68 451.61,-68 451.61,-68 457.61,-68 463.61,-74 463.61,-80 463.61,-80 463.61,-92 463.61,-92 463.61,-98 457.61,-104 451.61,-104"/>
<text text-anchor="middle" x="400.61" y="-89" font-family="Arial" font-size="10.00">/Conf_innovativeMethods</text>
<text text-anchor="middle" x="400.61" y="-78" font-family="Arial" font-size="10.00">Conf_innovativeMethods</text>
</g>
<!-- confs&#45;&gt;home__conf_innovativemethods -->
<g id="edge14" class="edge">
<title>confs&#45;&gt;home__conf_innovativemethods</title>
<path fill="none" stroke="#6b7c93" d="M256.85,-250.67C296.21,-250.67 341.61,-250.67 341.61,-250.67 341.61,-250.67 341.61,-111.25 341.61,-111.25"/>
<polygon fill="#6b7c93" stroke="#6b7c93" points="344.06,-111.25 341.61,-104.25 339.16,-111.25 344.06,-111.25"/>
</g>
<!-- modeling_page -->
<g id="node26" class="node">
<title>modeling_page</title>
<path fill="#feebc8" stroke="#dd6b20" d="M417.11,-36C417.11,-36 384.11,-36 384.11,-36 378.11,-36 372.11,-30 372.11,-24 372.11,-24 372.11,-12 372.11,-12 372.11,-6 378.11,0 384.11,0 384.11,0 417.11,0 417.11,0 423.11,0 429.11,-6 429.11,-12 429.11,-12 429.11,-24 429.11,-24 429.11,-30 423.11,-36 417.11,-36"/>
<text text-anchor="middle" x="400.61" y="-21" font-family="Arial" font-size="10.00">/modeling</text>
<text text-anchor="middle" x="400.61" y="-10" font-family="Arial" font-size="10.00">Modeling</text>
</g>
<!-- picture&#45;&gt;modeling_page -->
<g id="edge25" class="edge">
<title>picture&#45;&gt;modeling_page</title>
<path fill="none" stroke="#6b7c93" d="M200.61,-67.78C200.61,-47.63 200.61,-18 200.61,-18 200.61,-18 364.96,-18 364.96,-18"/>
<polygon fill="#6b7c93" stroke="#6b7c93" points="364.96,-20.45 371.96,-18 364.96,-15.55 364.96,-20.45"/>
</g>
</g>
</svg>
