<?xml version="1.0" encoding="UTF-8" standalone="no"?>
<!DOCTYPE svg PUBLIC "-//W3C//DTD SVG 1.1//EN"
 "http://www.w3.org/Graphics/SVG/1.1/DTD/svg11.dtd">
<!-- Generated by graphviz version 2.42.4 (0)
 -->
<!-- Title: G Pages: 1 -->
<svg width="700pt" height="1645pt"
 viewBox="0.00 0.00 700.41 1645.20" xmlns="http://www.w3.org/2000/svg" xmlns:xlink="http://www.w3.org/1999/xlink">
<g id="graph0" class="graph" transform="scale(1 1) rotate(0) translate(21.6 1623.6)">
<title>G</title>
<polygon fill="white" stroke="transparent" points="-21.6,21.6 -21.6,-1623.6 678.81,-1623.6 678.81,21.6 -21.6,21.6"/>
<g id="clust1" class="cluster">
<title>cluster_ru</title>
<path fill="white" stroke="#bee3f8" d="M308.21,-839C308.21,-839 628.71,-839 628.71,-839 634.71,-839 640.71,-845 640.71,-851 640.71,-851 640.71,-1582 640.71,-1582 640.71,-1588 634.71,-1594 628.71,-1594 628.71,-1594 308.21,-1594 308.21,-1594 302.21,-1594 296.21,-1588 296.21,-1582 296.21,-1582 296.21,-851 296.21,-851 296.21,-845 302.21,-839 308.21,-839"/>
<text text-anchor="middle" x="468.46" y="-1578.8" font-family="Times,serif" font-size="14.00">Основные RU&#45;разделы</text>
</g>
<g id="clust2" class="cluster">
<title>cluster_en</title>
<path fill="white" stroke="#bee3f8" d="M291.21,-8C291.21,-8 637.21,-8 637.21,-8 643.21,-8 649.21,-14 649.21,-20 649.21,-20 649.21,-819 649.21,-819 649.21,-825 643.21,-831 637.21,-831 637.21,-831 291.21,-831 291.21,-831 285.21,-831 279.21,-825 279.21,-819 279.21,-819 279.21,-20 279.21,-20 279.21,-14 285.21,-8 291.21,-8"/>
<text text-anchor="middle" x="464.21" y="-815.8" font-family="Times,serif" font-size="14.00">Основные EN&#45;разделы</text>
</g>
<!-- user -->
<g id="node1" class="node">
<title>user</title>
<ellipse fill="#fff7e6" stroke="#d69e2e" cx="60.1" cy="-789" rx="60.21" ry="22.76"/>
<text text-anchor="middle" x="60.1" y="-792" font-family="Arial" font-size="10.00">Пользователь</text>
<text text-anchor="middle" x="60.1" y="-781" font-family="Arial" font-size="10.00">открывает сайт</text>
</g>
<!-- app -->
<g id="node2" class="node">
<title>app</title>
<path fill="#e6fffa" stroke="#319795" d="M228.21,-810.5C228.21,-810.5 179.21,-810.5 179.21,-810.5 173.21,-810.5 167.21,-804.5 167.21,-798.5 167.21,-798.5 167.21,-779.5 167.21,-779.5 167.21,-773.5 173.21,-767.5 179.21,-767.5 179.21,-767.5 228.21,-767.5 228.21,-767.5 234.21,-767.5 240.21,-773.5 240.21,-779.5 240.21,-779.5 240.21,-798.5 240.21,-798.5 240.21,-804.5 234.21,-810.5 228.21,-810.5"/>
<text text-anchor="middle" x="203.71" y="-797.5" font-family="Arial" font-size="10.00">App.js</text>
<text text-anchor="middle" x="203.71" y="-786.5" font-family="Arial" font-size="10.00">React Router</text>
<text text-anchor="middle" x="203.71" y="-775.5" font-family="Arial" font-size="10.00">136 routes</text>
</g>
<!-- user&#45;&gt;app -->
<g id="edge1" class="edge">
<title>user&#45;&gt;app</title>
<path fill="none" stroke="#6b7c93" d="M120.59,-789C120.59,-789 160.05,-789 160.05,-789"/>
<polygon fill="#6b7c93" stroke="#6b7c93" points="160.05,-791.45 167.05,-789 160.05,-786.55 160.05,-791.45"/>
</g>
<!-- navbar_ru -->
<g id="node3" class="node">
<title>navbar_ru</title>
<path fill="#ebf8ff" stroke="#3182ce" d="M397.21,-1189C397.21,-1189 316.21,-1189 316.21,-1189 310.21,-1189 304.21,-1183 304.21,-1177 304.21,-1177 304.21,-1165 304.21,-1165 304.21,-1159 310.21,-1153 316.21,-1153 316.21,-1153 397.21,-1153 397.21,-1153 403.21,-1153 409.21,-1159 409.21,-1165 409.21,-1165 409.21,-1177 409.21,-1177 409.21,-1183 403.21,-1189 397.21,-1189"/>
<text text-anchor="middle" x="356.71" y="-1174" font-family="Arial" font-size="10.00">NaviBar / NaviBarv2</text>
<text text-anchor="middle" x="356.71" y="-1163" font-family="Arial" font-size="10.00">RU меню</text>
</g>
<!-- app&#45;&gt;navbar_ru -->
<g id="edge2" class="edge">
<title>app&#45;&gt;navbar_ru</title>
<path fill="none" stroke="#6b7c93" d="M204.21,-810.63C204.21,-891.44 204.21,-1171 204.21,-1171 204.21,-1171 296.8,-1171 296.8,-1171"/>
<polygon fill="#6b7c93" stroke="#6b7c93" points="296.8,-1173.45 303.8,-1171 296.8,-1168.55 296.8,-1173.45"/>
</g>
<!-- navbar_en -->
<g id="node4" class="node">
<title>navbar_en</title>
<path fill="#ebf8ff" stroke="#3182ce" d="M414.21,-460C414.21,-460 299.21,-460 299.21,-460 293.21,-460 287.21,-454 287.21,-448 287.21,-448 287.21,-436 287.21,-436 287.21,-430 293.21,-424 299.21,-424 299.21,-424 414.21,-424 414.21,-424 420.21,-424 426.21,-430 426.21,-436 426.21,-436 426.21,-448 426.21,-448 426.21,-454 420.21,-460 414.21,-460"/>
<text text-anchor="middle" x="356.71" y="-445" font-family="Arial" font-size="10.00">NaviBar_En / NaviBarv2_En</text>
<text text-anchor="middle" x="356.71" y="-434" font-family="Arial" font-size="10.00">EN меню</text>
</g>
<!-- app&#45;&gt;navbar_en -->
<g id="edge3" class="edge">
<title>app&#45;&gt;navbar_en</title>
<path fill="none" stroke="#6b7c93" d="M240.27,-789.17C266.12,-789.17 296.21,-789.17 296.21,-789.17 296.21,-789.17 296.21,-467.18 296.21,-467.18"/>
<polygon fill="#6b7c93" stroke="#6b7c93" points="298.66,-467.18 296.21,-460.18 293.76,-467.18 298.66,-467.18"/>
</g>
<!-- ru__news -->
<g id="node5" class="node">
<title>ru__news</title>
<path fill="#f7fafc" stroke="#90cdf4" d="M572.21,-883C572.21,-883 542.21,-883 542.21,-883 536.21,-883 530.21,-877 530.21,-871 530.21,-871 530.21,-859 530.21,-859 530.21,-853 536.21,-847 542.21,-847 542.21,-847 572.21,-847 572.21,-847 578.21,-847 584.21,-853 584.21,-859 584.21,-859 584.21,-871 584.21,-871 584.21,-877 578.21,-883 572.21,-883"/>
<text text-anchor="middle" x="557.21" y="-868" font-family="Arial" font-size="10.00">/news</text>
<text text-anchor="middle" x="557.21" y="-857" font-family="Arial" font-size="10.00">News</text>
</g>
<!-- navbar_ru&#45;&gt;ru__news -->
<g id="edge4" class="edge">
<title>navbar_ru&#45;&gt;ru__news</title>
<path fill="none" stroke="#6b7c93" d="M339.21,-1152.77C339.21,-1086.9 339.21,-865 339.21,-865 339.21,-865 523.04,-865 523.04,-865"/>
<polygon fill="#6b7c93" stroke="#6b7c93" points="523.04,-867.45 530.04,-865 523.04,-862.55 523.04,-867.45"/>
</g>
<!-- ru__data_processing_and_analysis -->
<g id="node6" class="node">
<title>ru__data_processing_and_analysis</title>
<path fill="#f7fafc" stroke="#90cdf4" d="M620.71,-951C620.71,-951 493.71,-951 493.71,-951 487.71,-951 481.71,-945 481.71,-939 481.71,-939 481.71,-927 481.71,-927 481.71,-921 487.71,-915 493.71,-915 493.71,-915 620.71,-915 620.71,-915 626.71,-915 632.71,-921 632.71,-927 632.71,-927 632.71,-939 632.71,-939 632.71,-945 626.71,-951 620.71,-951"/>
<text text-anchor="middle" x="557.21" y="-936" font-family="Arial" font-size="10.00">/data_processing_and_analysis</text>
<text text-anchor="middle" x="557.21" y="-925" font-family="Arial" font-size="10.00">Data_processing_and_analysis</text>
</g>
<!-- navbar_ru&#45;&gt;ru__data_processing_and_analysis -->
<g id="edge5" class="edge">
<title>navbar_ru&#45;&gt;ru__data_processing_and_analysis</title>
<path fill="none" stroke="#6b7c93" d="M409.41,-1161.4C445.63,-1161.4 487.21,-1161.4 487.21,-1161.4 487.21,-1161.4 487.21,-958.3 487.21,-958.3"/>
<polygon fill="#6b7c93" stroke="#6b7c93" points="489.66,-958.3 487.21,-951.3 484.76,-958.3 489.66,-958.3"/>
</g>
<!-- ru__the_spread_of_epidemics -->
<g id="node7" class="node">
<title>ru__the_spread_of_epidemics</title>
<path fill="#f7fafc" stroke="#90cdf4" d="M609.71,-1019C609.71,-1019 504.71,-1019 504.71,-1019 498.71,-1019 492.71,-1013 492.71,-1007 492.71,-1007 492.71,-995 492.71,-995 492.71,-989 498.71,-983 504.71,-983 504.71,-983 609.71,-983 609.71,-983 615.71,-983 621.71,-989 621.71,-995 621.71,-995 621.71,-1007 621.71,-1007 621.71,-1013 615.71,-1019 609.71,-1019"/>
<text text-anchor="middle" x="557.21" y="-1004" font-family="Arial" font-size="10.00">/the_spread_of_epidemics</text>
<text text-anchor="middle" x="557.21" y="-993" font-family="Arial" font-size="10.00">The_spread_of_epidemics</text>
</g>
<!-- navbar_ru&#45;&gt;ru__the_spread_of_epidemics -->
<g id="edge6" class="edge">
<title>navbar_ru&#45;&gt;ru__the_spread_of_epidemics</title>
<path fill="none" stroke="#6b7c93" d="M409.28,-1167.8C450.6,-1167.8 501.21,-1167.8 501.21,-1167.8 501.21,-1167.8 501.21,-1026.17 501.21,-1026.17"/>
<polygon fill="#6b7c93" stroke="#6b7c93" points="503.66,-1026.17 501.21,-1019.17 498.76,-1026.17 503.66,-1026.17"/>
</g>
<!-- ru__social_processes -->
<g id="node8" class="node">
<title>ru__social_processes</title>
<path fill="#f7fafc" stroke="#90cdf4" d="M591.71,-1087C591.71,-1087 522.71,-1087 522.71,-1087 516.71,-1087 510.71,-1081 510.71,-1075 510.71,-1075 510.71,-1063 510.71,-1063 510.71,-1057 516.71,-1051 522.71,-1051 522.71,-1051 591.71,-1051 591.71,-1051 597.71,-1051 603.71,-1057 603.71,-1063 603.71,-1063 603.71,-1075 603.71,-1075 603.71,-1081 597.71,-1087 591.71,-1087"/>
<text text-anchor="middle" x="557.21" y="-1072" font-family="Arial" font-size="10.00">/social_processes</text>
<text text-anchor="middle" x="557.21" y="-1061" font-family="Arial" font-size="10.00">Social_processes</text>
</g>
<!-- navbar_ru&#45;&gt;ru__social_processes -->
<g id="edge7" class="edge">
<title>navbar_ru&#45;&gt;ru__social_processes</title>
<path fill="none" stroke="#6b7c93" d="M374.21,-1152.76C374.21,-1123.43 374.21,-1069 374.21,-1069 374.21,-1069 503.56,-1069 503.56,-1069"/>
<polygon fill="#6b7c93" stroke="#6b7c93" points="503.56,-1071.45 510.56,-1069 503.56,-1066.55 503.56,-1071.45"/>
</g>
<!-- ru__pollution_modeling -->
<g id="node9" class="node">
<title>ru__pollution_modeling</title>
<path fill="#f7fafc" stroke="#90cdf4" d="M594.21,-1155C594.21,-1155 520.21,-1155 520.21,-1155 514.21,-1155 508.21,-1149 508.21,-1143 508.21,-1143 508.21,-1131 508.21,-1131 508.21,-1125 514.21,-1119 520.21,-1119 520.21,-1119 594.21,-1119 594.21,-1119 600.21,-1119 606.21,-1125 606.21,-1131 606.21,-1131 606.21,-1143 606.21,-1143 606.21,-1149 600.21,-1155 594.21,-1155"/>
<text text-anchor="middle" x="557.21" y="-1140" font-family="Arial" font-size="10.00">/pollution_modeling</text>
<text text-anchor="middle" x="557.21" y="-1129" font-family="Arial" font-size="10.00">Pollution_modeling</text>
</g>
<!-- navbar_ru&#45;&gt;ru__pollution_modeling -->
<g id="edge8" class="edge">
<title>navbar_ru&#45;&gt;ru__pollution_modeling</title>
<path fill="none" stroke="#6b7c93" d="M409.47,-1174.2C456.92,-1174.2 519.21,-1174.2 519.21,-1174.2 519.21,-1174.2 519.21,-1162.16 519.21,-1162.16"/>
<polygon fill="#6b7c93" stroke="#6b7c93" points="521.66,-1162.16 519.21,-1155.16 516.76,-1162.16 521.66,-1162.16"/>
</g>
<!-- ru__medicine -->
<g id="node10" class="node">
<title>ru__medicine</title>
<path fill="#f7fafc" stroke="#90cdf4" d="M573.71,-1223C573.71,-1223 540.71,-1223 540.71,-1223 534.71,-1223 528.71,-1217 528.71,-1211 528.71,-1211 528.71,-1199 528.71,-1199 528.71,-1193 534.71,-1187 540.71,-1187 540.71,-1187 573.71,-1187 573.71,-1187 579.71,-1187 585.71,-1193 585.71,-1199 585.71,-1199 585.71,-1211 585.71,-1211 585.71,-1217 579.71,-1223 573.71,-1223"/>
<text text-anchor="middle" x="557.21" y="-1208" font-family="Arial" font-size="10.00">/medicine</text>
<text text-anchor="middle" x="557.21" y="-1197" font-family="Arial" font-size="10.00">Medicine</text>
</g>
<!-- navbar_ru&#45;&gt;ru__medicine -->
<g id="edge9" class="edge">
<title>navbar_ru&#45;&gt;ru__medicine</title>
<path fill="none" stroke="#6b7c93" d="M409.39,-1180.6C469.09,-1180.6 558.21,-1180.6 558.21,-1180.6 558.21,-1180.6 558.21,-1181.22 558.21,-1181.22"/>
<polygon fill="#6b7c93" stroke="#6b7c93" points="555.76,-1179.76 558.21,-1186.76 560.66,-1179.76 555.76,-1179.76"/>
</g>
<!-- ru__data -->
<g id="node11" class="node">
<title>ru__data</title>
<path fill="#f7fafc" stroke="#90cdf4" d="M572.21,-1291C572.21,-1291 542.21,-1291 542.21,-1291 536.21,-1291 530.21,-1285 530.21,-1279 530.21,-1279 530.21,-1267 530.21,-1267 530.21,-1261 536.21,-1255 542.21,-1255 542.21,-1255 572.21,-1255 572.21,-1255 578.21,-1255 584.21,-1261 584.21,-1267 584.21,-1267 584.21,-1279 584.21,-1279 584.21,-1285 578.21,-1291 572.21,-1291"/>
<text text-anchor="middle" x="557.21" y="-1276" font-family="Arial" font-size="10.00">/data</text>
<text text-anchor="middle" x="557.21" y="-1265" font-family="Arial" font-size="10.00">Data</text>
</g>
<!-- navbar_ru&#45;&gt;ru__data -->
<g id="edge10" class="edge">
<title>navbar_ru&#45;&gt;ru__data</title>
<path fill="none" stroke="#6b7c93" d="M392.21,-1189.24C392.21,-1218.57 392.21,-1273 392.21,-1273 392.21,-1273 522.96,-1273 522.96,-1273"/>
<polygon fill="#6b7c93" stroke="#6b7c93" points="522.96,-1275.45 529.96,-1273 522.96,-1270.55 522.96,-1275.45"/>
</g>
<!-- ru__links -->
<g id="node12" class="node">
<title>ru__links</title>
<path fill="#f7fafc" stroke="#90cdf4" d="M572.21,-1359C572.21,-1359 542.21,-1359 542.21,-1359 536.21,-1359 530.21,-1353 530.21,-1347 530.21,-1347 530.21,-1335 530.21,-1335 530.21,-1329 536.21,-1323 542.21,-1323 542.21,-1323 572.21,-1323 572.21,-1323 578.21,-1323 584.21,-1329 584.21,-1335 584.21,-1335 584.21,-1347 584.21,-1347 584.21,-1353 578.21,-1359 572.21,-1359"/>
<text text-anchor="middle" x="557.21" y="-1344" font-family="Arial" font-size="10.00">/links</text>
<text text-anchor="middle" x="557.21" y="-1333" font-family="Arial" font-size="10.00">Links</text>
</g>
<!-- navbar_ru&#45;&gt;ru__links -->
<g id="edge11" class="edge">
<title>navbar_ru&#45;&gt;ru__links</title>
<path fill="none" stroke="#6b7c93" d="M374.21,-1189.19C374.21,-1233.05 374.21,-1341 374.21,-1341 374.21,-1341 523.21,-1341 523.21,-1341"/>
<polygon fill="#6b7c93" stroke="#6b7c93" points="523.21,-1343.45 530.21,-1341 523.21,-1338.55 523.21,-1343.45"/>
</g>
<!-- ru__statistics -->
<g id="node13" class="node">
<title>ru__statistics</title>
<path fill="#f7fafc" stroke="#90cdf4" d="M573.71,-1427C573.71,-1427 540.71,-1427 540.71,-1427 534.71,-1427 528.71,-1421 528.71,-1415 528.71,-1415 528.71,-1403 528.71,-1403 528.71,-1397 534.71,-1391 540.71,-1391 540.71,-1391 573.71,-1391 573.71,-1391 579.71,-1391 585.71,-1397 585.71,-1403 585.71,-1403 585.71,-1415 585.71,-1415 585.71,-1421 579.71,-1427 573.71,-1427"/>
<text text-anchor="middle" x="557.21" y="-1412" font-family="Arial" font-size="10.00">/statistics</text>
<text text-anchor="middle" x="557.21" y="-1401" font-family="Arial" font-size="10.00">Covid</text>
</g>
<!-- navbar_ru&#45;&gt;ru__statistics -->
<g id="edge12" class="edge">
<title>navbar_ru&#45;&gt;ru__statistics</title>
<path fill="none" stroke="#6b7c93" d="M357.21,-1189.28C357.21,-1245.01 357.21,-1409 357.21,-1409 357.21,-1409 521.55,-1409 521.55,-1409"/>
<polygon fill="#6b7c93" stroke="#6b7c93" points="521.55,-1411.45 528.55,-1409 521.55,-1406.55 521.55,-1411.45"/>
</g>
<!-- ru__tub -->
<g id="node14" class="node">
<title>ru__tub</title>
<path fill="#f7fafc" stroke="#90cdf4" d="M572.21,-1495C572.21,-1495 542.21,-1495 542.21,-1495 536.21,-1495 530.21,-1489 530.21,-1483 530.21,-1483 530.21,-1471 530.21,-1471 530.21,-1465 536.21,-1459 542.21,-1459 542.21,-1459 572.21,-1459 572.21,-1459 578.21,-1459 584.21,-1465 584.21,-1471 584.21,-1471 584.21,-1483 584.21,-1483 584.21,-1489 578.21,-1495 572.21,-1495"/>
<text text-anchor="middle" x="557.21" y="-1480" font-family="Arial" font-size="10.00">/tub</text>
<text text-anchor="middle" x="557.21" y="-1469" font-family="Arial" font-size="10.00">Tub</text>
</g>
<!-- navbar_ru&#45;&gt;ru__tub -->
<g id="edge13" class="edge">
<title>navbar_ru&#45;&gt;ru__tub</title>
<path fill="none" stroke="#6b7c93" d="M339.21,-1189.23C339.21,-1255.1 339.21,-1477 339.21,-1477 339.21,-1477 523.04,-1477 523.04,-1477"/>
<polygon fill="#6b7c93" stroke="#6b7c93" points="523.04,-1479.45 530.04,-1477 523.04,-1474.55 523.04,-1479.45"/>
</g>
<!-- ru__ -->
<g id="node15" class="node">
<title>ru__</title>
<path fill="#f7fafc" stroke="#90cdf4" d="M572.21,-1563C572.21,-1563 542.21,-1563 542.21,-1563 536.21,-1563 530.21,-1557 530.21,-1551 530.21,-1551 530.21,-1539 530.21,-1539 530.21,-1533 536.21,-1527 542.21,-1527 542.21,-1527 572.21,-1527 572.21,-1527 578.21,-1527 584.21,-1533 584.21,-1539 584.21,-1539 584.21,-1551 584.21,-1551 584.21,-1557 578.21,-1563 572.21,-1563"/>
<text text-anchor="middle" x="557.21" y="-1548" font-family="Arial" font-size="10.00">/</text>
<text text-anchor="middle" x="557.21" y="-1537" font-family="Arial" font-size="10.00">Main</text>
</g>
<!-- navbar_ru&#45;&gt;ru__ -->
<g id="edge14" class="edge">
<title>navbar_ru&#45;&gt;ru__</title>
<path fill="none" stroke="#6b7c93" d="M322.21,-1189.04C322.21,-1263.75 322.21,-1545 322.21,-1545 322.21,-1545 522.79,-1545 522.79,-1545"/>
<polygon fill="#6b7c93" stroke="#6b7c93" points="522.79,-1547.45 529.79,-1545 522.79,-1542.55 522.79,-1547.45"/>
</g>
<!-- en__en -->
<g id="node16" class="node">
<title>en__en</title>
<path fill="#f7fafc" stroke="#90cdf4" d="M572.21,-52C572.21,-52 542.21,-52 542.21,-52 536.21,-52 530.21,-46 530.21,-40 530.21,-40 530.21,-28 530.21,-28 530.21,-22 536.21,-16 542.21,-16 542.21,-16 572.21,-16 572.21,-16 578.21,-16 584.21,-22 584.21,-28 584.21,-28 584.21,-40 584.21,-40 584.21,-46 578.21,-52 572.21,-52"/>
<text text-anchor="middle" x="557.21" y="-37" font-family="Arial" font-size="10.00">/en</text>
<text text-anchor="middle" x="557.21" y="-26" font-family="Arial" font-size="10.00">Main_En</text>
</g>
<!-- navbar_en&#45;&gt;en__en -->
<g id="edge15" class="edge">
<title>navbar_en&#45;&gt;en__en</title>
<path fill="none" stroke="#6b7c93" d="M315.21,-423.94C315.21,-344.98 315.21,-34 315.21,-34 315.21,-34 522.92,-34 522.92,-34"/>
<polygon fill="#6b7c93" stroke="#6b7c93" points="522.92,-36.45 529.92,-34 522.92,-31.55 522.92,-36.45"/>
</g>
<!-- en__news_en -->
<g id="node17" class="node">
<title>en__news_en</title>
<path fill="#f7fafc" stroke="#90cdf4" d="M573.71,-120C573.71,-120 540.71,-120 540.71,-120 534.71,-120 528.71,-114 528.71,-108 528.71,-108 528.71,-96 528.71,-96 528.71,-90 534.71,-84 540.71,-84 540.71,-84 573.71,-84 573.71,-84 579.71,-84 585.71,-90 585.71,-96 585.71,-96 585.71,-108 585.71,-108 585.71,-114 579.71,-120 573.71,-120"/>
<text text-anchor="middle" x="557.21" y="-105" font-family="Arial" font-size="10.00">/news/en</text>
<text text-anchor="middle" x="557.21" y="-94" font-family="Arial" font-size="10.00">News_En</text>
</g>
<!-- navbar_en&#45;&gt;en__news_en -->
<g id="edge16" class="edge">
<title>navbar_en&#45;&gt;en__news_en</title>
<path fill="none" stroke="#6b7c93" d="M343.21,-423.72C343.21,-353.1 343.21,-102 343.21,-102 343.21,-102 521.35,-102 521.35,-102"/>
<polygon fill="#6b7c93" stroke="#6b7c93" points="521.35,-104.45 528.35,-102 521.35,-99.55 521.35,-104.45"/>
</g>
<!-- en__data_processing_and_analysis_en -->
<g id="node18" class="node">
<title>en__data_processing_and_analysis_en</title>
<path fill="#f7fafc" stroke="#90cdf4" d="M629.21,-188C629.21,-188 485.21,-188 485.21,-188 479.21,-188 473.21,-182 473.21,-176 473.21,-176 473.21,-164 473.21,-164 473.21,-158 479.21,-152 485.21,-152 485.21,-152 629.21,-152 629.21,-152 635.21,-152 641.21,-158 641.21,-164 641.21,-164 641.21,-176 641.21,-176 641.21,-182 635.21,-188 629.21,-188"/>
<text text-anchor="middle" x="557.21" y="-173" font-family="Arial" font-size="10.00">/data_processing_and_analysis/en</text>
<text text-anchor="middle" x="557.21" y="-162" font-family="Arial" font-size="10.00">Data_processing_and_analysis_En</text>
</g>
<!-- navbar_en&#45;&gt;en__data_processing_and_analysis_en -->
<g id="edge17" class="edge">
<title>navbar_en&#45;&gt;en__data_processing_and_analysis_en</title>
<path fill="none" stroke="#6b7c93" d="M371.21,-423.73C371.21,-362.75 371.21,-170 371.21,-170 371.21,-170 466.19,-170 466.19,-170"/>
<polygon fill="#6b7c93" stroke="#6b7c93" points="466.19,-172.45 473.19,-170 466.19,-167.55 466.19,-172.45"/>
</g>
<!-- en__the_spread_of_epidemics_en -->
<g id="node19" class="node">
<title>en__the_spread_of_epidemics_en</title>
<path fill="#f7fafc" stroke="#90cdf4" d="M618.21,-256C618.21,-256 496.21,-256 496.21,-256 490.21,-256 484.21,-250 484.21,-244 484.21,-244 484.21,-232 484.21,-232 484.21,-226 490.21,-220 496.21,-220 496.21,-220 618.21,-220 618.21,-220 624.21,-220 630.21,-226 630.21,-232 630.21,-232 630.21,-244 630.21,-244 630.21,-250 624.21,-256 618.21,-256"/>
<text text-anchor="middle" x="557.21" y="-241" font-family="Arial" font-size="10.00">/the_spread_of_epidemics/en</text>
<text text-anchor="middle" x="557.21" y="-230" font-family="Arial" font-size="10.00">The_spread_of_epidemics_En</text>
</g>
<!-- navbar_en&#45;&gt;en__the_spread_of_epidemics_en -->
<g id="edge18" class="edge">
<title>navbar_en&#45;&gt;en__the_spread_of_epidemics_en</title>
<path fill="none" stroke="#6b7c93" d="M426.44,-433C459.64,-433 492.21,-433 492.21,-433 492.21,-433 492.21,-263.35 492.21,-263.35"/>
<polygon fill="#6b7c93" stroke="#6b7c93" points="494.66,-263.35 492.21,-256.35 489.76,-263.35 494.66,-263.35"/>
</g>
<!-- en__social_processes_en -->
<g id="node20" class="node">
<title>en__social_processes_en</title>
<path fill="#f7fafc" stroke="#90cdf4" d="M599.71,-324C599.71,-324 514.71,-324 514.71,-324 508.71,-324 502.71,-318 502.71,-312 502.71,-312 502.71,-300 502.71,-300 502.71,-294 508.71,-288 514.71,-288 514.71,-288 599.71,-288 599.71,-288 605.71,-288 611.71,-294 611.71,-300 611.71,-300 611.71,-312 611.71,-312 611.71,-318 605.71,-324 599.71,-324"/>
<text text-anchor="middle" x="557.21" y="-309" font-family="Arial" font-size="10.00">/social_processes/en</text>
<text text-anchor="middle" x="557.21" y="-298" font-family="Arial" font-size="10.00">Social_processes_En</text>
</g>
<!-- navbar_en&#45;&gt;en__social_processes_en -->
<g id="edge19" class="edge">
<title>navbar_en&#45;&gt;en__social_processes_en</title>
<path fill="none" stroke="#6b7c93" d="M399.21,-423.94C399.21,-386.95 399.21,-306 399.21,-306 399.21,-306 495.39,-306 495.39,-306"/>
<polygon fill="#6b7c93" stroke="#6b7c93" points="495.39,-308.45 502.39,-306 495.39,-303.55 495.39,-308.45"/>
</g>
<!-- en__pollution_modeling_en -->
<g id="node21" class="node">
<title>en__pollution_modeling_en</title>
<path fill="#f7fafc" stroke="#90cdf4" d="M602.21,-392C602.21,-392 512.21,-392 512.21,-392 506.21,-392 500.21,-386 500.21,-380 500.21,-380 500.21,-368 500.21,-368 500.21,-362 506.21,-356 512.21,-356 512.21,-356 602.21,-356 602.21,-356 608.21,-356 614.21,-362 614.21,-368 614.21,-368 614.21,-380 614.21,-380 614.21,-386 608.21,-392 602.21,-392"/>
<text text-anchor="middle" x="557.21" y="-377" font-family="Arial" font-size="10.00">/pollution_modeling/en</text>
<text text-anchor="middle" x="557.21" y="-366" font-family="Arial" font-size="10.00">Pollution_modeling_En</text>
</g>
<!-- navbar_en&#45;&gt;en__pollution_modeling_en -->
<g id="edge20" class="edge">
<title>navbar_en&#45;&gt;en__pollution_modeling_en</title>
<path fill="none" stroke="#6b7c93" d="M426.27,-442C467.28,-442 511.21,-442 511.21,-442 511.21,-442 511.21,-399.22 511.21,-399.22"/>
<polygon fill="#6b7c93" stroke="#6b7c93" points="513.66,-399.22 511.21,-392.22 508.76,-399.22 513.66,-399.22"/>
</g>
<!-- en__medicine_en -->
<g id="node22" class="node">
<title>en__medicine_en</title>
<path fill="#f7fafc" stroke="#90cdf4" d="M580.71,-460C580.71,-460 533.71,-460 533.71,-460 527.71,-460 521.71,-454 521.71,-448 521.71,-448 521.71,-436 521.71,-436 521.71,-430 527.71,-424 533.71,-424 533.71,-424 580.71,-424 580.71,-424 586.71,-424 592.71,-430 592.71,-436 592.71,-436 592.71,-448 592.71,-448 592.71,-454 586.71,-460 580.71,-460"/>
<text text-anchor="middle" x="557.21" y="-445" font-family="Arial" font-size="10.00">/medicine/en</text>
<text text-anchor="middle" x="557.21" y="-434" font-family="Arial" font-size="10.00">Medicine_En</text>
</g>
<!-- navbar_en&#45;&gt;en__medicine_en -->
<g id="edge21" class="edge">
<title>navbar_en&#45;&gt;en__medicine_en</title>
<path fill="none" stroke="#6b7c93" d="M426.27,-451C426.27,-451 514.55,-451 514.55,-451"/>
<polygon fill="#6b7c93" stroke="#6b7c93" points="514.55,-453.45 521.55,-451 514.55,-448.55 514.55,-453.45"/>
</g>
<!-- en__data_en -->
<g id="node23" class="node">
<title>en__data_en</title>
<path fill="#f7fafc" stroke="#90cdf4" d="M572.21,-528C572.21,-528 542.21,-528 542.21,-528 536.21,-528 530.21,-522 530.21,-516 530.21,-516 530.21,-504 530.21,-504 530.21,-498 536.21,-492 542.21,-492 542.21,-492 572.21,-492 572.21,-492 578.21,-492 584.21,-498 584.21,-504 584.21,-504 584.21,-516 584.21,-516 584.21,-522 578.21,-528 572.21,-528"/>
<text text-anchor="middle" x="557.21" y="-513" font-family="Arial" font-size="10.00">/data/en</text>
<text text-anchor="middle" x="557.21" y="-502" font-family="Arial" font-size="10.00">Data_En</text>
</g>
<!-- navbar_en&#45;&gt;en__data_en -->
<g id="edge22" class="edge">
<title>navbar_en&#45;&gt;en__data_en</title>
<path fill="none" stroke="#6b7c93" d="M424.21,-460.22C424.21,-480.37 424.21,-510 424.21,-510 424.21,-510 522.97,-510 522.97,-510"/>
<polygon fill="#6b7c93" stroke="#6b7c93" points="522.97,-512.45 529.97,-510 522.97,-507.55 522.97,-512.45"/>
</g>
<!-- en__links_en -->
<g id="node24" class="node">
<title>en__links_en</title>
<path fill="#f7fafc" stroke="#90cdf4" d="M572.71,-596C572.71,-596 541.71,-596 541.71,-596 535.71,-596 529.71,-590 529.71,-584 529.71,-584 529.71,-572 529.71,-572 529.71,-566 535.71,-560 541.71,-560 541.71,-560 572.71,-560 572.71,-560 578.71,-560 584.71,-566 584.71,-572 584.71,-572 584.71,-584 584.71,-584 584.71,-590 578.71,-596 572.71,-596"/>
<text text-anchor="middle" x="557.21" y="-581" font-family="Arial" font-size="10.00">/links/en</text>
<text text-anchor="middle" x="557.21" y="-570" font-family="Arial" font-size="10.00">Links_En</text>
</g>
<!-- navbar_en&#45;&gt;en__links_en -->
<g id="edge23" class="edge">
<title>navbar_en&#45;&gt;en__links_en</title>
<path fill="none" stroke="#6b7c93" d="M421.21,-460.06C421.21,-497.05 421.21,-578 421.21,-578 421.21,-578 522.69,-578 522.69,-578"/>
<polygon fill="#6b7c93" stroke="#6b7c93" points="522.69,-580.45 529.69,-578 522.69,-575.55 522.69,-580.45"/>
</g>
<!-- en__statistics_en -->
<g id="node25" class="node">
<title>en__statistics_en</title>
<path fill="#f7fafc" stroke="#90cdf4" d="M580.71,-664C580.71,-664 533.71,-664 533.71,-664 527.71,-664 521.71,-658 521.71,-652 521.71,-652 521.71,-640 521.71,-640 521.71,-634 527.71,-628 533.71,-628 533.71,-628 580.71,-628 580.71,-628 586.71,-628 592.71,-634 592.71,-640 592.71,-640 592.71,-652 592.71,-652 592.71,-658 586.71,-664 580.71,-664"/>
<text text-anchor="middle" x="557.21" y="-649" font-family="Arial" font-size="10.00">/statistics/en</text>
<text text-anchor="middle" x="557.21" y="-638" font-family="Arial" font-size="10.00">Covid_En</text>
</g>
<!-- navbar_en&#45;&gt;en__statistics_en -->
<g id="edge24" class="edge">
<title>navbar_en&#45;&gt;en__statistics_en</title>
<path fill="none" stroke="#6b7c93" d="M418.21,-460.1C418.21,-510.03 418.21,-646 418.21,-646 418.21,-646 514.41,-646 514.41,-646"/>
<polygon fill="#6b7c93" stroke="#6b7c93" points="514.41,-648.45 521.41,-646 514.41,-643.55 514.41,-648.45"/>
</g>
<!-- en__tub_en -->
<g id="node26" class="node">
<title>en__tub_en</title>
<path fill="#f7fafc" stroke="#90cdf4" d="M572.21,-732C572.21,-732 542.21,-732 542.21,-732 536.21,-732 530.21,-726 530.21,-720 530.21,-720 530.21,-708 530.21,-708 530.21,-702 536.21,-696 542.21,-696 542.21,-696 572.21,-696 572.21,-696 578.21,-696 584.21,-702 584.21,-708 584.21,-708 584.21,-720 584.21,-720 584.21,-726 578.21,-732 572.21,-732"/>
<text text-anchor="middle" x="557.21" y="-717" font-family="Arial" font-size="10.00">/tub/en</text>
<text text-anchor="middle" x="557.21" y="-706" font-family="Arial" font-size="10.00">Tub_En</text>
</g>
<!-- navbar_en&#45;&gt;en__tub_en -->
<g id="edge25" class="edge">
<title>navbar_en&#45;&gt;en__tub_en</title>
<path fill="none" stroke="#6b7c93" d="M415.21,-460.27C415.21,-521.25 415.21,-714 415.21,-714 415.21,-714 523.16,-714 523.16,-714"/>
<polygon fill="#6b7c93" stroke="#6b7c93" points="523.16,-716.45 530.16,-714 523.16,-711.55 523.16,-716.45"/>
</g>
<!-- en__ -->
<g id="node27" class="node">
<title>en__</title>
<path fill="#f7fafc" stroke="#90cdf4" d="M572.21,-800C572.21,-800 542.21,-800 542.21,-800 536.21,-800 530.21,-794 530.21,-788 530.21,-788 530.21,-776 530.21,-776 530.21,-770 536.21,-764 542.21,-764 542.21,-764 572.21,-764 572.21,-764 578.21,-764 584.21,-770 584.21,-776 584.21,-776 584.21,-788 584.21,-788 584.21,-794 578.21,-800 572.21,-800"/>
<text text-anchor="middle" x="557.21" y="-785" font-family="Arial" font-size="10.00">/</text>
<text text-anchor="middle" x="557.21" y="-774" font-family="Arial" font-size="10.00">Main</text>
</g>
<!-- navbar_en&#45;&gt;en__ -->
<g id="edge26" class="edge">
<title>navbar_en&#45;&gt;en__</title>
<path fill="none" stroke="#6b7c93" d="M412.21,-460.08C412.21,-529.94 412.21,-778.33 412.21,-778.33 412.21,-778.33 522.93,-778.33 522.93,-778.33"/>
<polygon fill="#6b7c93" stroke="#6b7c93" points="522.93,-780.78 529.93,-778.33 522.93,-775.88 522.93,-780.78"/>
</g>
</g>
</svg>
