<?xml version="1.0" encoding="UTF-8" standalone="no"?>
<!DOCTYPE svg PUBLIC "-//W3C//DTD SVG 1.1//EN"
 "http://www.w3.org/Graphics/SVG/1.1/DTD/svg11.dtd">
<!-- Generated by graphviz version 2.42.4 (0)
 -->
<!-- Title: G Pages: 1 -->
<svg width="436pt" height="2935pt"
 viewBox="0.00 0.00 435.99 2935.20" xmlns="http://www.w3.org/2000/svg" xmlns:xlink="http://www.w3.org/1999/xlink">
<g id="graph0" class="graph" transform="scale(1 1) rotate(0) translate(21.6 2913.6)">
<title>G</title>
<polygon fill="white" stroke="transparent" points="-21.6,21.6 -21.6,-2913.6 414.39,-2913.6 414.39,21.6 -21.6,21.6"/>
<!-- news -->
<g id="node1" class="node">
<title>news</title>
<ellipse fill="#e9d8fd" stroke="#805ad5" cx="59.4" cy="-1072" rx="59.29" ry="28.07"/>
<text text-anchor="middle" x="59.4" y="-1079.8" font-family="Arial" font-size="9.00">/news</text>
<text text-anchor="middle" x="59.4" y="-1069.8" font-family="Arial" font-size="9.00">News.js</text>
<text text-anchor="middle" x="59.4" y="-1059.8" font-family="Arial" font-size="9.00">список новостей</text>
</g>
<!-- sem -->
<g id="node2" class="node">
<title>sem</title>
<path fill="#faf5ff" stroke="#b794f4" d="M246.79,-2212C246.79,-2212 210.79,-2212 210.79,-2212 204.79,-2212 198.79,-2206 198.79,-2200 198.79,-2200 198.79,-2188 198.79,-2188 198.79,-2182 204.79,-2176 210.79,-2176 210.79,-2176 246.79,-2176 246.79,-2176 252.79,-2176 258.79,-2182 258.79,-2188 258.79,-2188 258.79,-2200 258.79,-2200 258.79,-2206 252.79,-2212 246.79,-2212"/>
<text text-anchor="middle" x="228.79" y="-2196.8" font-family="Arial" font-size="9.00">Семинары</text>
<text text-anchor="middle" x="228.79" y="-2186.8" font-family="Arial" font-size="9.00">/Sem_*</text>
</g>
<!-- news&#45;&gt;sem -->
<g id="edge1" class="edge">
<title>news&#45;&gt;sem</title>
<path fill="none" stroke="#6b7c93" d="M59.79,-1100.3C59.79,-1274.5 59.79,-2194 59.79,-2194 59.79,-2194 191.58,-2194 191.58,-2194"/>
<polygon fill="#6b7c93" stroke="#6b7c93" points="191.58,-2196.45 198.58,-2194 191.58,-2191.55 191.58,-2196.45"/>
</g>
<!-- confnews -->
<g id="node3" class="node">
<title>confnews</title>
<path fill="#faf5ff" stroke="#b794f4" d="M272.29,-1260C272.29,-1260 185.29,-1260 185.29,-1260 179.29,-1260 173.29,-1254 173.29,-1248 173.29,-1248 173.29,-1236 173.29,-1236 173.29,-1230 179.29,-1224 185.29,-1224 185.29,-1224 272.29,-1224 272.29,-1224 278.29,-1224 284.29,-1230 284.29,-1236 284.29,-1236 284.29,-1248 284.29,-1248 284.29,-1254 278.29,-1260 272.29,-1260"/>
<text text-anchor="middle" x="228.79" y="-1244.8" font-family="Arial" font-size="9.00">Новости конференций</text>
<text text-anchor="middle" x="228.79" y="-1234.8" font-family="Arial" font-size="9.00">/Conf_*</text>
</g>
<!-- news&#45;&gt;confnews -->
<g id="edge2" class="edge">
<title>news&#45;&gt;confnews</title>
<path fill="none" stroke="#6b7c93" d="M96.46,-1094.14C140.42,-1094.14 207.79,-1094.14 207.79,-1094.14 207.79,-1094.14 207.79,-1216.87 207.79,-1216.87"/>
<polygon fill="#6b7c93" stroke="#6b7c93" points="205.34,-1216.87 207.79,-1223.87 210.24,-1216.87 205.34,-1216.87"/>
</g>
<!-- life -->
<g id="node4" class="node">
<title>life</title>
<path fill="#faf5ff" stroke="#b794f4" d="M266.79,-886C266.79,-886 190.79,-886 190.79,-886 184.79,-886 178.79,-880 178.79,-874 178.79,-874 178.79,-862 178.79,-862 178.79,-856 184.79,-850 190.79,-850 190.79,-850 266.79,-850 266.79,-850 272.79,-850 278.79,-856 278.79,-862 278.79,-862 278.79,-874 278.79,-874 278.79,-880 272.79,-886 266.79,-886"/>
<text text-anchor="middle" x="228.79" y="-870.8" font-family="Arial" font-size="9.00">Жизнь лаборатории</text>
<text text-anchor="middle" x="228.79" y="-860.8" font-family="Arial" font-size="9.00">/Life_*</text>
</g>
<!-- news&#45;&gt;life -->
<g id="edge3" class="edge">
<title>news&#45;&gt;life</title>
<path fill="none" stroke="#6b7c93" d="M96.48,-1049.86C136.26,-1049.86 193.79,-1049.86 193.79,-1049.86 193.79,-1049.86 193.79,-893.1 193.79,-893.1"/>
<polygon fill="#6b7c93" stroke="#6b7c93" points="196.24,-893.1 193.79,-886.1 191.34,-893.1 196.24,-893.1"/>
</g>
<!-- semcompl -->
<g id="node5" class="node">
<title>semcompl</title>
<path fill="#faf5ff" stroke="#b794f4" d="M279.79,-376C279.79,-376 177.79,-376 177.79,-376 171.79,-376 165.79,-370 165.79,-364 165.79,-364 165.79,-352 165.79,-352 165.79,-346 171.79,-340 177.79,-340 177.79,-340 279.79,-340 279.79,-340 285.79,-340 291.79,-346 291.79,-352 291.79,-352 291.79,-364 291.79,-364 291.79,-370 285.79,-376 279.79,-376"/>
<text text-anchor="middle" x="228.79" y="-360.8" font-family="Arial" font-size="9.00">Страница всех семинаров</text>
<text text-anchor="middle" x="228.79" y="-350.8" font-family="Arial" font-size="9.00">/Sem_Compl</text>
</g>
<!-- news&#45;&gt;semcompl -->
<g id="edge4" class="edge">
<title>news&#45;&gt;semcompl</title>
<path fill="none" stroke="#6b7c93" d="M86.4,-1046.79C119.09,-1046.79 169.79,-1046.79 169.79,-1046.79 169.79,-1046.79 169.79,-383.07 169.79,-383.07"/>
<polygon fill="#6b7c93" stroke="#6b7c93" points="172.24,-383.07 169.79,-376.07 167.34,-383.07 172.24,-383.07"/>
</g>
<!-- sem__sem_a -->
<g id="node6" class="node">
<title>sem__sem_a</title>
<path fill="#f8fbff" stroke="#b794f4" d="M380.79,-2892C380.79,-2892 350.79,-2892 350.79,-2892 344.79,-2892 338.79,-2886 338.79,-2880 338.79,-2880 338.79,-2868 338.79,-2868 338.79,-2862 344.79,-2856 350.79,-2856 350.79,-2856 380.79,-2856 380.79,-2856 386.79,-2856 392.79,-2862 392.79,-2868 392.79,-2868 392.79,-2880 392.79,-2880 392.79,-2886 386.79,-2892 380.79,-2892"/>
<text text-anchor="middle" x="365.79" y="-2876.8" font-family="Arial" font-size="9.00">/Sem_a</text>
<text text-anchor="middle" x="365.79" y="-2866.8" font-family="Arial" font-size="9.00">Sem_a</text>
</g>
<!-- sem&#45;&gt;sem__sem_a -->
<g id="edge5" class="edge">
<title>sem&#45;&gt;sem__sem_a</title>
<path fill="none" stroke="#6b7c93" d="M204.79,-2212.19C204.79,-2320.33 204.79,-2874 204.79,-2874 204.79,-2874 331.48,-2874 331.48,-2874"/>
<polygon fill="#6b7c93" stroke="#6b7c93" points="331.48,-2876.45 338.48,-2874 331.48,-2871.55 331.48,-2876.45"/>
</g>
<!-- sem__sem_b -->
<g id="node7" class="node">
<title>sem__sem_b</title>
<path fill="#f8fbff" stroke="#b794f4" d="M380.79,-2824C380.79,-2824 350.79,-2824 350.79,-2824 344.79,-2824 338.79,-2818 338.79,-2812 338.79,-2812 338.79,-2800 338.79,-2800 338.79,-2794 344.79,-2788 350.79,-2788 350.79,-2788 380.79,-2788 380.79,-2788 386.79,-2788 392.79,-2794 392.79,-2800 392.79,-2800 392.79,-2812 392.79,-2812 392.79,-2818 386.79,-2824 380.79,-2824"/>
<text text-anchor="middle" x="365.79" y="-2808.8" font-family="Arial" font-size="9.00">/Sem_b</text>
<text text-anchor="middle" x="365.79" y="-2798.8" font-family="Arial" font-size="9.00">Sem_b</text>
</g>
<!-- sem&#45;&gt;sem__sem_b -->
<g id="edge6" class="edge">
<title>sem&#45;&gt;sem__sem_b</title>
<path fill="none" stroke="#6b7c93" d="M209.79,-2212.32C209.79,-2314.15 209.79,-2806 209.79,-2806 209.79,-2806 331.62,-2806 331.62,-2806"/>
<polygon fill="#6b7c93" stroke="#6b7c93" points="331.62,-2808.45 338.62,-2806 331.62,-2803.55 331.62,-2808.45"/>
</g>
<!-- sem__sem_c -->
<g id="node8" class="node">
<title>sem__sem_c</title>
<path fill="#f8fbff" stroke="#b794f4" d="M380.79,-2756C380.79,-2756 350.79,-2756 350.79,-2756 344.79,-2756 338.79,-2750 338.79,-2744 338.79,-2744 338.79,-2732 338.79,-2732 338.79,-2726 344.79,-2720 350.79,-2720 350.79,-2720 380.79,-2720 380.79,-2720 386.79,-2720 392.79,-2726 392.79,-2732 392.79,-2732 392.79,-2744 392.79,-2744 392.79,-2750 386.79,-2756 380.79,-2756"/>
<text text-anchor="middle" x="365.79" y="-2740.8" font-family="Arial" font-size="9.00">/Sem_c</text>
<text text-anchor="middle" x="365.79" y="-2730.8" font-family="Arial" font-size="9.00">Sem_c</text>
</g>
<!-- sem&#45;&gt;sem__sem_c -->
<g id="edge7" class="edge">
<title>sem&#45;&gt;sem__sem_c</title>
<path fill="none" stroke="#6b7c93" d="M215.79,-2212.1C215.79,-2306.49 215.79,-2738 215.79,-2738 215.79,-2738 331.63,-2738 331.63,-2738"/>
<polygon fill="#6b7c93" stroke="#6b7c93" points="331.63,-2740.45 338.63,-2738 331.63,-2735.55 331.63,-2740.45"/>
</g>
<!-- sem__sem_d -->
<g id="node9" class="node">
<title>sem__sem_d</title>
<path fill="#f8fbff" stroke="#b794f4" d="M380.79,-2688C380.79,-2688 350.79,-2688 350.79,-2688 344.79,-2688 338.79,-2682 338.79,-2676 338.79,-2676 338.79,-2664 338.79,-2664 338.79,-2658 344.79,-2652 350.79,-2652 350.79,-2652 380.79,-2652 380.79,-2652 386.79,-2652 392.79,-2658 392.79,-2664 392.79,-2664 392.79,-2676 392.79,-2676 392.79,-2682 386.79,-2688 380.79,-2688"/>
<text text-anchor="middle" x="365.79" y="-2672.8" font-family="Arial" font-size="9.00">/Sem_d</text>
<text text-anchor="middle" x="365.79" y="-2662.8" font-family="Arial" font-size="9.00">Sem_d</text>
</g>
<!-- sem&#45;&gt;sem__sem_d -->
<g id="edge8" class="edge">
<title>sem&#45;&gt;sem__sem_d</title>
<path fill="none" stroke="#6b7c93" d="M220.79,-2212.08C220.79,-2299.03 220.79,-2670 220.79,-2670 220.79,-2670 331.52,-2670 331.52,-2670"/>
<polygon fill="#6b7c93" stroke="#6b7c93" points="331.52,-2672.45 338.52,-2670 331.52,-2667.55 331.52,-2672.45"/>
</g>
<!-- sem__sem_e -->
<g id="node10" class="node">
<title>sem__sem_e</title>
<path fill="#f8fbff" stroke="#b794f4" d="M380.79,-2620C380.79,-2620 350.79,-2620 350.79,-2620 344.79,-2620 338.79,-2614 338.79,-2608 338.79,-2608 338.79,-2596 338.79,-2596 338.79,-2590 344.79,-2584 350.79,-2584 350.79,-2584 380.79,-2584 380.79,-2584 386.79,-2584 392.79,-2590 392.79,-2596 392.79,-2596 392.79,-2608 392.79,-2608 392.79,-2614 386.79,-2620 380.79,-2620"/>
<text text-anchor="middle" x="365.79" y="-2604.8" font-family="Arial" font-size="9.00">/Sem_e</text>
<text text-anchor="middle" x="365.79" y="-2594.8" font-family="Arial" font-size="9.00">Sem_e</text>
</g>
<!-- sem&#45;&gt;sem__sem_e -->
<g id="edge9" class="edge">
<title>sem&#45;&gt;sem__sem_e</title>
<path fill="none" stroke="#6b7c93" d="M226.79,-2212.06C226.79,-2291.02 226.79,-2602 226.79,-2602 226.79,-2602 331.66,-2602 331.66,-2602"/>
<polygon fill="#6b7c93" stroke="#6b7c93" points="331.66,-2604.45 338.66,-2602 331.66,-2599.55 331.66,-2604.45"/>
</g>
<!-- sem__sem_f -->
<g id="node11" class="node">
<title>sem__sem_f</title>
<path fill="#f8fbff" stroke="#b794f4" d="M380.79,-2552C380.79,-2552 350.79,-2552 350.79,-2552 344.79,-2552 338.79,-2546 338.79,-2540 338.79,-2540 338.79,-2528 338.79,-2528 338.79,-2522 344.79,-2516 350.79,-2516 350.79,-2516 380.79,-2516 380.79,-2516 386.79,-2516 392.79,-2522 392.79,-2528 392.79,-2528 392.79,-2540 392.79,-2540 392.79,-2546 386.79,-2552 380.79,-2552"/>
<text text-anchor="middle" x="365.79" y="-2536.8" font-family="Arial" font-size="9.00">/Sem_f</text>
<text text-anchor="middle" x="365.79" y="-2526.8" font-family="Arial" font-size="9.00">Sem_f</text>
</g>
<!-- sem&#45;&gt;sem__sem_f -->
<g id="edge10" class="edge">
<title>sem&#45;&gt;sem__sem_f</title>
<path fill="none" stroke="#6b7c93" d="M231.79,-2212.28C231.79,-2282.9 231.79,-2534 231.79,-2534 231.79,-2534 331.68,-2534 331.68,-2534"/>
<polygon fill="#6b7c93" stroke="#6b7c93" points="331.68,-2536.45 338.68,-2534 331.68,-2531.55 331.68,-2536.45"/>
</g>
<!-- sem__sem_g -->
<g id="node12" class="node">
<title>sem__sem_g</title>
<path fill="#f8fbff" stroke="#b794f4" d="M380.79,-2484C380.79,-2484 350.79,-2484 350.79,-2484 344.79,-2484 338.79,-2478 338.79,-2472 338.79,-2472 338.79,-2460 338.79,-2460 338.79,-2454 344.79,-2448 350.79,-2448 350.79,-2448 380.79,-2448 380.79,-2448 386.79,-2448 392.79,-2454 392.79,-2460 392.79,-2460 392.79,-2472 392.79,-2472 392.79,-2478 386.79,-2484 380.79,-2484"/>
<text text-anchor="middle" x="365.79" y="-2468.8" font-family="Arial" font-size="9.00">/Sem_g</text>
<text text-anchor="middle" x="365.79" y="-2458.8" font-family="Arial" font-size="9.00">Sem_g</text>
</g>
<!-- sem&#45;&gt;sem__sem_g -->
<g id="edge11" class="edge">
<title>sem&#45;&gt;sem__sem_g</title>
<path fill="none" stroke="#6b7c93" d="M237.79,-2212.27C237.79,-2273.25 237.79,-2466 237.79,-2466 237.79,-2466 331.65,-2466 331.65,-2466"/>
<polygon fill="#6b7c93" stroke="#6b7c93" points="331.65,-2468.45 338.65,-2466 331.65,-2463.55 331.65,-2468.45"/>
</g>
<!-- sem__sem_h -->
<g id="node13" class="node">
<title>sem__sem_h</title>
<path fill="#f8fbff" stroke="#b794f4" d="M380.79,-2416C380.79,-2416 350.79,-2416 350.79,-2416 344.79,-2416 338.79,-2410 338.79,-2404 338.79,-2404 338.79,-2392 338.79,-2392 338.79,-2386 344.79,-2380 350.79,-2380 350.79,-2380 380.79,-2380 380.79,-2380 386.79,-2380 392.79,-2386 392.79,-2392 392.79,-2392 392.79,-2404 392.79,-2404 392.79,-2410 386.79,-2416 380.79,-2416"/>
<text text-anchor="middle" x="365.79" y="-2400.8" font-family="Arial" font-size="9.00">/Sem_h</text>
<text text-anchor="middle" x="365.79" y="-2390.8" font-family="Arial" font-size="9.00">Sem_h</text>
</g>
<!-- sem&#45;&gt;sem__sem_h -->
<g id="edge12" class="edge">
<title>sem&#45;&gt;sem__sem_h</title>
<path fill="none" stroke="#6b7c93" d="M242.79,-2212.1C242.79,-2262.03 242.79,-2398 242.79,-2398 242.79,-2398 331.5,-2398 331.5,-2398"/>
<polygon fill="#6b7c93" stroke="#6b7c93" points="331.5,-2400.45 338.5,-2398 331.5,-2395.55 331.5,-2400.45"/>
</g>
<!-- sem__sem_i -->
<g id="node14" class="node">
<title>sem__sem_i</title>
<path fill="#f8fbff" stroke="#b794f4" d="M380.79,-2348C380.79,-2348 350.79,-2348 350.79,-2348 344.79,-2348 338.79,-2342 338.79,-2336 338.79,-2336 338.79,-2324 338.79,-2324 338.79,-2318 344.79,-2312 350.79,-2312 350.79,-2312 380.79,-2312 380.79,-2312 386.79,-2312 392.79,-2318 392.79,-2324 392.79,-2324 392.79,-2336 392.79,-2336 392.79,-2342 386.79,-2348 380.79,-2348"/>
<text text-anchor="middle" x="365.79" y="-2332.8" font-family="Arial" font-size="9.00">/Sem_i</text>
<text text-anchor="middle" x="365.79" y="-2322.8" font-family="Arial" font-size="9.00">Sem_i</text>
</g>
<!-- sem&#45;&gt;sem__sem_i -->
<g id="edge13" class="edge">
<title>sem&#45;&gt;sem__sem_i</title>
<path fill="none" stroke="#6b7c93" d="M248.79,-2212.06C248.79,-2249.05 248.79,-2330 248.79,-2330 248.79,-2330 331.66,-2330 331.66,-2330"/>
<polygon fill="#6b7c93" stroke="#6b7c93" points="331.66,-2332.45 338.66,-2330 331.66,-2327.55 331.66,-2332.45"/>
</g>
<!-- sem__sem_j -->
<g id="node15" class="node">
<title>sem__sem_j</title>
<path fill="#f8fbff" stroke="#b794f4" d="M380.79,-2280C380.79,-2280 350.79,-2280 350.79,-2280 344.79,-2280 338.79,-2274 338.79,-2268 338.79,-2268 338.79,-2256 338.79,-2256 338.79,-2250 344.79,-2244 350.79,-2244 350.79,-2244 380.79,-2244 380.79,-2244 386.79,-2244 392.79,-2250 392.79,-2256 392.79,-2256 392.79,-2268 392.79,-2268 392.79,-2274 386.79,-2280 380.79,-2280"/>
<text text-anchor="middle" x="365.79" y="-2264.8" font-family="Arial" font-size="9.00">/Sem_j</text>
<text text-anchor="middle" x="365.79" y="-2254.8" font-family="Arial" font-size="9.00">Sem_j</text>
</g>
<!-- sem&#45;&gt;sem__sem_j -->
<g id="edge14" class="edge">
<title>sem&#45;&gt;sem__sem_j</title>
<path fill="none" stroke="#6b7c93" d="M253.79,-2212.22C253.79,-2232.37 253.79,-2262 253.79,-2262 253.79,-2262 331.68,-2262 331.68,-2262"/>
<polygon fill="#6b7c93" stroke="#6b7c93" points="331.68,-2264.45 338.68,-2262 331.68,-2259.55 331.68,-2264.45"/>
</g>
<!-- sem__sem_k -->
<g id="node16" class="node">
<title>sem__sem_k</title>
<path fill="#f8fbff" stroke="#b794f4" d="M380.79,-2212C380.79,-2212 350.79,-2212 350.79,-2212 344.79,-2212 338.79,-2206 338.79,-2200 338.79,-2200 338.79,-2188 338.79,-2188 338.79,-2182 344.79,-2176 350.79,-2176 350.79,-2176 380.79,-2176 380.79,-2176 386.79,-2176 392.79,-2182 392.79,-2188 392.79,-2188 392.79,-2200 392.79,-2200 392.79,-2206 386.79,-2212 380.79,-2212"/>
<text text-anchor="middle" x="365.79" y="-2196.8" font-family="Arial" font-size="9.00">/Sem_k</text>
<text text-anchor="middle" x="365.79" y="-2186.8" font-family="Arial" font-size="9.00">Sem_k</text>
</g>
<!-- sem&#45;&gt;sem__sem_k -->
<g id="edge15" class="edge">
<title>sem&#45;&gt;sem__sem_k</title>
<path fill="none" stroke="#6b7c93" d="M258.86,-2194C258.86,-2194 331.59,-2194 331.59,-2194"/>
<polygon fill="#6b7c93" stroke="#6b7c93" points="331.59,-2196.45 338.59,-2194 331.59,-2191.55 331.59,-2196.45"/>
</g>
<!-- sem__sem_l -->
<g id="node17" class="node">
<title>sem__sem_l</title>
<path fill="#f8fbff" stroke="#b794f4" d="M380.79,-2144C380.79,-2144 350.79,-2144 350.79,-2144 344.79,-2144 338.79,-2138 338.79,-2132 338.79,-2132 338.79,-2120 338.79,-2120 338.79,-2114 344.79,-2108 350.79,-2108 350.79,-2108 380.79,-2108 380.79,-2108 386.79,-2108 392.79,-2114 392.79,-2120 392.79,-2120 392.79,-2132 392.79,-2132 392.79,-2138 386.79,-2144 380.79,-2144"/>
<text text-anchor="middle" x="365.79" y="-2128.8" font-family="Arial" font-size="9.00">/Sem_l</text>
<text text-anchor="middle" x="365.79" y="-2118.8" font-family="Arial" font-size="9.00">Sem_l</text>
</g>
<!-- sem&#45;&gt;sem__sem_l -->
<g id="edge16" class="edge">
<title>sem&#45;&gt;sem__sem_l</title>
<path fill="none" stroke="#6b7c93" d="M252.79,-2175.78C252.79,-2155.63 252.79,-2126 252.79,-2126 252.79,-2126 331.73,-2126 331.73,-2126"/>
<polygon fill="#6b7c93" stroke="#6b7c93" points="331.73,-2128.45 338.73,-2126 331.73,-2123.55 331.73,-2128.45"/>
</g>
<!-- sem__sem_m -->
<g id="node18" class="node">
<title>sem__sem_m</title>
<path fill="#f8fbff" stroke="#b794f4" d="M380.79,-2076C380.79,-2076 350.79,-2076 350.79,-2076 344.79,-2076 338.79,-2070 338.79,-2064 338.79,-2064 338.79,-2052 338.79,-2052 338.79,-2046 344.79,-2040 350.79,-2040 350.79,-2040 380.79,-2040 380.79,-2040 386.79,-2040 392.79,-2046 392.79,-2052 392.79,-2052 392.79,-2064 392.79,-2064 392.79,-2070 386.79,-2076 380.79,-2076"/>
<text text-anchor="middle" x="365.79" y="-2060.8" font-family="Arial" font-size="9.00">/Sem_m</text>
<text text-anchor="middle" x="365.79" y="-2050.8" font-family="Arial" font-size="9.00">Sem_m</text>
</g>
<!-- sem&#45;&gt;sem__sem_m -->
<g id="edge17" class="edge">
<title>sem&#45;&gt;sem__sem_m</title>
<path fill="none" stroke="#6b7c93" d="M246.79,-2175.94C246.79,-2138.95 246.79,-2058 246.79,-2058 246.79,-2058 331.79,-2058 331.79,-2058"/>
<polygon fill="#6b7c93" stroke="#6b7c93" points="331.79,-2060.45 338.79,-2058 331.79,-2055.55 331.79,-2060.45"/>
</g>
<!-- sem__sem_n -->
<g id="node19" class="node">
<title>sem__sem_n</title>
<path fill="#f8fbff" stroke="#b794f4" d="M380.79,-2008C380.79,-2008 350.79,-2008 350.79,-2008 344.79,-2008 338.79,-2002 338.79,-1996 338.79,-1996 338.79,-1984 338.79,-1984 338.79,-1978 344.79,-1972 350.79,-1972 350.79,-1972 380.79,-1972 380.79,-1972 386.79,-1972 392.79,-1978 392.79,-1984 392.79,-1984 392.79,-1996 392.79,-1996 392.79,-2002 386.79,-2008 380.79,-2008"/>
<text text-anchor="middle" x="365.79" y="-1992.8" font-family="Arial" font-size="9.00">/Sem_n</text>
<text text-anchor="middle" x="365.79" y="-1982.8" font-family="Arial" font-size="9.00">Sem_n</text>
</g>
<!-- sem&#45;&gt;sem__sem_n -->
<g id="edge18" class="edge">
<title>sem&#45;&gt;sem__sem_n</title>
<path fill="none" stroke="#6b7c93" d="M240.79,-2175.9C240.79,-2125.97 240.79,-1990 240.79,-1990 240.79,-1990 331.67,-1990 331.67,-1990"/>
<polygon fill="#6b7c93" stroke="#6b7c93" points="331.67,-1992.45 338.67,-1990 331.67,-1987.55 331.67,-1992.45"/>
</g>
<!-- sem__sem_o -->
<g id="node20" class="node">
<title>sem__sem_o</title>
<path fill="#f8fbff" stroke="#b794f4" d="M380.79,-1940C380.79,-1940 350.79,-1940 350.79,-1940 344.79,-1940 338.79,-1934 338.79,-1928 338.79,-1928 338.79,-1916 338.79,-1916 338.79,-1910 344.79,-1904 350.79,-1904 350.79,-1904 380.79,-1904 380.79,-1904 386.79,-1904 392.79,-1910 392.79,-1916 392.79,-1916 392.79,-1928 392.79,-1928 392.79,-1934 386.79,-1940 380.79,-1940"/>
<text text-anchor="middle" x="365.79" y="-1924.8" font-family="Arial" font-size="9.00">/Sem_o</text>
<text text-anchor="middle" x="365.79" y="-1914.8" font-family="Arial" font-size="9.00">Sem_o</text>
</g>
<!-- sem&#45;&gt;sem__sem_o -->
<g id="edge19" class="edge">
<title>sem&#45;&gt;sem__sem_o</title>
<path fill="none" stroke="#6b7c93" d="M234.79,-2175.73C234.79,-2114.75 234.79,-1922 234.79,-1922 234.79,-1922 331.65,-1922 331.65,-1922"/>
<polygon fill="#6b7c93" stroke="#6b7c93" points="331.65,-1924.45 338.65,-1922 331.65,-1919.55 331.65,-1924.45"/>
</g>
<!-- sem__sem_p -->
<g id="node21" class="node">
<title>sem__sem_p</title>
<path fill="#f8fbff" stroke="#b794f4" d="M380.79,-1872C380.79,-1872 350.79,-1872 350.79,-1872 344.79,-1872 338.79,-1866 338.79,-1860 338.79,-1860 338.79,-1848 338.79,-1848 338.79,-1842 344.79,-1836 350.79,-1836 350.79,-1836 380.79,-1836 380.79,-1836 386.79,-1836 392.79,-1842 392.79,-1848 392.79,-1848 392.79,-1860 392.79,-1860 392.79,-1866 386.79,-1872 380.79,-1872"/>
<text text-anchor="middle" x="365.79" y="-1856.8" font-family="Arial" font-size="9.00">/Sem_p</text>
<text text-anchor="middle" x="365.79" y="-1846.8" font-family="Arial" font-size="9.00">Sem_p</text>
</g>
<!-- sem&#45;&gt;sem__sem_p -->
<g id="edge20" class="edge">
<title>sem&#45;&gt;sem__sem_p</title>
<path fill="none" stroke="#6b7c93" d="M228.79,-2175.72C228.79,-2105.1 228.79,-1854 228.79,-1854 228.79,-1854 331.73,-1854 331.73,-1854"/>
<polygon fill="#6b7c93" stroke="#6b7c93" points="331.73,-1856.45 338.73,-1854 331.73,-1851.55 331.73,-1856.45"/>
</g>
<!-- sem__sem_q -->
<g id="node22" class="node">
<title>sem__sem_q</title>
<path fill="#f8fbff" stroke="#b794f4" d="M380.79,-1804C380.79,-1804 350.79,-1804 350.79,-1804 344.79,-1804 338.79,-1798 338.79,-1792 338.79,-1792 338.79,-1780 338.79,-1780 338.79,-1774 344.79,-1768 350.79,-1768 350.79,-1768 380.79,-1768 380.79,-1768 386.79,-1768 392.79,-1774 392.79,-1780 392.79,-1780 392.79,-1792 392.79,-1792 392.79,-1798 386.79,-1804 380.79,-1804"/>
<text text-anchor="middle" x="365.79" y="-1788.8" font-family="Arial" font-size="9.00">/Sem_q</text>
<text text-anchor="middle" x="365.79" y="-1778.8" font-family="Arial" font-size="9.00">Sem_q</text>
</g>
<!-- sem&#45;&gt;sem__sem_q -->
<g id="edge21" class="edge">
<title>sem&#45;&gt;sem__sem_q</title>
<path fill="none" stroke="#6b7c93" d="M222.79,-2175.94C222.79,-2096.98 222.79,-1786 222.79,-1786 222.79,-1786 331.56,-1786 331.56,-1786"/>
<polygon fill="#6b7c93" stroke="#6b7c93" points="331.56,-1788.45 338.56,-1786 331.56,-1783.55 331.56,-1788.45"/>
</g>
<!-- sem__sem_r -->
<g id="node23" class="node">
<title>sem__sem_r</title>
<path fill="#f8fbff" stroke="#b794f4" d="M380.79,-1736C380.79,-1736 350.79,-1736 350.79,-1736 344.79,-1736 338.79,-1730 338.79,-1724 338.79,-1724 338.79,-1712 338.79,-1712 338.79,-1706 344.79,-1700 350.79,-1700 350.79,-1700 380.79,-1700 380.79,-1700 386.79,-1700 392.79,-1706 392.79,-1712 392.79,-1712 392.79,-1724 392.79,-1724 392.79,-1730 386.79,-1736 380.79,-1736"/>
<text text-anchor="middle" x="365.79" y="-1720.8" font-family="Arial" font-size="9.00">/Sem_r</text>
<text text-anchor="middle" x="365.79" y="-1710.8" font-family="Arial" font-size="9.00">Sem_r</text>
</g>
<!-- sem&#45;&gt;sem__sem_r -->
<g id="edge22" class="edge">
<title>sem&#45;&gt;sem__sem_r</title>
<path fill="none" stroke="#6b7c93" d="M216.79,-2175.92C216.79,-2088.97 216.79,-1718 216.79,-1718 216.79,-1718 331.47,-1718 331.47,-1718"/>
<polygon fill="#6b7c93" stroke="#6b7c93" points="331.47,-1720.45 338.47,-1718 331.47,-1715.55 331.47,-1720.45"/>
</g>
<!-- sem__sem_s -->
<g id="node24" class="node">
<title>sem__sem_s</title>
<path fill="#f8fbff" stroke="#b794f4" d="M380.79,-1668C380.79,-1668 350.79,-1668 350.79,-1668 344.79,-1668 338.79,-1662 338.79,-1656 338.79,-1656 338.79,-1644 338.79,-1644 338.79,-1638 344.79,-1632 350.79,-1632 350.79,-1632 380.79,-1632 380.79,-1632 386.79,-1632 392.79,-1638 392.79,-1644 392.79,-1644 392.79,-1656 392.79,-1656 392.79,-1662 386.79,-1668 380.79,-1668"/>
<text text-anchor="middle" x="365.79" y="-1652.8" font-family="Arial" font-size="9.00">/Sem_s</text>
<text text-anchor="middle" x="365.79" y="-1642.8" font-family="Arial" font-size="9.00">Sem_s</text>
</g>
<!-- sem&#45;&gt;sem__sem_s -->
<g id="edge23" class="edge">
<title>sem&#45;&gt;sem__sem_s</title>
<path fill="none" stroke="#6b7c93" d="M210.79,-2175.9C210.79,-2081.51 210.79,-1650 210.79,-1650 210.79,-1650 331.44,-1650 331.44,-1650"/>
<polygon fill="#6b7c93" stroke="#6b7c93" points="331.44,-1652.45 338.44,-1650 331.44,-1647.55 331.44,-1652.45"/>
</g>
<!-- sem__sem_t -->
<g id="node25" class="node">
<title>sem__sem_t</title>
<path fill="#f8fbff" stroke="#b794f4" d="M380.79,-1600C380.79,-1600 350.79,-1600 350.79,-1600 344.79,-1600 338.79,-1594 338.79,-1588 338.79,-1588 338.79,-1576 338.79,-1576 338.79,-1570 344.79,-1564 350.79,-1564 350.79,-1564 380.79,-1564 380.79,-1564 386.79,-1564 392.79,-1570 392.79,-1576 392.79,-1576 392.79,-1588 392.79,-1588 392.79,-1594 386.79,-1600 380.79,-1600"/>
<text text-anchor="middle" x="365.79" y="-1584.8" font-family="Arial" font-size="9.00">/Sem_t</text>
<text text-anchor="middle" x="365.79" y="-1574.8" font-family="Arial" font-size="9.00">Sem_t</text>
</g>
<!-- sem&#45;&gt;sem__sem_t -->
<g id="edge24" class="edge">
<title>sem&#45;&gt;sem__sem_t</title>
<path fill="none" stroke="#6b7c93" d="M204.79,-2175.68C204.79,-2073.85 204.79,-1582 204.79,-1582 204.79,-1582 331.48,-1582 331.48,-1582"/>
<polygon fill="#6b7c93" stroke="#6b7c93" points="331.48,-1584.45 338.48,-1582 331.48,-1579.55 331.48,-1584.45"/>
</g>
<!-- confnews__conf_a -->
<g id="node26" class="node">
<title>confnews__conf_a</title>
<path fill="#ebf8ff" stroke="#63b3ed" d="M380.79,-1532C380.79,-1532 350.79,-1532 350.79,-1532 344.79,-1532 338.79,-1526 338.79,-1520 338.79,-1520 338.79,-1508 338.79,-1508 338.79,-1502 344.79,-1496 350.79,-1496 350.79,-1496 380.79,-1496 380.79,-1496 386.79,-1496 392.79,-1502 392.79,-1508 392.79,-1508 392.79,-1520 392.79,-1520 392.79,-1526 386.79,-1532 380.79,-1532"/>
<text text-anchor="middle" x="365.79" y="-1516.8" font-family="Arial" font-size="9.00">/Conf_a</text>
<text text-anchor="middle" x="365.79" y="-1506.8" font-family="Arial" font-size="9.00">Conf_a</text>
</g>
<!-- confnews&#45;&gt;confnews__conf_a -->
<g id="edge25" class="edge">
<title>confnews&#45;&gt;confnews__conf_a</title>
<path fill="none" stroke="#6b7c93" d="M264.79,-1260.27C264.79,-1321.25 264.79,-1514 264.79,-1514 264.79,-1514 331.73,-1514 331.73,-1514"/>
<polygon fill="#6b7c93" stroke="#6b7c93" points="331.73,-1516.45 338.73,-1514 331.73,-1511.55 331.73,-1516.45"/>
</g>
<!-- confnews__conf_b -->
<g id="node27" class="node">
<title>confnews__conf_b</title>
<path fill="#ebf8ff" stroke="#63b3ed" d="M380.79,-1464C380.79,-1464 350.79,-1464 350.79,-1464 344.79,-1464 338.79,-1458 338.79,-1452 338.79,-1452 338.79,-1440 338.79,-1440 338.79,-1434 344.79,-1428 350.79,-1428 350.79,-1428 380.79,-1428 380.79,-1428 386.79,-1428 392.79,-1434 392.79,-1440 392.79,-1440 392.79,-1452 392.79,-1452 392.79,-1458 386.79,-1464 380.79,-1464"/>
<text text-anchor="middle" x="365.79" y="-1448.8" font-family="Arial" font-size="9.00">/Conf_b</text>
<text text-anchor="middle" x="365.79" y="-1438.8" font-family="Arial" font-size="9.00">Conf_b</text>
</g>
<!-- confnews&#45;&gt;confnews__conf_b -->
<g id="edge26" class="edge">
<title>confnews&#45;&gt;confnews__conf_b</title>
<path fill="none" stroke="#6b7c93" d="M269.79,-1260.1C269.79,-1310.03 269.79,-1446 269.79,-1446 269.79,-1446 331.54,-1446 331.54,-1446"/>
<polygon fill="#6b7c93" stroke="#6b7c93" points="331.54,-1448.45 338.54,-1446 331.54,-1443.55 331.54,-1448.45"/>
</g>
<!-- confnews__conf_c -->
<g id="node28" class="node">
<title>confnews__conf_c</title>
<path fill="#ebf8ff" stroke="#63b3ed" d="M380.79,-1396C380.79,-1396 350.79,-1396 350.79,-1396 344.79,-1396 338.79,-1390 338.79,-1384 338.79,-1384 338.79,-1372 338.79,-1372 338.79,-1366 344.79,-1360 350.79,-1360 350.79,-1360 380.79,-1360 380.79,-1360 386.79,-1360 392.79,-1366 392.79,-1372 392.79,-1372 392.79,-1384 392.79,-1384 392.79,-1390 386.79,-1396 380.79,-1396"/>
<text text-anchor="middle" x="365.79" y="-1380.8" font-family="Arial" font-size="9.00">/Conf_c</text>
<text text-anchor="middle" x="365.79" y="-1370.8" font-family="Arial" font-size="9.00">Conf_c</text>
</g>
<!-- confnews&#45;&gt;confnews__conf_c -->
<g id="edge27" class="edge">
<title>confnews&#45;&gt;confnews__conf_c</title>
<path fill="none" stroke="#6b7c93" d="M274.79,-1260.06C274.79,-1297.05 274.79,-1378 274.79,-1378 274.79,-1378 331.49,-1378 331.49,-1378"/>
<polygon fill="#6b7c93" stroke="#6b7c93" points="331.49,-1380.45 338.49,-1378 331.49,-1375.55 331.49,-1380.45"/>
</g>
<!-- confnews__conf_d -->
<g id="node29" class="node">
<title>confnews__conf_d</title>
<path fill="#ebf8ff" stroke="#63b3ed" d="M380.79,-1328C380.79,-1328 350.79,-1328 350.79,-1328 344.79,-1328 338.79,-1322 338.79,-1316 338.79,-1316 338.79,-1304 338.79,-1304 338.79,-1298 344.79,-1292 350.79,-1292 350.79,-1292 380.79,-1292 380.79,-1292 386.79,-1292 392.79,-1298 392.79,-1304 392.79,-1304 392.79,-1316 392.79,-1316 392.79,-1322 386.79,-1328 380.79,-1328"/>
<text text-anchor="middle" x="365.79" y="-1312.8" font-family="Arial" font-size="9.00">/Conf_d</text>
<text text-anchor="middle" x="365.79" y="-1302.8" font-family="Arial" font-size="9.00">Conf_d</text>
</g>
<!-- confnews&#45;&gt;confnews__conf_d -->
<g id="edge28" class="edge">
<title>confnews&#45;&gt;confnews__conf_d</title>
<path fill="none" stroke="#6b7c93" d="M279.79,-1260.22C279.79,-1280.37 279.79,-1310 279.79,-1310 279.79,-1310 331.58,-1310 331.58,-1310"/>
<polygon fill="#6b7c93" stroke="#6b7c93" points="331.58,-1312.45 338.58,-1310 331.58,-1307.55 331.58,-1312.45"/>
</g>
<!-- confnews__conf_e -->
<g id="node30" class="node">
<title>confnews__conf_e</title>
<path fill="#ebf8ff" stroke="#63b3ed" d="M380.79,-1260C380.79,-1260 350.79,-1260 350.79,-1260 344.79,-1260 338.79,-1254 338.79,-1248 338.79,-1248 338.79,-1236 338.79,-1236 338.79,-1230 344.79,-1224 350.79,-1224 350.79,-1224 380.79,-1224 380.79,-1224 386.79,-1224 392.79,-1230 392.79,-1236 392.79,-1236 392.79,-1248 392.79,-1248 392.79,-1254 386.79,-1260 380.79,-1260"/>
<text text-anchor="middle" x="365.79" y="-1244.8" font-family="Arial" font-size="9.00">/Conf_e</text>
<text text-anchor="middle" x="365.79" y="-1234.8" font-family="Arial" font-size="9.00">Conf_e</text>
</g>
<!-- confnews&#45;&gt;confnews__conf_e -->
<g id="edge29" class="edge">
<title>confnews&#45;&gt;confnews__conf_e</title>
<path fill="none" stroke="#6b7c93" d="M284.52,-1242C284.52,-1242 331.65,-1242 331.65,-1242"/>
<polygon fill="#6b7c93" stroke="#6b7c93" points="331.65,-1244.45 338.65,-1242 331.65,-1239.55 331.65,-1244.45"/>
</g>
<!-- confnews__conf_f -->
<g id="node31" class="node">
<title>confnews__conf_f</title>
<path fill="#ebf8ff" stroke="#63b3ed" d="M380.79,-1192C380.79,-1192 350.79,-1192 350.79,-1192 344.79,-1192 338.79,-1186 338.79,-1180 338.79,-1180 338.79,-1168 338.79,-1168 338.79,-1162 344.79,-1156 350.79,-1156 350.79,-1156 380.79,-1156 380.79,-1156 386.79,-1156 392.79,-1162 392.79,-1168 392.79,-1168 392.79,-1180 392.79,-1180 392.79,-1186 386.79,-1192 380.79,-1192"/>
<text text-anchor="middle" x="365.79" y="-1176.8" font-family="Arial" font-size="9.00">/Conf_f</text>
<text text-anchor="middle" x="365.79" y="-1166.8" font-family="Arial" font-size="9.00">Conf_f</text>
</g>
<!-- confnews&#45;&gt;confnews__conf_f -->
<g id="edge30" class="edge">
<title>confnews&#45;&gt;confnews__conf_f</title>
<path fill="none" stroke="#6b7c93" d="M264.79,-1223.78C264.79,-1203.63 264.79,-1174 264.79,-1174 264.79,-1174 331.73,-1174 331.73,-1174"/>
<polygon fill="#6b7c93" stroke="#6b7c93" points="331.73,-1176.45 338.73,-1174 331.73,-1171.55 331.73,-1176.45"/>
</g>
<!-- confnews__conf_g -->
<g id="node32" class="node">
<title>confnews__conf_g</title>
<path fill="#ebf8ff" stroke="#63b3ed" d="M380.79,-1124C380.79,-1124 350.79,-1124 350.79,-1124 344.79,-1124 338.79,-1118 338.79,-1112 338.79,-1112 338.79,-1100 338.79,-1100 338.79,-1094 344.79,-1088 350.79,-1088 350.79,-1088 380.79,-1088 380.79,-1088 386.79,-1088 392.79,-1094 392.79,-1100 392.79,-1100 392.79,-1112 392.79,-1112 392.79,-1118 386.79,-1124 380.79,-1124"/>
<text text-anchor="middle" x="365.79" y="-1108.8" font-family="Arial" font-size="9.00">/Conf_g</text>
<text text-anchor="middle" x="365.79" y="-1098.8" font-family="Arial" font-size="9.00">Conf_g</text>
</g>
<!-- confnews&#45;&gt;confnews__conf_g -->
<g id="edge31" class="edge">
<title>confnews&#45;&gt;confnews__conf_g</title>
<path fill="none" stroke="#6b7c93" d="M236.79,-1223.94C236.79,-1188.26 236.79,-1112.14 236.79,-1112.14 236.79,-1112.14 331.75,-1112.14 331.75,-1112.14"/>
<polygon fill="#6b7c93" stroke="#6b7c93" points="331.75,-1114.59 338.75,-1112.14 331.75,-1109.69 331.75,-1114.59"/>
</g>
<!-- confnews__conf_h -->
<g id="node33" class="node">
<title>confnews__conf_h</title>
<path fill="#ebf8ff" stroke="#63b3ed" d="M380.79,-1056C380.79,-1056 350.79,-1056 350.79,-1056 344.79,-1056 338.79,-1050 338.79,-1044 338.79,-1044 338.79,-1032 338.79,-1032 338.79,-1026 344.79,-1020 350.79,-1020 350.79,-1020 380.79,-1020 380.79,-1020 386.79,-1020 392.79,-1026 392.79,-1032 392.79,-1032 392.79,-1044 392.79,-1044 392.79,-1050 386.79,-1056 380.79,-1056"/>
<text text-anchor="middle" x="365.79" y="-1040.8" font-family="Arial" font-size="9.00">/Conf_h</text>
<text text-anchor="middle" x="365.79" y="-1030.8" font-family="Arial" font-size="9.00">Conf_h</text>
</g>
<!-- confnews&#45;&gt;confnews__conf_h -->
<g id="edge32" class="edge">
<title>confnews&#45;&gt;confnews__conf_h</title>
<path fill="none" stroke="#6b7c93" d="M221.79,-1223.87C221.79,-1176.55 221.79,-1052.93 221.79,-1052.93 221.79,-1052.93 331.71,-1052.93 331.71,-1052.93"/>
<polygon fill="#6b7c93" stroke="#6b7c93" points="331.71,-1055.38 338.71,-1052.93 331.71,-1050.48 331.71,-1055.38"/>
</g>
<!-- life__life_a -->
<g id="node34" class="node">
<title>life__life_a</title>
<path fill="#f0fff4" stroke="#68d391" d="M380.79,-988C380.79,-988 350.79,-988 350.79,-988 344.79,-988 338.79,-982 338.79,-976 338.79,-976 338.79,-964 338.79,-964 338.79,-958 344.79,-952 350.79,-952 350.79,-952 380.79,-952 380.79,-952 386.79,-952 392.79,-958 392.79,-964 392.79,-964 392.79,-976 392.79,-976 392.79,-982 386.79,-988 380.79,-988"/>
<text text-anchor="middle" x="365.79" y="-972.8" font-family="Arial" font-size="9.00">/Life_a</text>
<text text-anchor="middle" x="365.79" y="-962.8" font-family="Arial" font-size="9.00">Life_a</text>
</g>
<!-- life&#45;&gt;life__life_a -->
<g id="edge33" class="edge">
<title>life&#45;&gt;life__life_a</title>
<path fill="none" stroke="#6b7c93" d="M250.79,-886.24C250.79,-915.57 250.79,-970 250.79,-970 250.79,-970 331.54,-970 331.54,-970"/>
<polygon fill="#6b7c93" stroke="#6b7c93" points="331.54,-972.45 338.54,-970 331.54,-967.55 331.54,-972.45"/>
</g>
<!-- life__life_b -->
<g id="node35" class="node">
<title>life__life_b</title>
<path fill="#f0fff4" stroke="#68d391" d="M380.79,-920C380.79,-920 350.79,-920 350.79,-920 344.79,-920 338.79,-914 338.79,-908 338.79,-908 338.79,-896 338.79,-896 338.79,-890 344.79,-884 350.79,-884 350.79,-884 380.79,-884 380.79,-884 386.79,-884 392.79,-890 392.79,-896 392.79,-896 392.79,-908 392.79,-908 392.79,-914 386.79,-920 380.79,-920"/>
<text text-anchor="middle" x="365.79" y="-904.8" font-family="Arial" font-size="9.00">/Life_b</text>
<text text-anchor="middle" x="365.79" y="-894.8" font-family="Arial" font-size="9.00">Life_b</text>
</g>
<!-- life&#45;&gt;life__life_b -->
<g id="edge34" class="edge">
<title>life&#45;&gt;life__life_b</title>
<path fill="none" stroke="#6b7c93" d="M279.02,-873.33C314.88,-873.33 356.79,-873.33 356.79,-873.33 356.79,-873.33 356.79,-876.68 356.79,-876.68"/>
<polygon fill="#6b7c93" stroke="#6b7c93" points="354.34,-876.68 356.79,-883.68 359.24,-876.68 354.34,-876.68"/>
</g>
<!-- life__life_c -->
<g id="node36" class="node">
<title>life__life_c</title>
<path fill="#f0fff4" stroke="#68d391" d="M380.79,-852C380.79,-852 350.79,-852 350.79,-852 344.79,-852 338.79,-846 338.79,-840 338.79,-840 338.79,-828 338.79,-828 338.79,-822 344.79,-816 350.79,-816 350.79,-816 380.79,-816 380.79,-816 386.79,-816 392.79,-822 392.79,-828 392.79,-828 392.79,-840 392.79,-840 392.79,-846 386.79,-852 380.79,-852"/>
<text text-anchor="middle" x="365.79" y="-836.8" font-family="Arial" font-size="9.00">/Life_c</text>
<text text-anchor="middle" x="365.79" y="-826.8" font-family="Arial" font-size="9.00">Life_c</text>
</g>
<!-- life&#45;&gt;life__life_c -->
<g id="edge35" class="edge">
<title>life&#45;&gt;life__life_c</title>
<path fill="none" stroke="#6b7c93" d="M279.04,-862.67C321.27,-862.67 374.79,-862.67 374.79,-862.67 374.79,-862.67 374.79,-859.32 374.79,-859.32"/>
<polygon fill="#6b7c93" stroke="#6b7c93" points="377.24,-859.32 374.79,-852.32 372.34,-859.32 377.24,-859.32"/>
</g>
<!-- life__life_d -->
<g id="node37" class="node">
<title>life__life_d</title>
<path fill="#f0fff4" stroke="#68d391" d="M380.79,-784C380.79,-784 350.79,-784 350.79,-784 344.79,-784 338.79,-778 338.79,-772 338.79,-772 338.79,-760 338.79,-760 338.79,-754 344.79,-748 350.79,-748 350.79,-748 380.79,-748 380.79,-748 386.79,-748 392.79,-754 392.79,-760 392.79,-760 392.79,-772 392.79,-772 392.79,-778 386.79,-784 380.79,-784"/>
<text text-anchor="middle" x="365.79" y="-768.8" font-family="Arial" font-size="9.00">/Life_d</text>
<text text-anchor="middle" x="365.79" y="-758.8" font-family="Arial" font-size="9.00">Life_d</text>
</g>
<!-- life&#45;&gt;life__life_d -->
<g id="edge36" class="edge">
<title>life&#45;&gt;life__life_d</title>
<path fill="none" stroke="#6b7c93" d="M253.79,-849.76C253.79,-820.43 253.79,-766 253.79,-766 253.79,-766 331.68,-766 331.68,-766"/>
<polygon fill="#6b7c93" stroke="#6b7c93" points="331.68,-768.45 338.68,-766 331.68,-763.55 331.68,-768.45"/>
</g>
<!-- life__life_e -->
<g id="node38" class="node">
<title>life__life_e</title>
<path fill="#f0fff4" stroke="#68d391" d="M380.79,-716C380.79,-716 350.79,-716 350.79,-716 344.79,-716 338.79,-710 338.79,-704 338.79,-704 338.79,-692 338.79,-692 338.79,-686 344.79,-680 350.79,-680 350.79,-680 380.79,-680 380.79,-680 386.79,-680 392.79,-686 392.79,-692 392.79,-692 392.79,-704 392.79,-704 392.79,-710 386.79,-716 380.79,-716"/>
<text text-anchor="middle" x="365.79" y="-700.8" font-family="Arial" font-size="9.00">/Life_e</text>
<text text-anchor="middle" x="365.79" y="-690.8" font-family="Arial" font-size="9.00">Life_e</text>
</g>
<!-- life&#45;&gt;life__life_e -->
<g id="edge37" class="edge">
<title>life&#45;&gt;life__life_e</title>
<path fill="none" stroke="#6b7c93" d="M228.79,-849.81C228.79,-805.95 228.79,-698 228.79,-698 228.79,-698 331.73,-698 331.73,-698"/>
<polygon fill="#6b7c93" stroke="#6b7c93" points="331.73,-700.45 338.73,-698 331.73,-695.55 331.73,-700.45"/>
</g>
<!-- semcompl__sem_a -->
<g id="node39" class="node">
<title>semcompl__sem_a</title>
<path fill="#faf5ff" stroke="#b794f4" d="M380.79,-648C380.79,-648 350.79,-648 350.79,-648 344.79,-648 338.79,-642 338.79,-636 338.79,-636 338.79,-624 338.79,-624 338.79,-618 344.79,-612 350.79,-612 350.79,-612 380.79,-612 380.79,-612 386.79,-612 392.79,-618 392.79,-624 392.79,-624 392.79,-636 392.79,-636 392.79,-642 386.79,-648 380.79,-648"/>
<text text-anchor="middle" x="365.79" y="-632.8" font-family="Arial" font-size="9.00">/Sem_a</text>
<text text-anchor="middle" x="365.79" y="-622.8" font-family="Arial" font-size="9.00">Sem_a</text>
</g>
<!-- semcompl&#45;&gt;semcompl__sem_a -->
<g id="edge38" class="edge">
<title>semcompl&#45;&gt;semcompl__sem_a</title>
<path fill="none" stroke="#6b7c93" d="M203.79,-376.27C203.79,-437.25 203.79,-630 203.79,-630 203.79,-630 331.68,-630 331.68,-630"/>
<polygon fill="#6b7c93" stroke="#6b7c93" points="331.68,-632.45 338.68,-630 331.68,-627.55 331.68,-632.45"/>
</g>
<!-- semcompl__sem_b -->
<g id="node40" class="node">
<title>semcompl__sem_b</title>
<path fill="#faf5ff" stroke="#b794f4" d="M380.79,-580C380.79,-580 350.79,-580 350.79,-580 344.79,-580 338.79,-574 338.79,-568 338.79,-568 338.79,-556 338.79,-556 338.79,-550 344.79,-544 350.79,-544 350.79,-544 380.79,-544 380.79,-544 386.79,-544 392.79,-550 392.79,-556 392.79,-556 392.79,-568 392.79,-568 392.79,-574 386.79,-580 380.79,-580"/>
<text text-anchor="middle" x="365.79" y="-564.8" font-family="Arial" font-size="9.00">/Sem_b</text>
<text text-anchor="middle" x="365.79" y="-554.8" font-family="Arial" font-size="9.00">Sem_b</text>
</g>
<!-- semcompl&#45;&gt;semcompl__sem_b -->
<g id="edge39" class="edge">
<title>semcompl&#45;&gt;semcompl__sem_b</title>
<path fill="none" stroke="#6b7c93" d="M286.79,-376.1C286.79,-426.03 286.79,-562 286.79,-562 286.79,-562 331.61,-562 331.61,-562"/>
<polygon fill="#6b7c93" stroke="#6b7c93" points="331.61,-564.45 338.61,-562 331.61,-559.55 331.61,-564.45"/>
</g>
<!-- semcompl__sem_c -->
<g id="node41" class="node">
<title>semcompl__sem_c</title>
<path fill="#faf5ff" stroke="#b794f4" d="M380.79,-512C380.79,-512 350.79,-512 350.79,-512 344.79,-512 338.79,-506 338.79,-500 338.79,-500 338.79,-488 338.79,-488 338.79,-482 344.79,-476 350.79,-476 350.79,-476 380.79,-476 380.79,-476 386.79,-476 392.79,-482 392.79,-488 392.79,-488 392.79,-500 392.79,-500 392.79,-506 386.79,-512 380.79,-512"/>
<text text-anchor="middle" x="365.79" y="-496.8" font-family="Arial" font-size="9.00">/Sem_c</text>
<text text-anchor="middle" x="365.79" y="-486.8" font-family="Arial" font-size="9.00">Sem_c</text>
</g>
<!-- semcompl&#45;&gt;semcompl__sem_c -->
<g id="edge40" class="edge">
<title>semcompl&#45;&gt;semcompl__sem_c</title>
<path fill="none" stroke="#6b7c93" d="M288.79,-376.06C288.79,-413.05 288.79,-494 288.79,-494 288.79,-494 331.43,-494 331.43,-494"/>
<polygon fill="#6b7c93" stroke="#6b7c93" points="331.43,-496.45 338.43,-494 331.43,-491.55 331.43,-496.45"/>
</g>
<!-- semcompl__sem_d -->
<g id="node42" class="node">
<title>semcompl__sem_d</title>
<path fill="#faf5ff" stroke="#b794f4" d="M380.79,-444C380.79,-444 350.79,-444 350.79,-444 344.79,-444 338.79,-438 338.79,-432 338.79,-432 338.79,-420 338.79,-420 338.79,-414 344.79,-408 350.79,-408 350.79,-408 380.79,-408 380.79,-408 386.79,-408 392.79,-414 392.79,-420 392.79,-420 392.79,-432 392.79,-432 392.79,-438 386.79,-444 380.79,-444"/>
<text text-anchor="middle" x="365.79" y="-428.8" font-family="Arial" font-size="9.00">/Sem_d</text>
<text text-anchor="middle" x="365.79" y="-418.8" font-family="Arial" font-size="9.00">Sem_d</text>
</g>
<!-- semcompl&#45;&gt;semcompl__sem_d -->
<g id="edge41" class="edge">
<title>semcompl&#45;&gt;semcompl__sem_d</title>
<path fill="none" stroke="#6b7c93" d="M290.79,-376.22C290.79,-396.37 290.79,-426 290.79,-426 290.79,-426 331.72,-426 331.72,-426"/>
<polygon fill="#6b7c93" stroke="#6b7c93" points="331.72,-428.45 338.72,-426 331.72,-423.55 331.72,-428.45"/>
</g>
<!-- semcompl__sem_e -->
<g id="node43" class="node">
<title>semcompl__sem_e</title>
<path fill="#faf5ff" stroke="#b794f4" d="M380.79,-376C380.79,-376 350.79,-376 350.79,-376 344.79,-376 338.79,-370 338.79,-364 338.79,-364 338.79,-352 338.79,-352 338.79,-346 344.79,-340 350.79,-340 350.79,-340 380.79,-340 380.79,-340 386.79,-340 392.79,-346 392.79,-352 392.79,-352 392.79,-364 392.79,-364 392.79,-370 386.79,-376 380.79,-376"/>
<text text-anchor="middle" x="365.79" y="-360.8" font-family="Arial" font-size="9.00">/Sem_e</text>
<text text-anchor="middle" x="365.79" y="-350.8" font-family="Arial" font-size="9.00">Sem_e</text>
</g>
<!-- semcompl&#45;&gt;semcompl__sem_e -->
<g id="edge42" class="edge">
<title>semcompl&#45;&gt;semcompl__sem_e</title>
<path fill="none" stroke="#6b7c93" d="M292.08,-358C292.08,-358 331.71,-358 331.71,-358"/>
<polygon fill="#6b7c93" stroke="#6b7c93" points="331.71,-360.45 338.71,-358 331.71,-355.55 331.71,-360.45"/>
</g>
<!-- semcompl__sem_f -->
<g id="node44" class="node">
<title>semcompl__sem_f</title>
<path fill="#faf5ff" stroke="#b794f4" d="M380.79,-308C380.79,-308 350.79,-308 350.79,-308 344.79,-308 338.79,-302 338.79,-296 338.79,-296 338.79,-284 338.79,-284 338.79,-278 344.79,-272 350.79,-272 350.79,-272 380.79,-272 380.79,-272 386.79,-272 392.79,-278 392.79,-284 392.79,-284 392.79,-296 392.79,-296 392.79,-302 386.79,-308 380.79,-308"/>
<text text-anchor="middle" x="365.79" y="-292.8" font-family="Arial" font-size="9.00">/Sem_f</text>
<text text-anchor="middle" x="365.79" y="-282.8" font-family="Arial" font-size="9.00">Sem_f</text>
</g>
<!-- semcompl&#45;&gt;semcompl__sem_f -->
<g id="edge43" class="edge">
<title>semcompl&#45;&gt;semcompl__sem_f</title>
<path fill="none" stroke="#6b7c93" d="M270.79,-339.78C270.79,-319.63 270.79,-290 270.79,-290 270.79,-290 331.57,-290 331.57,-290"/>
<polygon fill="#6b7c93" stroke="#6b7c93" points="331.57,-292.45 338.57,-290 331.57,-287.55 331.57,-292.45"/>
</g>
<!-- semcompl__sem_g -->
<g id="node45" class="node">
<title>semcompl__sem_g</title>
<path fill="#faf5ff" stroke="#b794f4" d="M380.79,-240C380.79,-240 350.79,-240 350.79,-240 344.79,-240 338.79,-234 338.79,-228 338.79,-228 338.79,-216 338.79,-216 338.79,-210 344.79,-204 350.79,-204 350.79,-204 380.79,-204 380.79,-204 386.79,-204 392.79,-210 392.79,-216 392.79,-216 392.79,-228 392.79,-228 392.79,-234 386.79,-240 380.79,-240"/>
<text text-anchor="middle" x="365.79" y="-224.8" font-family="Arial" font-size="9.00">/Sem_g</text>
<text text-anchor="middle" x="365.79" y="-214.8" font-family="Arial" font-size="9.00">Sem_g</text>
</g>
<!-- semcompl&#45;&gt;semcompl__sem_g -->
<g id="edge44" class="edge">
<title>semcompl&#45;&gt;semcompl__sem_g</title>
<path fill="none" stroke="#6b7c93" d="M249.79,-339.94C249.79,-302.95 249.79,-222 249.79,-222 249.79,-222 331.6,-222 331.6,-222"/>
<polygon fill="#6b7c93" stroke="#6b7c93" points="331.6,-224.45 338.6,-222 331.6,-219.55 331.6,-224.45"/>
</g>
<!-- semcompl__sem_h -->
<g id="node46" class="node">
<title>semcompl__sem_h</title>
<path fill="#faf5ff" stroke="#b794f4" d="M380.79,-172C380.79,-172 350.79,-172 350.79,-172 344.79,-172 338.79,-166 338.79,-160 338.79,-160 338.79,-148 338.79,-148 338.79,-142 344.79,-136 350.79,-136 350.79,-136 380.79,-136 380.79,-136 386.79,-136 392.79,-142 392.79,-148 392.79,-148 392.79,-160 392.79,-160 392.79,-166 386.79,-172 380.79,-172"/>
<text text-anchor="middle" x="365.79" y="-156.8" font-family="Arial" font-size="9.00">/Sem_h</text>
<text text-anchor="middle" x="365.79" y="-146.8" font-family="Arial" font-size="9.00">Sem_h</text>
</g>
<!-- semcompl&#45;&gt;semcompl__sem_h -->
<g id="edge45" class="edge">
<title>semcompl&#45;&gt;semcompl__sem_h</title>
<path fill="none" stroke="#6b7c93" d="M228.79,-339.9C228.79,-289.97 228.79,-154 228.79,-154 228.79,-154 331.73,-154 331.73,-154"/>
<polygon fill="#6b7c93" stroke="#6b7c93" points="331.73,-156.45 338.73,-154 331.73,-151.55 331.73,-156.45"/>
</g>
<!-- semcompl__sem_i -->
<g id="node47" class="node">
<title>semcompl__sem_i</title>
<path fill="#faf5ff" stroke="#b794f4" d="M380.79,-104C380.79,-104 350.79,-104 350.79,-104 344.79,-104 338.79,-98 338.79,-92 338.79,-92 338.79,-80 338.79,-80 338.79,-74 344.79,-68 350.79,-68 350.79,-68 380.79,-68 380.79,-68 386.79,-68 392.79,-74 392.79,-80 392.79,-80 392.79,-92 392.79,-92 392.79,-98 386.79,-104 380.79,-104"/>
<text text-anchor="middle" x="365.79" y="-88.8" font-family="Arial" font-size="9.00">/Sem_i</text>
<text text-anchor="middle" x="365.79" y="-78.8" font-family="Arial" font-size="9.00">Sem_i</text>
</g>
<!-- semcompl&#45;&gt;semcompl__sem_i -->
<g id="edge46" class="edge">
<title>semcompl&#45;&gt;semcompl__sem_i</title>
<path fill="none" stroke="#6b7c93" d="M207.79,-339.73C207.79,-278.75 207.79,-86 207.79,-86 207.79,-86 331.63,-86 331.63,-86"/>
<polygon fill="#6b7c93" stroke="#6b7c93" points="331.63,-88.45 338.63,-86 331.63,-83.55 331.63,-88.45"/>
</g>
<!-- semcompl__sem_j -->
<g id="node48" class="node">
<title>semcompl__sem_j</title>
<path fill="#faf5ff" stroke="#b794f4" d="M380.79,-36C380.79,-36 350.79,-36 350.79,-36 344.79,-36 338.79,-30 338.79,-24 338.79,-24 338.79,-12 338.79,-12 338.79,-6 344.79,0 350.79,0 350.79,0 380.79,0 380.79,0 386.79,0 392.79,-6 392.79,-12 392.79,-12 392.79,-24 392.79,-24 392.79,-30 386.79,-36 380.79,-36"/>
<text text-anchor="middle" x="365.79" y="-20.8" font-family="Arial" font-size="9.00">/Sem_j</text>
<text text-anchor="middle" x="365.79" y="-10.8" font-family="Arial" font-size="9.00">Sem_j</text>
</g>
<!-- semcompl&#45;&gt;semcompl__sem_j -->
<g id="edge47" class="edge">
<title>semcompl&#45;&gt;semcompl__sem_j</title>
<path fill="none" stroke="#6b7c93" d="M186.79,-339.72C186.79,-269.1 186.79,-18 186.79,-18 186.79,-18 331.61,-18 331.61,-18"/>
<polygon fill="#6b7c93" stroke="#6b7c93" points="331.61,-20.45 338.61,-18 331.61,-15.55 331.61,-20.45"/>
</g>
</g>
</svg>
