<?xml version="1.0" encoding="UTF-8" standalone="no"?>
<!DOCTYPE svg PUBLIC "-//W3C//DTD SVG 1.1//EN"
 "http://www.w3.org/Graphics/SVG/1.1/DTD/svg11.dtd">
<!-- Generated by graphviz version 2.42.4 (0)
 -->
<!-- Title: G Pages: 1 -->
<svg width="1077pt" height="621pt"
 viewBox="0.00 0.00 1076.70 621.20" xmlns="http://www.w3.org/2000/svg" xmlns:xlink="http://www.w3.org/1999/xlink">
<g id="graph0" class="graph" transform="scale(1 1) rotate(0) translate(21.6 599.6)">
<title>G</title>
<polygon fill="white" stroke="transparent" points="-21.6,21.6 -21.6,-599.6 1055.1,-599.6 1055.1,21.6 -21.6,21.6"/>
<!-- home_team -->
<g id="node1" class="node">
<title>home_team</title>
<ellipse fill="#fff7e6" stroke="#d69e2e" cx="94.75" cy="-290" rx="94.51" ry="21.43"/>
<text text-anchor="middle" x="94.75" y="-292.8" font-family="Arial" font-size="9.00">Главная / Main.js</text>
<text text-anchor="middle" x="94.75" y="-282.8" font-family="Arial" font-size="9.00">блок «Состав лаборатории»</text>
</g>
<!-- main_team -->
<g id="node2" class="node">
<title>main_team</title>
<path fill="#c6f6d5" stroke="#38a169" d="M307.5,-241C307.5,-241 250.5,-241 250.5,-241 244.5,-241 238.5,-235 238.5,-229 238.5,-229 238.5,-213 238.5,-213 238.5,-207 244.5,-201 250.5,-201 250.5,-201 307.5,-201 307.5,-201 313.5,-201 319.5,-207 319.5,-213 319.5,-213 319.5,-229 319.5,-229 319.5,-235 313.5,-241 307.5,-241"/>
<text text-anchor="middle" x="279" y="-228.8" font-family="Arial" font-size="9.00">/mainTeam</text>
<text text-anchor="middle" x="279" y="-218.8" font-family="Arial" font-size="9.00">MainTeam.js</text>
<text text-anchor="middle" x="279" y="-208.8" font-family="Arial" font-size="9.00">общая команда</text>
</g>
<!-- home_team&#45;&gt;main_team -->
<g id="edge1" class="edge">
<title>home_team&#45;&gt;main_team</title>
<path fill="none" stroke="#6b7c93" d="M180.63,-281C223.15,-281 265.5,-281 265.5,-281 265.5,-281 265.5,-248.31 265.5,-248.31"/>
<polygon fill="#6b7c93" stroke="#6b7c93" points="267.95,-248.31 265.5,-241.31 263.05,-248.31 267.95,-248.31"/>
</g>
<!-- profiles -->
<g id="node3" class="node">
<title>profiles</title>
<path fill="#f0fff4" stroke="#68d391" d="M465.5,-308C465.5,-308 380.5,-308 380.5,-308 374.5,-308 368.5,-302 368.5,-296 368.5,-296 368.5,-284 368.5,-284 368.5,-278 374.5,-272 380.5,-272 380.5,-272 465.5,-272 465.5,-272 471.5,-272 477.5,-278 477.5,-284 477.5,-284 477.5,-296 477.5,-296 477.5,-302 471.5,-308 465.5,-308"/>
<text text-anchor="middle" x="423" y="-292.8" font-family="Arial" font-size="9.00">Профили сотрудников</text>
<text text-anchor="middle" x="423" y="-282.8" font-family="Arial" font-size="9.00">Components/*_info.js</text>
</g>
<!-- home_team&#45;&gt;profiles -->
<g id="edge2" class="edge">
<title>home_team&#45;&gt;profiles</title>
<path fill="none" stroke="#6b7c93" d="M180.57,-299C180.57,-299 361.06,-299 361.06,-299"/>
<polygon fill="#6b7c93" stroke="#6b7c93" points="361.06,-301.45 368.06,-299 361.06,-296.55 361.06,-301.45"/>
</g>
<!-- main_team&#45;&gt;profiles -->
<g id="edge3" class="edge">
<title>main_team&#45;&gt;profiles</title>
<path fill="none" stroke="#6b7c93" d="M292.5,-241.33C292.5,-261.68 292.5,-290 292.5,-290 292.5,-290 361.42,-290 361.42,-290"/>
<polygon fill="#6b7c93" stroke="#6b7c93" points="361.42,-292.45 368.42,-290 361.42,-287.55 361.42,-292.45"/>
</g>
<!-- prof__kabanikhin_info -->
<g id="node4" class="node">
<title>prof__kabanikhin_info</title>
<path fill="#f7fff7" stroke="#68d391" d="M599,-578C599,-578 541,-578 541,-578 535,-578 529,-572 529,-566 529,-566 529,-554 529,-554 529,-548 535,-542 541,-542 541,-542 599,-542 599,-542 605,-542 611,-548 611,-554 611,-554 611,-566 611,-566 611,-572 605,-578 599,-578"/>
<text text-anchor="middle" x="570" y="-562.8" font-family="Arial" font-size="9.00">Kabanikhin</text>
<text text-anchor="middle" x="570" y="-552.8" font-family="Arial" font-size="9.00">/kabanikhin_info</text>
</g>
<!-- profiles&#45;&gt;prof__kabanikhin_info -->
<g id="edge4" class="edge">
<title>profiles&#45;&gt;prof__kabanikhin_info</title>
<path fill="none" stroke="#6b7c93" d="M390.5,-308.13C390.5,-368.67 390.5,-560 390.5,-560 390.5,-560 521.82,-560 521.82,-560"/>
<polygon fill="#6b7c93" stroke="#6b7c93" points="521.82,-562.45 528.82,-560 521.82,-557.55 521.82,-562.45"/>
</g>
<!-- prof__krivorotko_info -->
<g id="node5" class="node">
<title>prof__krivorotko_info</title>
<path fill="#f7fff7" stroke="#68d391" d="M596.5,-444C596.5,-444 543.5,-444 543.5,-444 537.5,-444 531.5,-438 531.5,-432 531.5,-432 531.5,-420 531.5,-420 531.5,-414 537.5,-408 543.5,-408 543.5,-408 596.5,-408 596.5,-408 602.5,-408 608.5,-414 608.5,-420 608.5,-420 608.5,-432 608.5,-432 608.5,-438 602.5,-444 596.5,-444"/>
<text text-anchor="middle" x="570" y="-428.8" font-family="Arial" font-size="9.00">Krivorotko</text>
<text text-anchor="middle" x="570" y="-418.8" font-family="Arial" font-size="9.00">/krivorotko_info</text>
</g>
<!-- profiles&#45;&gt;prof__krivorotko_info -->
<g id="edge5" class="edge">
<title>profiles&#45;&gt;prof__krivorotko_info</title>
<path fill="none" stroke="#6b7c93" d="M434.5,-308.06C434.5,-345.05 434.5,-426 434.5,-426 434.5,-426 524.18,-426 524.18,-426"/>
<polygon fill="#6b7c93" stroke="#6b7c93" points="524.18,-428.45 531.18,-426 524.18,-423.55 524.18,-428.45"/>
</g>
<!-- prof__mikhailapov_info -->
<g id="node6" class="node">
<title>prof__mikhailapov_info</title>
<path fill="#f7fff7" stroke="#68d391" d="M601.5,-376C601.5,-376 538.5,-376 538.5,-376 532.5,-376 526.5,-370 526.5,-364 526.5,-364 526.5,-352 526.5,-352 526.5,-346 532.5,-340 538.5,-340 538.5,-340 601.5,-340 601.5,-340 607.5,-340 613.5,-346 613.5,-352 613.5,-352 613.5,-364 613.5,-364 613.5,-370 607.5,-376 601.5,-376"/>
<text text-anchor="middle" x="570" y="-360.8" font-family="Arial" font-size="9.00">Mikhailapov</text>
<text text-anchor="middle" x="570" y="-350.8" font-family="Arial" font-size="9.00">/mikhailapov_info</text>
</g>
<!-- profiles&#45;&gt;prof__mikhailapov_info -->
<g id="edge6" class="edge">
<title>profiles&#45;&gt;prof__mikhailapov_info</title>
<path fill="none" stroke="#6b7c93" d="M456.5,-308.22C456.5,-328.37 456.5,-358 456.5,-358 456.5,-358 519.45,-358 519.45,-358"/>
<polygon fill="#6b7c93" stroke="#6b7c93" points="519.45,-360.45 526.45,-358 519.45,-355.55 519.45,-360.45"/>
</g>
<!-- prof__nesterova_info -->
<g id="node7" class="node">
<title>prof__nesterova_info</title>
<path fill="#f7fff7" stroke="#68d391" d="M597,-308C597,-308 543,-308 543,-308 537,-308 531,-302 531,-296 531,-296 531,-284 531,-284 531,-278 537,-272 543,-272 543,-272 597,-272 597,-272 603,-272 609,-278 609,-284 609,-284 609,-296 609,-296 609,-302 603,-308 597,-308"/>
<text text-anchor="middle" x="570" y="-292.8" font-family="Arial" font-size="9.00">Nesterova</text>
<text text-anchor="middle" x="570" y="-282.8" font-family="Arial" font-size="9.00">/nesterova_info</text>
</g>
<!-- profiles&#45;&gt;prof__nesterova_info -->
<g id="edge7" class="edge">
<title>profiles&#45;&gt;prof__nesterova_info</title>
<path fill="none" stroke="#6b7c93" d="M477.74,-290C477.74,-290 523.83,-290 523.83,-290"/>
<polygon fill="#6b7c93" stroke="#6b7c93" points="523.83,-292.45 530.83,-290 523.83,-287.55 523.83,-292.45"/>
</g>
<!-- prof__neverov_info -->
<g id="node8" class="node">
<title>prof__neverov_info</title>
<path fill="#f7fff7" stroke="#68d391" d="M593,-240C593,-240 547,-240 547,-240 541,-240 535,-234 535,-228 535,-228 535,-216 535,-216 535,-210 541,-204 547,-204 547,-204 593,-204 593,-204 599,-204 605,-210 605,-216 605,-216 605,-228 605,-228 605,-234 599,-240 593,-240"/>
<text text-anchor="middle" x="570" y="-224.8" font-family="Arial" font-size="9.00">Neverov</text>
<text text-anchor="middle" x="570" y="-214.8" font-family="Arial" font-size="9.00">/neverov_info</text>
</g>
<!-- profiles&#45;&gt;prof__neverov_info -->
<g id="edge8" class="edge">
<title>profiles&#45;&gt;prof__neverov_info</title>
<path fill="none" stroke="#6b7c93" d="M456.5,-271.78C456.5,-251.63 456.5,-222 456.5,-222 456.5,-222 527.71,-222 527.71,-222"/>
<polygon fill="#6b7c93" stroke="#6b7c93" points="527.71,-224.45 534.71,-222 527.71,-219.55 527.71,-224.45"/>
</g>
<!-- prof__petrakova_info -->
<g id="node9" class="node">
<title>prof__petrakova_info</title>
<path fill="#f7fff7" stroke="#68d391" d="M597,-172C597,-172 543,-172 543,-172 537,-172 531,-166 531,-160 531,-160 531,-148 531,-148 531,-142 537,-136 543,-136 543,-136 597,-136 597,-136 603,-136 609,-142 609,-148 609,-148 609,-160 609,-160 609,-166 603,-172 597,-172"/>
<text text-anchor="middle" x="570" y="-156.8" font-family="Arial" font-size="9.00">Petrakova</text>
<text text-anchor="middle" x="570" y="-146.8" font-family="Arial" font-size="9.00">/petrakova_info</text>
</g>
<!-- profiles&#45;&gt;prof__petrakova_info -->
<g id="edge9" class="edge">
<title>profiles&#45;&gt;prof__petrakova_info</title>
<path fill="none" stroke="#6b7c93" d="M434.5,-271.94C434.5,-234.95 434.5,-154 434.5,-154 434.5,-154 523.81,-154 523.81,-154"/>
<polygon fill="#6b7c93" stroke="#6b7c93" points="523.81,-156.45 530.81,-154 523.81,-151.55 523.81,-156.45"/>
</g>
<!-- prof__semenova_info -->
<g id="node10" class="node">
<title>prof__semenova_info</title>
<path fill="#f7fff7" stroke="#68d391" d="M598,-104C598,-104 542,-104 542,-104 536,-104 530,-98 530,-92 530,-92 530,-80 530,-80 530,-74 536,-68 542,-68 542,-68 598,-68 598,-68 604,-68 610,-74 610,-80 610,-80 610,-92 610,-92 610,-98 604,-104 598,-104"/>
<text text-anchor="middle" x="570" y="-88.8" font-family="Arial" font-size="9.00">Semenova</text>
<text text-anchor="middle" x="570" y="-78.8" font-family="Arial" font-size="9.00">/semenova_info</text>
</g>
<!-- profiles&#45;&gt;prof__semenova_info -->
<g id="edge10" class="edge">
<title>profiles&#45;&gt;prof__semenova_info</title>
<path fill="none" stroke="#6b7c93" d="M412.5,-271.9C412.5,-221.97 412.5,-86 412.5,-86 412.5,-86 522.85,-86 522.85,-86"/>
<polygon fill="#6b7c93" stroke="#6b7c93" points="522.85,-88.45 529.85,-86 522.85,-83.55 522.85,-88.45"/>
</g>
<!-- prof__zvonareva_info -->
<g id="node11" class="node">
<title>prof__zvonareva_info</title>
<path fill="#f7fff7" stroke="#68d391" d="M989,-513C989,-513 933,-513 933,-513 927,-513 921,-507 921,-501 921,-501 921,-489 921,-489 921,-483 927,-477 933,-477 933,-477 989,-477 989,-477 995,-477 1001,-483 1001,-489 1001,-489 1001,-501 1001,-501 1001,-507 995,-513 989,-513"/>
<text text-anchor="middle" x="961" y="-497.8" font-family="Arial" font-size="9.00">Zvonareva</text>
<text text-anchor="middle" x="961" y="-487.8" font-family="Arial" font-size="9.00">/zvonareva_info</text>
</g>
<!-- profiles&#45;&gt;prof__zvonareva_info -->
<g id="edge11" class="edge">
<title>profiles&#45;&gt;prof__zvonareva_info</title>
<path fill="none" stroke="#6b7c93" d="M412.5,-308.36C412.5,-359.69 412.5,-501 412.5,-501 412.5,-501 913.67,-501 913.67,-501"/>
<polygon fill="#6b7c93" stroke="#6b7c93" points="913.67,-503.45 920.67,-501 913.67,-498.55 913.67,-503.45"/>
</g>
<!-- prof__zyatkov_info -->
<g id="node12" class="node">
<title>prof__zyatkov_info</title>
<path fill="#f7fff7" stroke="#68d391" d="M592,-36C592,-36 548,-36 548,-36 542,-36 536,-30 536,-24 536,-24 536,-12 536,-12 536,-6 542,0 548,0 548,0 592,0 592,0 598,0 604,-6 604,-12 604,-12 604,-24 604,-24 604,-30 598,-36 592,-36"/>
<text text-anchor="middle" x="570" y="-20.8" font-family="Arial" font-size="9.00">Zyatkov</text>
<text text-anchor="middle" x="570" y="-10.8" font-family="Arial" font-size="9.00">/zyatkov_info</text>
</g>
<!-- profiles&#45;&gt;prof__zyatkov_info -->
<g id="edge12" class="edge">
<title>profiles&#45;&gt;prof__zyatkov_info</title>
<path fill="none" stroke="#6b7c93" d="M390.5,-271.73C390.5,-210.75 390.5,-18 390.5,-18 390.5,-18 528.82,-18 528.82,-18"/>
<polygon fill="#6b7c93" stroke="#6b7c93" points="528.82,-20.45 535.82,-18 528.82,-15.55 528.82,-20.45"/>
</g>
<!-- teaching -->
<g id="node13" class="node">
<title>teaching</title>
<path fill="#e6fffa" stroke="#319795" d="M808.5,-393C808.5,-393 693.5,-393 693.5,-393 687.5,-393 681.5,-387 681.5,-381 681.5,-381 681.5,-369 681.5,-369 681.5,-363 687.5,-357 693.5,-357 693.5,-357 808.5,-357 808.5,-357 814.5,-357 820.5,-363 820.5,-369 820.5,-369 820.5,-381 820.5,-381 820.5,-387 814.5,-393 808.5,-393"/>
<text text-anchor="middle" x="751" y="-377.8" font-family="Arial" font-size="9.00">Учебные страницы</text>
<text text-anchor="middle" x="751" y="-367.8" font-family="Arial" font-size="9.00">Krivorotko/Zvonareva teaching</text>
</g>
<!-- prof__krivorotko_info&#45;&gt;teaching -->
<g id="edge16" class="edge">
<title>prof__krivorotko_info&#45;&gt;teaching</title>
<path fill="none" stroke="#6b7c93" d="M570.5,-407.68C570.5,-396.56 570.5,-384.5 570.5,-384.5 570.5,-384.5 674.48,-384.5 674.48,-384.5"/>
<polygon fill="#6b7c93" stroke="#6b7c93" points="674.48,-386.95 681.48,-384.5 674.48,-382.05 674.48,-386.95"/>
</g>
<!-- prof__zvonareva_info&#45;&gt;teaching -->
<g id="edge17" class="edge">
<title>prof__zvonareva_info&#45;&gt;teaching</title>
<path fill="none" stroke="#6b7c93" d="M920.61,-489C859.73,-489 751.5,-489 751.5,-489 751.5,-489 751.5,-400.06 751.5,-400.06"/>
<polygon fill="#6b7c93" stroke="#6b7c93" points="753.95,-400.06 751.5,-393.06 749.05,-400.06 753.95,-400.06"/>
</g>
<!-- teach__krivorotko_teaching -->
<g id="node14" class="node">
<title>teach__krivorotko_teaching</title>
<path fill="#f0ffff" stroke="#4fd1c5" d="M997.5,-445C997.5,-445 924.5,-445 924.5,-445 918.5,-445 912.5,-439 912.5,-433 912.5,-433 912.5,-421 912.5,-421 912.5,-415 918.5,-409 924.5,-409 924.5,-409 997.5,-409 997.5,-409 1003.5,-409 1009.5,-415 1009.5,-421 1009.5,-421 1009.5,-433 1009.5,-433 1009.5,-439 1003.5,-445 997.5,-445"/>
<text text-anchor="middle" x="961" y="-429.8" font-family="Arial" font-size="9.00">/krivorotko_teaching</text>
<text text-anchor="middle" x="961" y="-419.8" font-family="Arial" font-size="9.00">Krivorotko_teaching</text>
</g>
<!-- teaching&#45;&gt;teach__krivorotko_teaching -->
<g id="edge13" class="edge">
<title>teaching&#45;&gt;teach__krivorotko_teaching</title>
<path fill="none" stroke="#6b7c93" d="M820.51,-385C881.83,-385 961.5,-385 961.5,-385 961.5,-385 961.5,-401.94 961.5,-401.94"/>
<polygon fill="#6b7c93" stroke="#6b7c93" points="959.05,-401.94 961.5,-408.94 963.95,-401.94 959.05,-401.94"/>
</g>
<!-- teach__krivorotko_teaching_methods -->
<g id="node15" class="node">
<title>teach__krivorotko_teaching_methods</title>
<path fill="#f0ffff" stroke="#4fd1c5" d="M1018,-377C1018,-377 904,-377 904,-377 898,-377 892,-371 892,-365 892,-365 892,-353 892,-353 892,-347 898,-341 904,-341 904,-341 1018,-341 1018,-341 1024,-341 1030,-347 1030,-353 1030,-353 1030,-365 1030,-365 1030,-371 1024,-377 1018,-377"/>
<text text-anchor="middle" x="961" y="-361.8" font-family="Arial" font-size="9.00">/krivorotko_teaching_methods</text>
<text text-anchor="middle" x="961" y="-351.8" font-family="Arial" font-size="9.00">Krivorotko_teaching_methods</text>
</g>
<!-- teaching&#45;&gt;teach__krivorotko_teaching_methods -->
<g id="edge14" class="edge">
<title>teaching&#45;&gt;teach__krivorotko_teaching_methods</title>
<path fill="none" stroke="#6b7c93" d="M820.64,-367C820.64,-367 884.92,-367 884.92,-367"/>
<polygon fill="#6b7c93" stroke="#6b7c93" points="884.92,-369.45 891.92,-367 884.92,-364.55 884.92,-369.45"/>
</g>
<!-- teach__krivorotko_zvonareva_teaching -->
<g id="node16" class="node">
<title>teach__krivorotko_zvonareva_teaching</title>
<path fill="#f0ffff" stroke="#4fd1c5" d="M1021.5,-309C1021.5,-309 900.5,-309 900.5,-309 894.5,-309 888.5,-303 888.5,-297 888.5,-297 888.5,-285 888.5,-285 888.5,-279 894.5,-273 900.5,-273 900.5,-273 1021.5,-273 1021.5,-273 1027.5,-273 1033.5,-279 1033.5,-285 1033.5,-285 1033.5,-297 1033.5,-297 1033.5,-303 1027.5,-309 1021.5,-309"/>
<text text-anchor="middle" x="961" y="-293.8" font-family="Arial" font-size="9.00">/krivorotko_zvonareva_teaching</text>
<text text-anchor="middle" x="961" y="-283.8" font-family="Arial" font-size="9.00">Krivorotko_Zvonareva_teaching</text>
</g>
<!-- teaching&#45;&gt;teach__krivorotko_zvonareva_teaching -->
<g id="edge15" class="edge">
<title>teaching&#45;&gt;teach__krivorotko_zvonareva_teaching</title>
<path fill="none" stroke="#6b7c93" d="M786.5,-356.66C786.5,-331.81 786.5,-290.5 786.5,-290.5 786.5,-290.5 881.26,-290.5 881.26,-290.5"/>
<polygon fill="#6b7c93" stroke="#6b7c93" points="881.26,-292.95 888.26,-290.5 881.26,-288.05 881.26,-292.95"/>
</g>
<!-- prof__krivorotko_info_en -->
<g id="node17" class="node">
<title>prof__krivorotko_info_en</title>
<path fill="#f8fbff" stroke="#8ca9c7" d="M1007.5,-241C1007.5,-241 914.5,-241 914.5,-241 908.5,-241 902.5,-235 902.5,-229 902.5,-229 902.5,-217 902.5,-217 902.5,-211 908.5,-205 914.5,-205 914.5,-205 1007.5,-205 1007.5,-205 1013.5,-205 1019.5,-211 1019.5,-217 1019.5,-217 1019.5,-229 1019.5,-229 1019.5,-235 1013.5,-241 1007.5,-241"/>
<text text-anchor="middle" x="961" y="-220.8" font-family="Arial" font-size="9.00">prof__krivorotko_info_en</text>
</g>
<!-- teaching&#45;&gt;prof__krivorotko_info_en -->
<g id="edge22" class="edge">
<title>teaching&#45;&gt;prof__krivorotko_info_en</title>
<path fill="none" stroke="#6b7c93" d="M751.5,-356.91C751.5,-316.51 751.5,-222.5 751.5,-222.5 751.5,-222.5 895.37,-222.5 895.37,-222.5"/>
<polygon fill="#6b7c93" stroke="#6b7c93" points="895.37,-224.95 902.37,-222.5 895.37,-220.05 895.37,-224.95"/>
<text text-anchor="middle" x="854.5" y="-225.8" font-family="Arial" font-size="9.00">back</text>
</g>
<!-- prof__zvonareva_info_en -->
<g id="node18" class="node">
<title>prof__zvonareva_info_en</title>
<path fill="#f8fbff" stroke="#8ca9c7" d="M1009,-173C1009,-173 913,-173 913,-173 907,-173 901,-167 901,-161 901,-161 901,-149 901,-149 901,-143 907,-137 913,-137 913,-137 1009,-137 1009,-137 1015,-137 1021,-143 1021,-149 1021,-149 1021,-161 1021,-161 1021,-167 1015,-173 1009,-173"/>
<text text-anchor="middle" x="961" y="-152.8" font-family="Arial" font-size="9.00">prof__zvonareva_info_en</text>
</g>
<!-- teaching&#45;&gt;prof__zvonareva_info_en -->
<g id="edge23" class="edge">
<title>teaching&#45;&gt;prof__zvonareva_info_en</title>
<path fill="none" stroke="#6b7c93" d="M716.5,-356.96C716.5,-304.29 716.5,-154.5 716.5,-154.5 716.5,-154.5 893.88,-154.5 893.88,-154.5"/>
<polygon fill="#6b7c93" stroke="#6b7c93" points="893.88,-156.95 900.88,-154.5 893.88,-152.05 893.88,-156.95"/>
<text text-anchor="middle" x="854.5" y="-157.8" font-family="Arial" font-size="9.00">back</text>
</g>
</g>
</svg>
