<?xml version="1.0" encoding="UTF-8" standalone="no"?>
<!DOCTYPE svg PUBLIC "-//W3C//DTD SVG 1.1//EN"
 "http://www.w3.org/Graphics/SVG/1.1/DTD/svg11.dtd">
<!-- Generated by graphviz version 2.42.4 (0)
 -->
<!-- Title: G Pages: 1 -->
<svg width="701pt" height="1249pt"
 viewBox="0.00 0.00 701.01 1249.20" xmlns="http://www.w3.org/2000/svg" xmlns:xlink="http://www.w3.org/1999/xlink">
<g id="graph0" class="graph" transform="scale(1 1) rotate(0) translate(21.6 1227.6)">
<title>G</title>
<polygon fill="white" stroke="transparent" points="-21.6,21.6 -21.6,-1227.6 679.41,-1227.6 679.41,21.6 -21.6,21.6"/>
<!-- data_page -->
<g id="node1" class="node">
<title>data_page</title>
<ellipse fill="#fff7e6" stroke="#d69e2e" cx="30.41" cy="-509" rx="30.31" ry="21.43"/>
<text text-anchor="middle" x="30.41" y="-511.8" font-family="Arial" font-size="9.00">/data</text>
<text text-anchor="middle" x="30.41" y="-501.8" font-family="Arial" font-size="9.00">Data.js</text>
</g>
<!-- regions -->
<g id="node2" class="node">
<title>regions</title>
<path fill="#ebf8ff" stroke="#3182ce" d="M219.31,-628C219.31,-628 129.31,-628 129.31,-628 123.31,-628 117.31,-622 117.31,-616 117.31,-616 117.31,-604 117.31,-604 117.31,-598 123.31,-592 129.31,-592 129.31,-592 219.31,-592 219.31,-592 225.31,-592 231.31,-598 231.31,-604 231.31,-604 231.31,-616 231.31,-616 231.31,-622 225.31,-628 219.31,-628"/>
<text text-anchor="middle" x="174.31" y="-612.8" font-family="Arial" font-size="9.00">Региональные карточки</text>
<text text-anchor="middle" x="174.31" y="-602.8" font-family="Arial" font-size="9.00">гербы + ссылки</text>
</g>
<!-- data_page&#45;&gt;regions -->
<g id="edge1" class="edge">
<title>data_page&#45;&gt;regions</title>
<path fill="none" stroke="#6b7c93" d="M30.81,-530.42C30.81,-560.07 30.81,-610 30.81,-610 30.81,-610 110.18,-610 110.18,-610"/>
<polygon fill="#6b7c93" stroke="#6b7c93" points="110.18,-612.45 117.18,-610 110.18,-607.55 110.18,-612.45"/>
</g>
<!-- collapse -->
<g id="node19" class="node">
<title>collapse</title>
<path fill="#f0fff4" stroke="#38a169" d="M228.81,-527C228.81,-527 119.81,-527 119.81,-527 113.81,-527 107.81,-521 107.81,-515 107.81,-515 107.81,-503 107.81,-503 107.81,-497 113.81,-491 119.81,-491 119.81,-491 228.81,-491 228.81,-491 234.81,-491 240.81,-497 240.81,-503 240.81,-503 240.81,-515 240.81,-515 240.81,-521 234.81,-527 228.81,-527"/>
<text text-anchor="middle" x="174.31" y="-511.8" font-family="Arial" font-size="9.00">CollapseParam*.js</text>
<text text-anchor="middle" x="174.31" y="-501.8" font-family="Arial" font-size="9.00">описания колонок датасетов</text>
</g>
<!-- data_page&#45;&gt;collapse -->
<g id="edge21" class="edge">
<title>data_page&#45;&gt;collapse</title>
<path fill="none" stroke="#6b7c93" d="M60.92,-509C60.92,-509 100.72,-509 100.72,-509"/>
<polygon fill="#6b7c93" stroke="#6b7c93" points="100.72,-511.45 107.72,-509 100.72,-506.55 100.72,-511.45"/>
</g>
<!-- modeling -->
<g id="node20" class="node">
<title>modeling</title>
<path fill="#e9d8fd" stroke="#805ad5" d="M193.31,-350C193.31,-350 155.31,-350 155.31,-350 149.31,-350 143.31,-344 143.31,-338 143.31,-338 143.31,-326 143.31,-326 143.31,-320 149.31,-314 155.31,-314 155.31,-314 193.31,-314 193.31,-314 199.31,-314 205.31,-320 205.31,-326 205.31,-326 205.31,-338 205.31,-338 205.31,-344 199.31,-350 193.31,-350"/>
<text text-anchor="middle" x="174.31" y="-334.8" font-family="Arial" font-size="9.00">/modeling</text>
<text text-anchor="middle" x="174.31" y="-324.8" font-family="Arial" font-size="9.00">Modeling.js</text>
</g>
<!-- data_page&#45;&gt;modeling -->
<g id="edge22" class="edge">
<title>data_page&#45;&gt;modeling</title>
<path fill="none" stroke="#6b7c93" d="M30.81,-487.65C30.81,-440.57 30.81,-332 30.81,-332 30.81,-332 136.17,-332 136.17,-332"/>
<polygon fill="#6b7c93" stroke="#6b7c93" points="136.17,-334.45 143.17,-332 136.17,-329.55 136.17,-334.45"/>
</g>
<!-- reg_______ -->
<g id="node3" class="node">
<title>reg_______</title>
<path fill="#f7fafc" stroke="#90cdf4" d="M367.81,-1138C367.81,-1138 337.81,-1138 337.81,-1138 331.81,-1138 325.81,-1132 325.81,-1126 325.81,-1126 325.81,-1114 325.81,-1114 325.81,-1108 331.81,-1102 337.81,-1102 337.81,-1102 367.81,-1102 367.81,-1102 373.81,-1102 379.81,-1108 379.81,-1114 379.81,-1114 379.81,-1126 379.81,-1126 379.81,-1132 373.81,-1138 367.81,-1138"/>
<text text-anchor="middle" x="352.81" y="-1117.8" font-family="Arial" font-size="9.00">Москва</text>
</g>
<!-- regions&#45;&gt;reg_______ -->
<g id="edge2" class="edge">
<title>regions&#45;&gt;reg_______</title>
<path fill="none" stroke="#6b7c93" d="M155.81,-628.15C155.81,-719 155.81,-1120 155.81,-1120 155.81,-1120 318.42,-1120 318.42,-1120"/>
<polygon fill="#6b7c93" stroke="#6b7c93" points="318.42,-1122.45 325.42,-1120 318.42,-1117.55 318.42,-1122.45"/>
</g>
<!-- reg___________________ -->
<g id="node6" class="node">
<title>reg___________________</title>
<path fill="#f7fafc" stroke="#90cdf4" d="M390.81,-934C390.81,-934 314.81,-934 314.81,-934 308.81,-934 302.81,-928 302.81,-922 302.81,-922 302.81,-910 302.81,-910 302.81,-904 308.81,-898 314.81,-898 314.81,-898 390.81,-898 390.81,-898 396.81,-898 402.81,-904 402.81,-910 402.81,-910 402.81,-922 402.81,-922 402.81,-928 396.81,-934 390.81,-934"/>
<text text-anchor="middle" x="352.81" y="-913.8" font-family="Arial" font-size="9.00">Новосибирская обл.</text>
</g>
<!-- regions&#45;&gt;reg___________________ -->
<g id="edge5" class="edge">
<title>regions&#45;&gt;reg___________________</title>
<path fill="none" stroke="#6b7c93" d="M193.81,-628.23C193.81,-694.1 193.81,-916 193.81,-916 193.81,-916 295.5,-916 295.5,-916"/>
<polygon fill="#6b7c93" stroke="#6b7c93" points="295.5,-918.45 302.5,-916 295.5,-913.55 295.5,-918.45"/>
</g>
<!-- reg________________ -->
<g id="node11" class="node">
<title>reg________________</title>
<path fill="#f7fafc" stroke="#90cdf4" d="M383.81,-730C383.81,-730 321.81,-730 321.81,-730 315.81,-730 309.81,-724 309.81,-718 309.81,-718 309.81,-706 309.81,-706 309.81,-700 315.81,-694 321.81,-694 321.81,-694 383.81,-694 383.81,-694 389.81,-694 395.81,-700 395.81,-706 395.81,-706 395.81,-718 395.81,-718 395.81,-724 389.81,-730 383.81,-730"/>
<text text-anchor="middle" x="352.81" y="-709.8" font-family="Arial" font-size="9.00">Санкт&#45;Петербург</text>
</g>
<!-- regions&#45;&gt;reg________________ -->
<g id="edge13" class="edge">
<title>regions&#45;&gt;reg________________</title>
<path fill="none" stroke="#6b7c93" d="M231.44,-619.6C271.46,-619.6 317.81,-619.6 317.81,-619.6 317.81,-619.6 317.81,-686.74 317.81,-686.74"/>
<polygon fill="#6b7c93" stroke="#6b7c93" points="315.36,-686.74 317.81,-693.74 320.26,-686.74 315.36,-686.74"/>
</g>
<!-- reg____________ -->
<g id="node14" class="node">
<title>reg____________</title>
<path fill="#f7fafc" stroke="#90cdf4" d="M373.81,-662C373.81,-662 331.81,-662 331.81,-662 325.81,-662 319.81,-656 319.81,-650 319.81,-650 319.81,-638 319.81,-638 319.81,-632 325.81,-626 331.81,-626 331.81,-626 373.81,-626 373.81,-626 379.81,-626 385.81,-632 385.81,-638 385.81,-638 385.81,-650 385.81,-650 385.81,-656 379.81,-662 373.81,-662"/>
<text text-anchor="middle" x="352.81" y="-641.8" font-family="Arial" font-size="9.00">Омская обл.</text>
</g>
<!-- regions&#45;&gt;reg____________ -->
<g id="edge16" class="edge">
<title>regions&#45;&gt;reg____________</title>
<path fill="none" stroke="#6b7c93" d="M231.77,-613.2C283.95,-613.2 352.81,-613.2 352.81,-613.2 352.81,-613.2 352.81,-618.73 352.81,-618.73"/>
<polygon fill="#6b7c93" stroke="#6b7c93" points="350.36,-618.73 352.81,-625.73 355.26,-618.73 350.36,-618.73"/>
</g>
<!-- reg_______________ -->
<g id="node16" class="node">
<title>reg_______________</title>
<path fill="#f7fafc" stroke="#90cdf4" d="M381.31,-594C381.31,-594 324.31,-594 324.31,-594 318.31,-594 312.31,-588 312.31,-582 312.31,-582 312.31,-570 312.31,-570 312.31,-564 318.31,-558 324.31,-558 324.31,-558 381.31,-558 381.31,-558 387.31,-558 393.31,-564 393.31,-570 393.31,-570 393.31,-582 393.31,-582 393.31,-588 387.31,-594 381.31,-594"/>
<text text-anchor="middle" x="352.81" y="-573.8" font-family="Arial" font-size="9.00">Алтайский край</text>
</g>
<!-- regions&#45;&gt;reg_______________ -->
<g id="edge18" class="edge">
<title>regions&#45;&gt;reg_______________</title>
<path fill="none" stroke="#6b7c93" d="M231.46,-600.4C270.36,-600.4 314.81,-600.4 314.81,-600.4 314.81,-600.4 314.81,-599.78 314.81,-599.78"/>
<polygon fill="#6b7c93" stroke="#6b7c93" points="317.26,-601.24 314.81,-594.24 312.36,-601.24 317.26,-601.24"/>
</g>
<!-- future_db -->
<g id="node28" class="node">
<title>future_db</title>
<path fill="#e6fffa" stroke="#319795" d="M618.31,-458C618.31,-458 504.31,-458 504.31,-458 498.31,-458 492.31,-452 492.31,-446 492.31,-446 492.31,-420 492.31,-420 492.31,-414 498.31,-408 504.31,-408 504.31,-408 618.31,-408 618.31,-408 624.31,-408 630.31,-414 630.31,-420 630.31,-420 630.31,-446 630.31,-446 630.31,-452 624.31,-458 618.31,-458"/>
<text text-anchor="middle" x="561.31" y="-445.8" font-family="Arial" font-size="9.00">Будущая БД</text>
<text text-anchor="middle" x="561.31" y="-435.8" font-family="Arial" font-size="9.00">regions, dataset_files,</text>
<text text-anchor="middle" x="561.31" y="-425.8" font-family="Arial" font-size="9.00">dataset_file_columns,</text>
<text text-anchor="middle" x="561.31" y="-415.8" font-family="Arial" font-size="9.00">timeseries, model_parameters</text>
</g>
<!-- regions&#45;&gt;future_db -->
<g id="edge30" class="edge">
<title>regions&#45;&gt;future_db</title>
<path fill="none" stroke="#6b7c93" d="M231.54,-606.8C298.06,-606.8 398.81,-606.8 398.81,-606.8 398.81,-606.8 398.81,-441.33 398.81,-441.33 398.81,-441.33 484.93,-441.33 484.93,-441.33"/>
<polygon fill="#6b7c93" stroke="#6b7c93" points="484.93,-443.78 491.93,-441.33 484.93,-438.88 484.93,-443.78"/>
</g>
<!-- reg________0 -->
<g id="node4" class="node">
<title>reg________0</title>
<path fill="#ffffff" stroke="#cbd5e0" d="M584.81,-1206C584.81,-1206 537.81,-1206 537.81,-1206 531.81,-1206 525.81,-1200 525.81,-1194 525.81,-1194 525.81,-1182 525.81,-1182 525.81,-1176 531.81,-1170 537.81,-1170 537.81,-1170 584.81,-1170 584.81,-1170 590.81,-1170 596.81,-1176 596.81,-1182 596.81,-1182 596.81,-1194 596.81,-1194 596.81,-1200 590.81,-1206 584.81,-1206"/>
<text text-anchor="middle" x="561.31" y="-1185.8" font-family="Arial" font-size="9.00">mos_data.csv</text>
</g>
<!-- reg_______&#45;&gt;reg________0 -->
<g id="edge3" class="edge">
<title>reg_______&#45;&gt;reg________0</title>
<path fill="none" stroke="#6b7c93" d="M352.81,-1138.22C352.81,-1158.37 352.81,-1188 352.81,-1188 352.81,-1188 518.47,-1188 518.47,-1188"/>
<polygon fill="#6b7c93" stroke="#6b7c93" points="518.47,-1190.45 525.47,-1188 518.47,-1185.55 518.47,-1190.45"/>
</g>
<!-- reg________1 -->
<g id="node5" class="node">
<title>reg________1</title>
<path fill="#ffffff" stroke="#cbd5e0" d="M586.81,-1138C586.81,-1138 535.81,-1138 535.81,-1138 529.81,-1138 523.81,-1132 523.81,-1126 523.81,-1126 523.81,-1114 523.81,-1114 523.81,-1108 529.81,-1102 535.81,-1102 535.81,-1102 586.81,-1102 586.81,-1102 592.81,-1102 598.81,-1108 598.81,-1114 598.81,-1114 598.81,-1126 598.81,-1126 598.81,-1132 592.81,-1138 586.81,-1138"/>
<text text-anchor="middle" x="561.31" y="-1117.8" font-family="Arial" font-size="9.00">mos&#45;invitro.csv</text>
</g>
<!-- reg_______&#45;&gt;reg________1 -->
<g id="edge4" class="edge">
<title>reg_______&#45;&gt;reg________1</title>
<path fill="none" stroke="#6b7c93" d="M380.07,-1120C380.07,-1120 516.45,-1120 516.45,-1120"/>
<polygon fill="#6b7c93" stroke="#6b7c93" points="516.45,-1122.45 523.45,-1120 516.45,-1117.55 516.45,-1122.45"/>
</g>
<!-- reg____________________0 -->
<g id="node7" class="node">
<title>reg____________________0</title>
<path fill="#ffffff" stroke="#cbd5e0" d="M612.81,-1070C612.81,-1070 509.81,-1070 509.81,-1070 503.81,-1070 497.81,-1064 497.81,-1058 497.81,-1058 497.81,-1046 497.81,-1046 497.81,-1040 503.81,-1034 509.81,-1034 509.81,-1034 612.81,-1034 612.81,-1034 618.81,-1034 624.81,-1040 624.81,-1046 624.81,-1046 624.81,-1058 624.81,-1058 624.81,-1064 618.81,-1070 612.81,-1070"/>
<text text-anchor="middle" x="561.31" y="-1049.8" font-family="Arial" font-size="9.00">novosibirsk&#45;region&#45;data.csv</text>
</g>
<!-- reg___________________&#45;&gt;reg____________________0 -->
<g id="edge6" class="edge">
<title>reg___________________&#45;&gt;reg____________________0</title>
<path fill="none" stroke="#6b7c93" d="M387.81,-934.06C387.81,-971.05 387.81,-1052 387.81,-1052 387.81,-1052 490.69,-1052 490.69,-1052"/>
<polygon fill="#6b7c93" stroke="#6b7c93" points="490.69,-1054.45 497.69,-1052 490.69,-1049.55 490.69,-1054.45"/>
</g>
<!-- reg____________________1 -->
<g id="node8" class="node">
<title>reg____________________1</title>
<path fill="#ffffff" stroke="#cbd5e0" d="M625.31,-1002C625.31,-1002 497.31,-1002 497.31,-1002 491.31,-1002 485.31,-996 485.31,-990 485.31,-990 485.31,-978 485.31,-978 485.31,-972 491.31,-966 497.31,-966 497.31,-966 625.31,-966 625.31,-966 631.31,-966 637.31,-972 637.31,-978 637.31,-978 637.31,-990 637.31,-990 637.31,-996 631.31,-1002 625.31,-1002"/>
<text text-anchor="middle" x="561.31" y="-981.8" font-family="Arial" font-size="9.00">novosibirsk&#45;region&#45;data&#45;small.csv</text>
</g>
<!-- reg___________________&#45;&gt;reg____________________1 -->
<g id="edge7" class="edge">
<title>reg___________________&#45;&gt;reg____________________1</title>
<path fill="none" stroke="#6b7c93" d="M395.81,-934.22C395.81,-954.37 395.81,-984 395.81,-984 395.81,-984 477.86,-984 477.86,-984"/>
<polygon fill="#6b7c93" stroke="#6b7c93" points="477.86,-986.45 484.86,-984 477.86,-981.55 477.86,-986.45"/>
</g>
<!-- reg____________________2 -->
<g id="node9" class="node">
<title>reg____________________2</title>
<path fill="#ffffff" stroke="#cbd5e0" d="M601.81,-934C601.81,-934 520.81,-934 520.81,-934 514.81,-934 508.81,-928 508.81,-922 508.81,-922 508.81,-910 508.81,-910 508.81,-904 514.81,-898 520.81,-898 520.81,-898 601.81,-898 601.81,-898 607.81,-898 613.81,-904 613.81,-910 613.81,-910 613.81,-922 613.81,-922 613.81,-928 607.81,-934 601.81,-934"/>
<text text-anchor="middle" x="561.31" y="-913.8" font-family="Arial" font-size="9.00">novosibirsk&#45;invitro.csv</text>
</g>
<!-- reg___________________&#45;&gt;reg____________________2 -->
<g id="edge8" class="edge">
<title>reg___________________&#45;&gt;reg____________________2</title>
<path fill="none" stroke="#6b7c93" d="M403.02,-916C403.02,-916 501.63,-916 501.63,-916"/>
<polygon fill="#6b7c93" stroke="#6b7c93" points="501.63,-918.45 508.63,-916 501.63,-913.55 501.63,-918.45"/>
</g>
<!-- reg____________________3 -->
<g id="node10" class="node">
<title>reg____________________3</title>
<path fill="#ffffff" stroke="#cbd5e0" d="M645.81,-866C645.81,-866 476.81,-866 476.81,-866 470.81,-866 464.81,-860 464.81,-854 464.81,-854 464.81,-842 464.81,-842 464.81,-836 470.81,-830 476.81,-830 476.81,-830 645.81,-830 645.81,-830 651.81,-830 657.81,-836 657.81,-842 657.81,-842 657.81,-854 657.81,-854 657.81,-860 651.81,-866 645.81,-866"/>
<text text-anchor="middle" x="561.31" y="-845.8" font-family="Arial" font-size="9.00">new_deaths_Nsk_form_burial_statistics.csv</text>
</g>
<!-- reg___________________&#45;&gt;reg____________________3 -->
<g id="edge9" class="edge">
<title>reg___________________&#45;&gt;reg____________________3</title>
<path fill="none" stroke="#6b7c93" d="M400.81,-897.78C400.81,-877.63 400.81,-848 400.81,-848 400.81,-848 457.71,-848 457.71,-848"/>
<polygon fill="#6b7c93" stroke="#6b7c93" points="457.71,-850.45 464.71,-848 457.71,-845.55 457.71,-850.45"/>
</g>
<!-- reg_________________0 -->
<g id="node12" class="node">
<title>reg_________________0</title>
<path fill="#ffffff" stroke="#cbd5e0" d="M583.81,-798C583.81,-798 538.81,-798 538.81,-798 532.81,-798 526.81,-792 526.81,-786 526.81,-786 526.81,-774 526.81,-774 526.81,-768 532.81,-762 538.81,-762 538.81,-762 583.81,-762 583.81,-762 589.81,-762 595.81,-768 595.81,-774 595.81,-774 595.81,-786 595.81,-786 595.81,-792 589.81,-798 583.81,-798"/>
<text text-anchor="middle" x="561.31" y="-777.8" font-family="Arial" font-size="9.00">spb_data.csv</text>
</g>
<!-- reg________________&#45;&gt;reg_________________0 -->
<g id="edge14" class="edge">
<title>reg________________&#45;&gt;reg_________________0</title>
<path fill="none" stroke="#6b7c93" d="M352.81,-730.22C352.81,-750.37 352.81,-780 352.81,-780 352.81,-780 519.41,-780 519.41,-780"/>
<polygon fill="#6b7c93" stroke="#6b7c93" points="519.41,-782.45 526.41,-780 519.41,-777.55 519.41,-782.45"/>
</g>
<!-- reg_________________1 -->
<g id="node13" class="node">
<title>reg_________________1</title>
<path fill="#ffffff" stroke="#cbd5e0" d="M585.81,-730C585.81,-730 536.81,-730 536.81,-730 530.81,-730 524.81,-724 524.81,-718 524.81,-718 524.81,-706 524.81,-706 524.81,-700 530.81,-694 536.81,-694 536.81,-694 585.81,-694 585.81,-694 591.81,-694 597.81,-700 597.81,-706 597.81,-706 597.81,-718 597.81,-718 597.81,-724 591.81,-730 585.81,-730"/>
<text text-anchor="middle" x="561.31" y="-709.8" font-family="Arial" font-size="9.00">spb&#45;invitro.csv</text>
</g>
<!-- reg________________&#45;&gt;reg_________________1 -->
<g id="edge15" class="edge">
<title>reg________________&#45;&gt;reg_________________1</title>
<path fill="none" stroke="#6b7c93" d="M396.01,-712C396.01,-712 517.78,-712 517.78,-712"/>
<polygon fill="#6b7c93" stroke="#6b7c93" points="517.78,-714.45 524.78,-712 517.78,-709.55 517.78,-714.45"/>
</g>
<!-- reg_____________0 -->
<g id="node15" class="node">
<title>reg_____________0</title>
<path fill="#ffffff" stroke="#cbd5e0" d="M600.31,-662C600.31,-662 522.31,-662 522.31,-662 516.31,-662 510.31,-656 510.31,-650 510.31,-650 510.31,-638 510.31,-638 510.31,-632 516.31,-626 522.31,-626 522.31,-626 600.31,-626 600.31,-626 606.31,-626 612.31,-632 612.31,-638 612.31,-638 612.31,-650 612.31,-650 612.31,-656 606.31,-662 600.31,-662"/>
<text text-anchor="middle" x="561.31" y="-641.8" font-family="Arial" font-size="9.00">omsk&#45;region&#45;data.csv</text>
</g>
<!-- reg____________&#45;&gt;reg_____________0 -->
<g id="edge17" class="edge">
<title>reg____________&#45;&gt;reg_____________0</title>
<path fill="none" stroke="#6b7c93" d="M385.85,-644C385.85,-644 503.14,-644 503.14,-644"/>
<polygon fill="#6b7c93" stroke="#6b7c93" points="503.14,-646.45 510.14,-644 503.14,-641.55 503.14,-646.45"/>
</g>
<!-- reg________________0 -->
<g id="node17" class="node">
<title>reg________________0</title>
<path fill="#ffffff" stroke="#cbd5e0" d="M599.31,-594C599.31,-594 523.31,-594 523.31,-594 517.31,-594 511.31,-588 511.31,-582 511.31,-582 511.31,-570 511.31,-570 511.31,-564 517.31,-558 523.31,-558 523.31,-558 599.31,-558 599.31,-558 605.31,-558 611.31,-564 611.31,-570 611.31,-570 611.31,-582 611.31,-582 611.31,-588 605.31,-594 599.31,-594"/>
<text text-anchor="middle" x="561.31" y="-573.8" font-family="Arial" font-size="9.00">altay&#45;region&#45;data.csv</text>
</g>
<!-- reg_______________&#45;&gt;reg________________0 -->
<g id="edge19" class="edge">
<title>reg_______________&#45;&gt;reg________________0</title>
<path fill="none" stroke="#6b7c93" d="M393.51,-582C393.51,-582 504.14,-582 504.14,-582"/>
<polygon fill="#6b7c93" stroke="#6b7c93" points="504.14,-584.45 511.14,-582 504.14,-579.55 504.14,-584.45"/>
</g>
<!-- reg________________1 -->
<g id="node18" class="node">
<title>reg________________1</title>
<path fill="#ffffff" stroke="#cbd5e0" d="M621.31,-526C621.31,-526 501.31,-526 501.31,-526 495.31,-526 489.31,-520 489.31,-514 489.31,-514 489.31,-502 489.31,-502 489.31,-496 495.31,-490 501.31,-490 501.31,-490 621.31,-490 621.31,-490 627.31,-490 633.31,-496 633.31,-502 633.31,-502 633.31,-514 633.31,-514 633.31,-520 627.31,-526 621.31,-526"/>
<text text-anchor="middle" x="561.31" y="-505.8" font-family="Arial" font-size="9.00">altay&#45;region&#45;data&#45;smoothed.csv</text>
</g>
<!-- reg_______________&#45;&gt;reg________________1 -->
<g id="edge20" class="edge">
<title>reg_______________&#45;&gt;reg________________1</title>
<path fill="none" stroke="#6b7c93" d="M393.37,-570C436.88,-570 499.81,-570 499.81,-570 499.81,-570 499.81,-533.27 499.81,-533.27"/>
<polygon fill="#6b7c93" stroke="#6b7c93" points="502.26,-533.27 499.81,-526.27 497.36,-533.27 502.26,-533.27"/>
</g>
<!-- collapse&#45;&gt;future_db -->
<g id="edge31" class="edge">
<title>collapse&#45;&gt;future_db</title>
<path fill="none" stroke="#6b7c93" d="M223.81,-490.7C223.81,-465.9 223.81,-424.67 223.81,-424.67 223.81,-424.67 485.2,-424.67 485.2,-424.67"/>
<polygon fill="#6b7c93" stroke="#6b7c93" points="485.2,-427.12 492.2,-424.67 485.2,-422.22 485.2,-427.12"/>
</g>
<!-- api -->
<g id="node21" class="node">
<title>api</title>
<path fill="#faf5ff" stroke="#b794f4" d="M405.81,-274C405.81,-274 299.81,-274 299.81,-274 293.81,-274 287.81,-268 287.81,-262 287.81,-262 287.81,-250 287.81,-250 287.81,-244 293.81,-238 299.81,-238 299.81,-238 405.81,-238 405.81,-238 411.81,-238 417.81,-244 417.81,-250 417.81,-250 417.81,-262 417.81,-262 417.81,-268 411.81,-274 405.81,-274"/>
<text text-anchor="middle" x="352.81" y="-258.8" font-family="Arial" font-size="9.00">API&#45;вызовы / заглушки</text>
<text text-anchor="middle" x="352.81" y="-248.8" font-family="Arial" font-size="9.00">Modeling.js, Modeling_En.js</text>
</g>
<!-- modeling&#45;&gt;api -->
<g id="edge23" class="edge">
<title>modeling&#45;&gt;api</title>
<path fill="none" stroke="#6b7c93" d="M205.6,-327C241.6,-327 295.81,-327 295.81,-327 295.81,-327 295.81,-281.28 295.81,-281.28"/>
<polygon fill="#6b7c93" stroke="#6b7c93" points="298.26,-281.28 295.81,-274.28 293.36,-281.28 298.26,-281.28"/>
</g>
<!-- api_0 -->
<g id="node22" class="node">
<title>api_0</title>
<path fill="#faf5ff" stroke="#d6bcfa" d="M580.31,-376C580.31,-376 542.31,-376 542.31,-376 536.31,-376 530.31,-370 530.31,-364 530.31,-364 530.31,-352 530.31,-352 530.31,-346 536.31,-340 542.31,-340 542.31,-340 580.31,-340 580.31,-340 586.31,-340 592.31,-346 592.31,-352 592.31,-352 592.31,-364 592.31,-364 592.31,-370 586.31,-376 580.31,-376"/>
<text text-anchor="middle" x="561.31" y="-360.8" font-family="Arial" font-size="9.00">Modeling.js</text>
<text text-anchor="middle" x="561.31" y="-350.8" font-family="Arial" font-size="9.00">12 calls</text>
</g>
<!-- api&#45;&gt;api_0 -->
<g id="edge24" class="edge">
<title>api&#45;&gt;api_0</title>
<path fill="none" stroke="#6b7c93" d="M407.81,-274.01C407.81,-300.02 407.81,-345 407.81,-345 407.81,-345 523.25,-345 523.25,-345"/>
<polygon fill="#6b7c93" stroke="#6b7c93" points="523.25,-347.45 530.25,-345 523.25,-342.55 523.25,-347.45"/>
</g>
<!-- api_1 -->
<g id="node23" class="node">
<title>api_1</title>
<path fill="#faf5ff" stroke="#d6bcfa" d="M588.31,-308C588.31,-308 534.31,-308 534.31,-308 528.31,-308 522.31,-302 522.31,-296 522.31,-296 522.31,-284 522.31,-284 522.31,-278 528.31,-272 534.31,-272 534.31,-272 588.31,-272 588.31,-272 594.31,-272 600.31,-278 600.31,-284 600.31,-284 600.31,-296 600.31,-296 600.31,-302 594.31,-308 588.31,-308"/>
<text text-anchor="middle" x="561.31" y="-292.8" font-family="Arial" font-size="9.00">Modeling_En.js</text>
<text text-anchor="middle" x="561.31" y="-282.8" font-family="Arial" font-size="9.00">12 calls</text>
</g>
<!-- api&#45;&gt;api_1 -->
<g id="edge25" class="edge">
<title>api&#45;&gt;api_1</title>
<path fill="none" stroke="#6b7c93" d="M412.81,-274.32C412.81,-282.79 412.81,-291 412.81,-291 412.81,-291 515.29,-291 515.29,-291"/>
<polygon fill="#6b7c93" stroke="#6b7c93" points="515.29,-293.45 522.29,-291 515.29,-288.55 515.29,-293.45"/>
</g>
<!-- api_2 -->
<g id="node24" class="node">
<title>api_2</title>
<path fill="#faf5ff" stroke="#d6bcfa" d="M603.31,-240C603.31,-240 519.31,-240 519.31,-240 513.31,-240 507.31,-234 507.31,-228 507.31,-228 507.31,-216 507.31,-216 507.31,-210 513.31,-204 519.31,-204 519.31,-204 603.31,-204 603.31,-204 609.31,-204 615.31,-210 615.31,-216 615.31,-216 615.31,-228 615.31,-228 615.31,-234 609.31,-240 603.31,-240"/>
<text text-anchor="middle" x="561.31" y="-224.8" font-family="Arial" font-size="9.00">ModelingSEIR_HCD.js</text>
<text text-anchor="middle" x="561.31" y="-214.8" font-family="Arial" font-size="9.00">4 calls</text>
</g>
<!-- api&#45;&gt;api_2 -->
<g id="edge26" class="edge">
<title>api&#45;&gt;api_2</title>
<path fill="none" stroke="#6b7c93" d="M418.24,-256C463.2,-256 514.81,-256 514.81,-256 514.81,-256 514.81,-247.19 514.81,-247.19"/>
<polygon fill="#6b7c93" stroke="#6b7c93" points="517.26,-247.19 514.81,-240.19 512.36,-247.19 517.26,-247.19"/>
</g>
<!-- api_3 -->
<g id="node25" class="node">
<title>api_3</title>
<path fill="#faf5ff" stroke="#d6bcfa" d="M611.81,-172C611.81,-172 510.81,-172 510.81,-172 504.81,-172 498.81,-166 498.81,-160 498.81,-160 498.81,-148 498.81,-148 498.81,-142 504.81,-136 510.81,-136 510.81,-136 611.81,-136 611.81,-136 617.81,-136 623.81,-142 623.81,-148 623.81,-148 623.81,-160 623.81,-160 623.81,-166 617.81,-172 611.81,-172"/>
<text text-anchor="middle" x="561.31" y="-156.8" font-family="Arial" font-size="9.00">ModelingSEIR_HCD_En.js</text>
<text text-anchor="middle" x="561.31" y="-146.8" font-family="Arial" font-size="9.00">4 calls</text>
</g>
<!-- api&#45;&gt;api_3 -->
<g id="edge27" class="edge">
<title>api&#45;&gt;api_3</title>
<path fill="none" stroke="#6b7c93" d="M418.15,-248C459.35,-248 504.81,-248 504.81,-248 504.81,-248 504.81,-179.12 504.81,-179.12"/>
<polygon fill="#6b7c93" stroke="#6b7c93" points="507.26,-179.12 504.81,-172.12 502.36,-179.12 507.26,-179.12"/>
</g>
<!-- api_4 -->
<g id="node26" class="node">
<title>api_4</title>
<path fill="#faf5ff" stroke="#d6bcfa" d="M615.81,-104C615.81,-104 506.81,-104 506.81,-104 500.81,-104 494.81,-98 494.81,-92 494.81,-92 494.81,-80 494.81,-80 494.81,-74 500.81,-68 506.81,-68 506.81,-68 615.81,-68 615.81,-68 621.81,-68 627.81,-74 627.81,-80 627.81,-80 627.81,-92 627.81,-92 627.81,-98 621.81,-104 615.81,-104"/>
<text text-anchor="middle" x="561.31" y="-88.8" font-family="Arial" font-size="9.00">The_spread_of_epidemics.js</text>
<text text-anchor="middle" x="561.31" y="-78.8" font-family="Arial" font-size="9.00">12 calls</text>
</g>
<!-- api&#45;&gt;api_4 -->
<g id="edge28" class="edge">
<title>api&#45;&gt;api_4</title>
<path fill="none" stroke="#6b7c93" d="M374.81,-237.81C374.81,-193.95 374.81,-86 374.81,-86 374.81,-86 487.77,-86 487.77,-86"/>
<polygon fill="#6b7c93" stroke="#6b7c93" points="487.77,-88.45 494.77,-86 487.77,-83.55 487.77,-88.45"/>
</g>
<!-- api_5 -->
<g id="node27" class="node">
<title>api_5</title>
<path fill="#faf5ff" stroke="#d6bcfa" d="M624.31,-36C624.31,-36 498.31,-36 498.31,-36 492.31,-36 486.31,-30 486.31,-24 486.31,-24 486.31,-12 486.31,-12 486.31,-6 492.31,0 498.31,0 498.31,0 624.31,0 624.31,0 630.31,0 636.31,-6 636.31,-12 636.31,-12 636.31,-24 636.31,-24 636.31,-30 630.31,-36 624.31,-36"/>
<text text-anchor="middle" x="561.31" y="-20.8" font-family="Arial" font-size="9.00">The_spread_of_epidemics_En.js</text>
<text text-anchor="middle" x="561.31" y="-10.8" font-family="Arial" font-size="9.00">12 calls</text>
</g>
<!-- api&#45;&gt;api_5 -->
<g id="edge29" class="edge">
<title>api&#45;&gt;api_5</title>
<path fill="none" stroke="#6b7c93" d="M331.81,-237.72C331.81,-181.99 331.81,-18 331.81,-18 331.81,-18 479.16,-18 479.16,-18"/>
<polygon fill="#6b7c93" stroke="#6b7c93" points="479.16,-20.45 486.16,-18 479.16,-15.55 479.16,-20.45"/>
</g>
<!-- api&#45;&gt;future_db -->
<g id="edge32" class="edge">
<title>api&#45;&gt;future_db</title>
<path fill="none" stroke="#6b7c93" d="M418.16,-264C458.2,-264 501.81,-264 501.81,-264 501.81,-264 501.81,-400.7 501.81,-400.7"/>
<polygon fill="#6b7c93" stroke="#6b7c93" points="499.36,-400.7 501.81,-407.7 504.26,-400.7 499.36,-400.7"/>
</g>
</g>
</svg>
