<svg xmlns="http://www.w3.org/2000/svg" width="1040" height="760" viewBox="0 0 1040 760">
<defs>
  <marker id="arrow" markerWidth="10" markerHeight="10" refX="8" refY="3" orient="auto" markerUnits="strokeWidth">
    <path d="M0,0 L0,6 L9,3 z" fill="#555" />
  </marker>
</defs>
<rect width="100%" height="100%" fill="#fbfbfd"/>
<text x="520.0" y="30" text-anchor="middle" font-family="Arial" font-size="20" font-weight="700" fill="#222">Frontend endpoint → server route</text>
<rect x="30" y="70" width="260" height="70" rx="12" fill="#fff3d9" stroke="#444" stroke-width="1.5"/>
<text x="160.0" y="97.2" text-anchor="middle" font-family="Arial" font-size="13" fill="#222">The_spread_of_epidemics.js</text>
<text x="160.0" y="110.9" text-anchor="middle" font-family="Arial" font-size="13" fill="#222">Modeling.js</text>
<rect x="30" y="190" width="260" height="70" rx="12" fill="#fff3d9" stroke="#444" stroke-width="1.5"/>
<text x="160.0" y="225.0" text-anchor="middle" font-family="Arial" font-size="13" fill="#222">ModelingSEIR_HCD.js</text>
<rect x="420" y="30" width="240" height="42" rx="12" fill="#e9f7e9" stroke="#444" stroke-width="1.5"/>
<text x="540.0" y="43.2" text-anchor="middle" font-family="Arial" font-size="13" fill="#222">/article</text>
<text x="540.0" y="56.9" text-anchor="middle" font-family="Arial" font-size="13" fill="#222">GET</text>
<line x1="290" y1="105" x2="420" y2="51" stroke="#555" stroke-width="1.4" marker-end="url(#arrow)"/>
<rect x="420" y="85" width="240" height="42" rx="12" fill="#e9f7e9" stroke="#444" stroke-width="1.5"/>
<text x="540.0" y="98.2" text-anchor="middle" font-family="Arial" font-size="13" fill="#222">/data</text>
<text x="540.0" y="111.9" text-anchor="middle" font-family="Arial" font-size="13" fill="#222">POST</text>
<line x1="290" y1="105" x2="420" y2="106" stroke="#555" stroke-width="1.4" marker-end="url(#arrow)"/>
<rect x="420" y="140" width="240" height="42" rx="12" fill="#e9f7e9" stroke="#444" stroke-width="1.5"/>
<text x="540.0" y="153.2" text-anchor="middle" font-family="Arial" font-size="13" fill="#222">/api/curData</text>
<text x="540.0" y="166.8" text-anchor="middle" font-family="Arial" font-size="13" fill="#222">POST</text>
<line x1="290" y1="105" x2="420" y2="161" stroke="#555" stroke-width="1.4" marker-end="url(#arrow)"/>
<rect x="420" y="195" width="240" height="42" rx="12" fill="#e9f7e9" stroke="#444" stroke-width="1.5"/>
<text x="540.0" y="208.2" text-anchor="middle" font-family="Arial" font-size="13" fill="#222">/getMsim</text>
<text x="540.0" y="221.8" text-anchor="middle" font-family="Arial" font-size="13" fill="#222">GET</text>
<line x1="290" y1="105" x2="420" y2="216" stroke="#555" stroke-width="1.4" marker-end="url(#arrow)"/>
<rect x="420" y="250" width="240" height="42" rx="12" fill="#e9f7e9" stroke="#444" stroke-width="1.5"/>
<text x="540.0" y="263.2" text-anchor="middle" font-family="Arial" font-size="13" fill="#222">/getUMsim2</text>
<text x="540.0" y="276.8" text-anchor="middle" font-family="Arial" font-size="13" fill="#222">POST</text>
<line x1="290" y1="105" x2="420" y2="271" stroke="#555" stroke-width="1.4" marker-end="url(#arrow)"/>
<rect x="420" y="305" width="240" height="42" rx="12" fill="#ffe8e8" stroke="#444" stroke-width="1.5"/>
<text x="540.0" y="318.2" text-anchor="middle" font-family="Arial" font-size="13" fill="#222">/api/csvCovid/nd</text>
<text x="540.0" y="331.8" text-anchor="middle" font-family="Arial" font-size="13" fill="#222">? no exact route</text>
<line x1="290" y1="105" x2="420" y2="326" stroke="#555" stroke-width="1.4" marker-end="url(#arrow)"/>
<rect x="420" y="360" width="260" height="40" rx="12" fill="#e9f7e9" stroke="#444" stroke-width="1.5"/>
<text x="550.0" y="380.0" text-anchor="middle" font-family="Arial" font-size="13" fill="#222">/datesSEIR  GET</text>
<line x1="290" y1="225" x2="420" y2="380" stroke="#555" stroke-width="1.4" marker-end="url(#arrow)"/>
<rect x="420" y="410" width="260" height="40" rx="12" fill="#e9f7e9" stroke="#444" stroke-width="1.5"/>
<text x="550.0" y="430.0" text-anchor="middle" font-family="Arial" font-size="13" fill="#222">/api/res_valid  GET</text>
<line x1="290" y1="225" x2="420" y2="430" stroke="#555" stroke-width="1.4" marker-end="url(#arrow)"/>
<rect x="420" y="460" width="260" height="40" rx="12" fill="#e9f7e9" stroke="#444" stroke-width="1.5"/>
<text x="550.0" y="480.0" text-anchor="middle" font-family="Arial" font-size="13" fill="#222">/api/res_train  GET</text>
<line x1="290" y1="225" x2="420" y2="480" stroke="#555" stroke-width="1.4" marker-end="url(#arrow)"/>
<rect x="420" y="510" width="260" height="40" rx="12" fill="#e9f7e9" stroke="#444" stroke-width="1.5"/>
<text x="550.0" y="530.0" text-anchor="middle" font-family="Arial" font-size="13" fill="#222">/api/forecasts  POST</text>
<line x1="290" y1="225" x2="420" y2="530" stroke="#555" stroke-width="1.4" marker-end="url(#arrow)"/>
<rect x="420" y="560" width="260" height="40" rx="12" fill="#e9f7e9" stroke="#444" stroke-width="1.5"/>
<text x="550.0" y="580.0" text-anchor="middle" font-family="Arial" font-size="13" fill="#222">/api/forecasts_true  POST</text>
<line x1="290" y1="225" x2="420" y2="580" stroke="#555" stroke-width="1.4" marker-end="url(#arrow)"/>
<rect x="420" y="610" width="260" height="40" rx="12" fill="#e9f7e9" stroke="#444" stroke-width="1.5"/>
<text x="550.0" y="630.0" text-anchor="middle" font-family="Arial" font-size="13" fill="#222">/api/forecasts_train  POST</text>
<line x1="290" y1="225" x2="420" y2="630" stroke="#555" stroke-width="1.4" marker-end="url(#arrow)"/>
<rect x="420" y="660" width="260" height="40" rx="12" fill="#ffe8e8" stroke="#444" stroke-width="1.5"/>
<text x="550.0" y="672.2" text-anchor="middle" font-family="Arial" font-size="13" fill="#222">/api/csvCovid/nd  ? no exact</text>
<text x="550.0" y="685.9" text-anchor="middle" font-family="Arial" font-size="13" fill="#222">route</text>
<line x1="290" y1="225" x2="420" y2="680" stroke="#555" stroke-width="1.4" marker-end="url(#arrow)"/>
<rect x="760" y="170" width="240" height="110" rx="12" fill="#e9f7e9" stroke="#444" stroke-width="1.5"/>
<text x="880.0" y="201.6" text-anchor="middle" font-family="Arial" font-size="13" fill="#222">Сервер</text>
<text x="880.0" y="215.2" text-anchor="middle" font-family="Arial" font-size="13" fill="#222">server.app.covid19-modeling</text>
<text x="880.0" y="228.9" text-anchor="middle" font-family="Arial" font-size="13" fill="#222">index.js</text>
<text x="880.0" y="242.6" text-anchor="middle" font-family="Arial" font-size="13" fill="#222">Express routes</text>
<line x1="660" y1="170" x2="760" y2="225" stroke="#555" stroke-width="1.4" marker-end="url(#arrow)"/>
<line x1="680" y1="500" x2="760" y2="225" stroke="#555" stroke-width="1.4" marker-end="url(#arrow)"/>
</svg>