<?xml version="1.0" encoding="UTF-8" standalone="no"?>
<!DOCTYPE svg PUBLIC "-//W3C//DTD SVG 1.1//EN"
 "http://www.w3.org/Graphics/SVG/1.1/DTD/svg11.dtd">
<!-- Generated by graphviz version 2.42.4 (0)
 -->
<!-- Title: G Pages: 1 -->
<svg width="511pt" height="1422pt"
 viewBox="0.00 0.00 510.75 1422.20" xmlns="http://www.w3.org/2000/svg" xmlns:xlink="http://www.w3.org/1999/xlink">
<g id="graph0" class="graph" transform="scale(1 1) rotate(0) translate(21.6 1400.6)">
<title>G</title>
<polygon fill="white" stroke="transparent" points="-21.6,21.6 -21.6,-1400.6 489.15,-1400.6 489.15,21.6 -21.6,21.6"/>
<!-- frontend -->
<g id="node1" class="node">
<title>frontend</title>
<ellipse fill="#fff7e6" stroke="#d69e2e" cx="57.28" cy="-545" rx="57.05" ry="21.43"/>
<text text-anchor="middle" x="57.28" y="-547.8" font-family="Arial" font-size="9.00">frontend/src</text>
<text text-anchor="middle" x="57.28" y="-537.8" font-family="Arial" font-size="9.00">274 JS/JSX files</text>
</g>
<!-- pt_news -->
<g id="node2" class="node">
<title>pt_news</title>
<path fill="#ebf8ff" stroke="#3182ce" d="M225.05,-767C225.05,-767 195.05,-767 195.05,-767 189.05,-767 183.05,-761 183.05,-755 183.05,-755 183.05,-743 183.05,-743 183.05,-737 189.05,-731 195.05,-731 195.05,-731 225.05,-731 225.05,-731 231.05,-731 237.05,-737 237.05,-743 237.05,-743 237.05,-755 237.05,-755 237.05,-761 231.05,-767 225.05,-767"/>
<text text-anchor="middle" x="210.05" y="-751.8" font-family="Arial" font-size="9.00">news</text>
<text text-anchor="middle" x="210.05" y="-741.8" font-family="Arial" font-size="9.00">152 files</text>
</g>
<!-- frontend&#45;&gt;pt_news -->
<g id="edge1" class="edge">
<title>frontend&#45;&gt;pt_news</title>
<path fill="none" stroke="#6b7c93" d="M72.55,-565.68C72.55,-617.55 72.55,-749 72.55,-749 72.55,-749 175.89,-749 175.89,-749"/>
<polygon fill="#6b7c93" stroke="#6b7c93" points="175.89,-751.45 182.89,-749 175.89,-746.55 175.89,-751.45"/>
</g>
<!-- pt_person_or_team -->
<g id="node3" class="node">
<title>pt_person_or_team</title>
<path fill="#ebf8ff" stroke="#3182ce" d="M239.05,-903C239.05,-903 181.05,-903 181.05,-903 175.05,-903 169.05,-897 169.05,-891 169.05,-891 169.05,-879 169.05,-879 169.05,-873 175.05,-867 181.05,-867 181.05,-867 239.05,-867 239.05,-867 245.05,-867 251.05,-873 251.05,-879 251.05,-879 251.05,-891 251.05,-891 251.05,-897 245.05,-903 239.05,-903"/>
<text text-anchor="middle" x="210.05" y="-887.8" font-family="Arial" font-size="9.00">person_or_team</text>
<text text-anchor="middle" x="210.05" y="-877.8" font-family="Arial" font-size="9.00">29 files</text>
</g>
<!-- frontend&#45;&gt;pt_person_or_team -->
<g id="edge2" class="edge">
<title>frontend&#45;&gt;pt_person_or_team</title>
<path fill="none" stroke="#6b7c93" d="M43.55,-565.76C43.55,-639.58 43.55,-885 43.55,-885 43.55,-885 161.89,-885 161.89,-885"/>
<polygon fill="#6b7c93" stroke="#6b7c93" points="161.89,-887.45 168.89,-885 161.89,-882.55 161.89,-887.45"/>
</g>
<!-- pt_static_or_misc -->
<g id="node4" class="node">
<title>pt_static_or_misc</title>
<path fill="#ebf8ff" stroke="#3182ce" d="M234.55,-359C234.55,-359 185.55,-359 185.55,-359 179.55,-359 173.55,-353 173.55,-347 173.55,-347 173.55,-335 173.55,-335 173.55,-329 179.55,-323 185.55,-323 185.55,-323 234.55,-323 234.55,-323 240.55,-323 246.55,-329 246.55,-335 246.55,-335 246.55,-347 246.55,-347 246.55,-353 240.55,-359 234.55,-359"/>
<text text-anchor="middle" x="210.05" y="-343.8" font-family="Arial" font-size="9.00">static_or_misc</text>
<text text-anchor="middle" x="210.05" y="-333.8" font-family="Arial" font-size="9.00">23 files</text>
</g>
<!-- frontend&#45;&gt;pt_static_or_misc -->
<g id="edge3" class="edge">
<title>frontend&#45;&gt;pt_static_or_misc</title>
<path fill="none" stroke="#6b7c93" d="M72.55,-524.32C72.55,-472.45 72.55,-341 72.55,-341 72.55,-341 166.2,-341 166.2,-341"/>
<polygon fill="#6b7c93" stroke="#6b7c93" points="166.2,-343.45 173.2,-341 166.2,-338.55 166.2,-343.45"/>
</g>
<!-- pt_data_page -->
<g id="node5" class="node">
<title>pt_data_page</title>
<path fill="#ebf8ff" stroke="#3182ce" d="M227.55,-1141C227.55,-1141 192.55,-1141 192.55,-1141 186.55,-1141 180.55,-1135 180.55,-1129 180.55,-1129 180.55,-1117 180.55,-1117 180.55,-1111 186.55,-1105 192.55,-1105 192.55,-1105 227.55,-1105 227.55,-1105 233.55,-1105 239.55,-1111 239.55,-1117 239.55,-1117 239.55,-1129 239.55,-1129 239.55,-1135 233.55,-1141 227.55,-1141"/>
<text text-anchor="middle" x="210.05" y="-1125.8" font-family="Arial" font-size="9.00">data_page</text>
<text text-anchor="middle" x="210.05" y="-1115.8" font-family="Arial" font-size="9.00">18 files</text>
</g>
<!-- frontend&#45;&gt;pt_data_page -->
<g id="edge4" class="edge">
<title>frontend&#45;&gt;pt_data_page</title>
<path fill="none" stroke="#6b7c93" d="M14.55,-559.29C14.55,-648.29 14.55,-1123 14.55,-1123 14.55,-1123 173.36,-1123 173.36,-1123"/>
<polygon fill="#6b7c93" stroke="#6b7c93" points="173.36,-1125.45 180.36,-1123 173.36,-1120.55 173.36,-1125.45"/>
</g>
<!-- pt_modeling -->
<g id="node6" class="node">
<title>pt_modeling</title>
<path fill="#ebf8ff" stroke="#3182ce" d="M225.05,-971C225.05,-971 195.05,-971 195.05,-971 189.05,-971 183.05,-965 183.05,-959 183.05,-959 183.05,-947 183.05,-947 183.05,-941 189.05,-935 195.05,-935 195.05,-935 225.05,-935 225.05,-935 231.05,-935 237.05,-941 237.05,-947 237.05,-947 237.05,-959 237.05,-959 237.05,-965 231.05,-971 225.05,-971"/>
<text text-anchor="middle" x="210.05" y="-955.8" font-family="Arial" font-size="9.00">modeling</text>
<text text-anchor="middle" x="210.05" y="-945.8" font-family="Arial" font-size="9.00">10 files</text>
</g>
<!-- frontend&#45;&gt;pt_modeling -->
<g id="edge5" class="edge">
<title>frontend&#45;&gt;pt_modeling</title>
<path fill="none" stroke="#6b7c93" d="M29.55,-563.59C29.55,-643.41 29.55,-953 29.55,-953 29.55,-953 176.03,-953 176.03,-953"/>
<polygon fill="#6b7c93" stroke="#6b7c93" points="176.03,-955.45 183.03,-953 176.03,-950.55 176.03,-955.45"/>
</g>
<!-- pt_conference -->
<g id="node7" class="node">
<title>pt_conference</title>
<path fill="#ebf8ff" stroke="#3182ce" d="M228.05,-631C228.05,-631 192.05,-631 192.05,-631 186.05,-631 180.05,-625 180.05,-619 180.05,-619 180.05,-607 180.05,-607 180.05,-601 186.05,-595 192.05,-595 192.05,-595 228.05,-595 228.05,-595 234.05,-595 240.05,-601 240.05,-607 240.05,-607 240.05,-619 240.05,-619 240.05,-625 234.05,-631 228.05,-631"/>
<text text-anchor="middle" x="210.05" y="-615.8" font-family="Arial" font-size="9.00">conference</text>
<text text-anchor="middle" x="210.05" y="-605.8" font-family="Arial" font-size="9.00">10 files</text>
</g>
<!-- frontend&#45;&gt;pt_conference -->
<g id="edge6" class="edge">
<title>frontend&#45;&gt;pt_conference</title>
<path fill="none" stroke="#6b7c93" d="M100.55,-559.09C100.55,-579.01 100.55,-613 100.55,-613 100.55,-613 172.84,-613 172.84,-613"/>
<polygon fill="#6b7c93" stroke="#6b7c93" points="172.84,-615.45 179.84,-613 172.84,-610.55 172.84,-615.45"/>
</g>
<!-- pt_covid_or_epidemics -->
<g id="node8" class="node">
<title>pt_covid_or_epidemics</title>
<path fill="#ebf8ff" stroke="#3182ce" d="M246.55,-563C246.55,-563 173.55,-563 173.55,-563 167.55,-563 161.55,-557 161.55,-551 161.55,-551 161.55,-539 161.55,-539 161.55,-533 167.55,-527 173.55,-527 173.55,-527 246.55,-527 246.55,-527 252.55,-527 258.55,-533 258.55,-539 258.55,-539 258.55,-551 258.55,-551 258.55,-557 252.55,-563 246.55,-563"/>
<text text-anchor="middle" x="210.05" y="-547.8" font-family="Arial" font-size="9.00">covid_or_epidemics</text>
<text text-anchor="middle" x="210.05" y="-537.8" font-family="Arial" font-size="9.00">8 files</text>
</g>
<!-- frontend&#45;&gt;pt_covid_or_epidemics -->
<g id="edge7" class="edge">
<title>frontend&#45;&gt;pt_covid_or_epidemics</title>
<path fill="none" stroke="#6b7c93" d="M114.6,-545C114.6,-545 154.41,-545 154.41,-545"/>
<polygon fill="#6b7c93" stroke="#6b7c93" points="154.41,-547.45 161.41,-545 154.41,-542.55 154.41,-547.45"/>
</g>
<!-- pt_tuberculosis -->
<g id="node9" class="node">
<title>pt_tuberculosis</title>
<path fill="#ebf8ff" stroke="#3182ce" d="M230.05,-495C230.05,-495 190.05,-495 190.05,-495 184.05,-495 178.05,-489 178.05,-483 178.05,-483 178.05,-471 178.05,-471 178.05,-465 184.05,-459 190.05,-459 190.05,-459 230.05,-459 230.05,-459 236.05,-459 242.05,-465 242.05,-471 242.05,-471 242.05,-483 242.05,-483 242.05,-489 236.05,-495 230.05,-495"/>
<text text-anchor="middle" x="210.05" y="-479.8" font-family="Arial" font-size="9.00">tuberculosis</text>
<text text-anchor="middle" x="210.05" y="-469.8" font-family="Arial" font-size="9.00">7 files</text>
</g>
<!-- frontend&#45;&gt;pt_tuberculosis -->
<g id="edge8" class="edge">
<title>frontend&#45;&gt;pt_tuberculosis</title>
<path fill="none" stroke="#6b7c93" d="M100.55,-530.91C100.55,-510.99 100.55,-477 100.55,-477 100.55,-477 170.79,-477 170.79,-477"/>
<polygon fill="#6b7c93" stroke="#6b7c93" points="170.79,-479.45 177.79,-477 170.79,-474.55 170.79,-479.45"/>
</g>
<!-- pt_publication -->
<g id="node10" class="node">
<title>pt_publication</title>
<path fill="#ebf8ff" stroke="#3182ce" d="M228.05,-835C228.05,-835 192.05,-835 192.05,-835 186.05,-835 180.05,-829 180.05,-823 180.05,-823 180.05,-811 180.05,-811 180.05,-805 186.05,-799 192.05,-799 192.05,-799 228.05,-799 228.05,-799 234.05,-799 240.05,-805 240.05,-811 240.05,-811 240.05,-823 240.05,-823 240.05,-829 234.05,-835 228.05,-835"/>
<text text-anchor="middle" x="210.05" y="-819.8" font-family="Arial" font-size="9.00">publication</text>
<text text-anchor="middle" x="210.05" y="-809.8" font-family="Arial" font-size="9.00">6 files</text>
</g>
<!-- frontend&#45;&gt;pt_publication -->
<g id="edge9" class="edge">
<title>frontend&#45;&gt;pt_publication</title>
<path fill="none" stroke="#6b7c93" d="M57.55,-566.34C57.55,-630.46 57.55,-817 57.55,-817 57.55,-817 172.92,-817 172.92,-817"/>
<polygon fill="#6b7c93" stroke="#6b7c93" points="172.92,-819.45 179.92,-817 172.92,-814.55 172.92,-819.45"/>
</g>
<!-- pt_links -->
<g id="node11" class="node">
<title>pt_links</title>
<path fill="#ebf8ff" stroke="#3182ce" d="M225.05,-223C225.05,-223 195.05,-223 195.05,-223 189.05,-223 183.05,-217 183.05,-211 183.05,-211 183.05,-199 183.05,-199 183.05,-193 189.05,-187 195.05,-187 195.05,-187 225.05,-187 225.05,-187 231.05,-187 237.05,-193 237.05,-199 237.05,-199 237.05,-211 237.05,-211 237.05,-217 231.05,-223 225.05,-223"/>
<text text-anchor="middle" x="210.05" y="-207.8" font-family="Arial" font-size="9.00">links</text>
<text text-anchor="middle" x="210.05" y="-197.8" font-family="Arial" font-size="9.00">2 files</text>
</g>
<!-- frontend&#45;&gt;pt_links -->
<g id="edge10" class="edge">
<title>frontend&#45;&gt;pt_links</title>
<path fill="none" stroke="#6b7c93" d="M43.55,-524.24C43.55,-450.42 43.55,-205 43.55,-205 43.55,-205 175.93,-205 175.93,-205"/>
<polygon fill="#6b7c93" stroke="#6b7c93" points="175.93,-207.45 182.93,-205 175.93,-202.55 175.93,-207.45"/>
</g>
<!-- pt_footer -->
<g id="node12" class="node">
<title>pt_footer</title>
<path fill="#ebf8ff" stroke="#3182ce" d="M225.05,-155C225.05,-155 195.05,-155 195.05,-155 189.05,-155 183.05,-149 183.05,-143 183.05,-143 183.05,-131 183.05,-131 183.05,-125 189.05,-119 195.05,-119 195.05,-119 225.05,-119 225.05,-119 231.05,-119 237.05,-125 237.05,-131 237.05,-131 237.05,-143 237.05,-143 237.05,-149 231.05,-155 225.05,-155"/>
<text text-anchor="middle" x="210.05" y="-139.8" font-family="Arial" font-size="9.00">footer</text>
<text text-anchor="middle" x="210.05" y="-129.8" font-family="Arial" font-size="9.00">2 files</text>
</g>
<!-- frontend&#45;&gt;pt_footer -->
<g id="edge11" class="edge">
<title>frontend&#45;&gt;pt_footer</title>
<path fill="none" stroke="#6b7c93" d="M29.55,-526.41C29.55,-446.59 29.55,-137 29.55,-137 29.55,-137 176.03,-137 176.03,-137"/>
<polygon fill="#6b7c93" stroke="#6b7c93" points="176.03,-139.45 183.03,-137 176.03,-134.55 176.03,-139.45"/>
</g>
<!-- pt_medicine -->
<g id="node13" class="node">
<title>pt_medicine</title>
<path fill="#ebf8ff" stroke="#3182ce" d="M225.05,-427C225.05,-427 195.05,-427 195.05,-427 189.05,-427 183.05,-421 183.05,-415 183.05,-415 183.05,-403 183.05,-403 183.05,-397 189.05,-391 195.05,-391 195.05,-391 225.05,-391 225.05,-391 231.05,-391 237.05,-397 237.05,-403 237.05,-403 237.05,-415 237.05,-415 237.05,-421 231.05,-427 225.05,-427"/>
<text text-anchor="middle" x="210.05" y="-411.8" font-family="Arial" font-size="9.00">medicine</text>
<text text-anchor="middle" x="210.05" y="-401.8" font-family="Arial" font-size="9.00">2 files</text>
</g>
<!-- frontend&#45;&gt;pt_medicine -->
<g id="edge12" class="edge">
<title>frontend&#45;&gt;pt_medicine</title>
<path fill="none" stroke="#6b7c93" d="M86.55,-526.66C86.55,-489.54 86.55,-409 86.55,-409 86.55,-409 175.95,-409 175.95,-409"/>
<polygon fill="#6b7c93" stroke="#6b7c93" points="175.95,-411.45 182.95,-409 175.95,-406.55 175.95,-411.45"/>
</g>
<!-- pt_home -->
<g id="node14" class="node">
<title>pt_home</title>
<path fill="#ebf8ff" stroke="#3182ce" d="M225.05,-699C225.05,-699 195.05,-699 195.05,-699 189.05,-699 183.05,-693 183.05,-687 183.05,-687 183.05,-675 183.05,-675 183.05,-669 189.05,-663 195.05,-663 195.05,-663 225.05,-663 225.05,-663 231.05,-663 237.05,-669 237.05,-675 237.05,-675 237.05,-687 237.05,-687 237.05,-693 231.05,-699 225.05,-699"/>
<text text-anchor="middle" x="210.05" y="-683.8" font-family="Arial" font-size="9.00">home</text>
<text text-anchor="middle" x="210.05" y="-673.8" font-family="Arial" font-size="9.00">2 files</text>
</g>
<!-- frontend&#45;&gt;pt_home -->
<g id="edge13" class="edge">
<title>frontend&#45;&gt;pt_home</title>
<path fill="none" stroke="#6b7c93" d="M86.55,-563.34C86.55,-600.46 86.55,-681 86.55,-681 86.55,-681 175.95,-681 175.95,-681"/>
<polygon fill="#6b7c93" stroke="#6b7c93" points="175.95,-683.45 182.95,-681 175.95,-678.55 175.95,-683.45"/>
</g>
<!-- pt_social_processes -->
<g id="node15" class="node">
<title>pt_social_processes</title>
<path fill="#ebf8ff" stroke="#3182ce" d="M241.05,-291C241.05,-291 179.05,-291 179.05,-291 173.05,-291 167.05,-285 167.05,-279 167.05,-279 167.05,-267 167.05,-267 167.05,-261 173.05,-255 179.05,-255 179.05,-255 241.05,-255 241.05,-255 247.05,-255 253.05,-261 253.05,-267 253.05,-267 253.05,-279 253.05,-279 253.05,-285 247.05,-291 241.05,-291"/>
<text text-anchor="middle" x="210.05" y="-275.8" font-family="Arial" font-size="9.00">social_processes</text>
<text text-anchor="middle" x="210.05" y="-265.8" font-family="Arial" font-size="9.00">2 files</text>
</g>
<!-- frontend&#45;&gt;pt_social_processes -->
<g id="edge14" class="edge">
<title>frontend&#45;&gt;pt_social_processes</title>
<path fill="none" stroke="#6b7c93" d="M57.55,-523.66C57.55,-459.54 57.55,-273 57.55,-273 57.55,-273 159.76,-273 159.76,-273"/>
<polygon fill="#6b7c93" stroke="#6b7c93" points="159.76,-275.45 166.76,-273 159.76,-270.55 159.76,-275.45"/>
</g>
<!-- pt_app_router -->
<g id="node16" class="node">
<title>pt_app_router</title>
<path fill="#ebf8ff" stroke="#3182ce" d="M228.05,-70C228.05,-70 192.05,-70 192.05,-70 186.05,-70 180.05,-64 180.05,-58 180.05,-58 180.05,-46 180.05,-46 180.05,-40 186.05,-34 192.05,-34 192.05,-34 228.05,-34 228.05,-34 234.05,-34 240.05,-40 240.05,-46 240.05,-46 240.05,-58 240.05,-58 240.05,-64 234.05,-70 228.05,-70"/>
<text text-anchor="middle" x="210.05" y="-54.8" font-family="Arial" font-size="9.00">app_router</text>
<text text-anchor="middle" x="210.05" y="-44.8" font-family="Arial" font-size="9.00">1 files</text>
</g>
<!-- frontend&#45;&gt;pt_app_router -->
<g id="edge15" class="edge">
<title>frontend&#45;&gt;pt_app_router</title>
<path fill="none" stroke="#6b7c93" d="M14.55,-530.78C14.55,-449.94 14.55,-52 14.55,-52 14.55,-52 172.93,-52 172.93,-52"/>
<polygon fill="#6b7c93" stroke="#6b7c93" points="172.93,-54.45 179.93,-52 172.93,-49.55 172.93,-54.45"/>
</g>
<!-- db_dataset_files -->
<g id="node17" class="node">
<title>db_dataset_files</title>
<path fill="#e6fffa" stroke="#319795" d="M407.55,-903C407.55,-903 365.55,-903 365.55,-903 359.55,-903 353.55,-897 353.55,-891 353.55,-891 353.55,-879 353.55,-879 353.55,-873 359.55,-867 365.55,-867 365.55,-867 407.55,-867 407.55,-867 413.55,-867 419.55,-873 419.55,-879 419.55,-879 419.55,-891 419.55,-891 419.55,-897 413.55,-903 407.55,-903"/>
<text text-anchor="middle" x="386.55" y="-882.8" font-family="Arial" font-size="9.00">dataset_files</text>
</g>
<!-- pt_news&#45;&gt;db_dataset_files -->
<g id="edge16" class="edge">
<title>pt_news&#45;&gt;db_dataset_files</title>
<path fill="none" stroke="#6b7c93" d="M237.08,-755C249.08,-755 260.55,-755 260.55,-755 260.55,-755 260.55,-883 260.55,-883 260.55,-883 346.45,-883 346.45,-883"/>
<polygon fill="#6b7c93" stroke="#6b7c93" points="346.45,-885.45 353.45,-883 346.45,-880.55 346.45,-885.45"/>
</g>
<!-- db_media_assets -->
<g id="node18" class="node">
<title>db_media_assets</title>
<path fill="#e6fffa" stroke="#319795" d="M410.55,-495C410.55,-495 362.55,-495 362.55,-495 356.55,-495 350.55,-489 350.55,-483 350.55,-483 350.55,-471 350.55,-471 350.55,-465 356.55,-459 362.55,-459 362.55,-459 410.55,-459 410.55,-459 416.55,-459 422.55,-465 422.55,-471 422.55,-471 422.55,-483 422.55,-483 422.55,-489 416.55,-495 410.55,-495"/>
<text text-anchor="middle" x="386.55" y="-474.8" font-family="Arial" font-size="9.00">media_assets</text>
</g>
<!-- pt_news&#45;&gt;db_media_assets -->
<g id="edge17" class="edge">
<title>pt_news&#45;&gt;db_media_assets</title>
<path fill="none" stroke="#6b7c93" d="M237.3,-743C264.59,-743 302.55,-743 302.55,-743 302.55,-743 302.55,-485.4 302.55,-485.4 302.55,-485.4 343.44,-485.4 343.44,-485.4"/>
<polygon fill="#6b7c93" stroke="#6b7c93" points="343.44,-487.85 350.44,-485.4 343.44,-482.95 343.44,-487.85"/>
</g>
<!-- db_news_items -->
<g id="node19" class="node">
<title>db_news_items</title>
<path fill="#e6fffa" stroke="#319795" d="M406.05,-631C406.05,-631 367.05,-631 367.05,-631 361.05,-631 355.05,-625 355.05,-619 355.05,-619 355.05,-607 355.05,-607 355.05,-601 361.05,-595 367.05,-595 367.05,-595 406.05,-595 406.05,-595 412.05,-595 418.05,-601 418.05,-607 418.05,-607 418.05,-619 418.05,-619 418.05,-625 412.05,-631 406.05,-631"/>
<text text-anchor="middle" x="386.55" y="-610.8" font-family="Arial" font-size="9.00">news_items</text>
</g>
<!-- pt_news&#45;&gt;db_news_items -->
<g id="edge18" class="edge">
<title>pt_news&#45;&gt;db_news_items</title>
<path fill="none" stroke="#6b7c93" d="M237.34,-737C242.62,-737 246.55,-737 246.55,-737 246.55,-737 246.55,-623.8 246.55,-623.8 246.55,-623.8 347.78,-623.8 347.78,-623.8"/>
<polygon fill="#6b7c93" stroke="#6b7c93" points="347.78,-626.25 354.78,-623.8 347.78,-621.35 347.78,-626.25"/>
</g>
<!-- pt_person_or_team&#45;&gt;db_dataset_files -->
<g id="edge19" class="edge">
<title>pt_person_or_team&#45;&gt;db_dataset_files</title>
<path fill="none" stroke="#6b7c93" d="M251.43,-891C251.43,-891 346.39,-891 346.39,-891"/>
<polygon fill="#6b7c93" stroke="#6b7c93" points="346.39,-893.45 353.39,-891 346.39,-888.55 346.39,-893.45"/>
</g>
<!-- pt_person_or_team&#45;&gt;db_media_assets -->
<g id="edge20" class="edge">
<title>pt_person_or_team&#45;&gt;db_media_assets</title>
<path fill="none" stroke="#6b7c93" d="M251.26,-875C265.31,-875 277.55,-875 277.55,-875 277.55,-875 277.55,-487.8 277.55,-487.8 277.55,-487.8 343.26,-487.8 343.26,-487.8"/>
<polygon fill="#6b7c93" stroke="#6b7c93" points="343.26,-490.25 350.26,-487.8 343.26,-485.35 343.26,-490.25"/>
</g>
<!-- db_people -->
<g id="node20" class="node">
<title>db_people</title>
<path fill="#e6fffa" stroke="#319795" d="M401.55,-835C401.55,-835 371.55,-835 371.55,-835 365.55,-835 359.55,-829 359.55,-823 359.55,-823 359.55,-811 359.55,-811 359.55,-805 365.55,-799 371.55,-799 371.55,-799 401.55,-799 401.55,-799 407.55,-799 413.55,-805 413.55,-811 413.55,-811 413.55,-823 413.55,-823 413.55,-829 407.55,-835 401.55,-835"/>
<text text-anchor="middle" x="386.55" y="-814.8" font-family="Arial" font-size="9.00">people</text>
</g>
<!-- pt_person_or_team&#45;&gt;db_people -->
<g id="edge21" class="edge">
<title>pt_person_or_team&#45;&gt;db_people</title>
<path fill="none" stroke="#6b7c93" d="M249.55,-866.9C249.55,-850.14 249.55,-827.8 249.55,-827.8 249.55,-827.8 352.48,-827.8 352.48,-827.8"/>
<polygon fill="#6b7c93" stroke="#6b7c93" points="352.48,-830.25 359.48,-827.8 352.48,-825.35 352.48,-830.25"/>
</g>
<!-- db_person_profiles -->
<g id="node21" class="node">
<title>db_person_profiles</title>
<path fill="#e6fffa" stroke="#319795" d="M413.55,-971C413.55,-971 359.55,-971 359.55,-971 353.55,-971 347.55,-965 347.55,-959 347.55,-959 347.55,-947 347.55,-947 347.55,-941 353.55,-935 359.55,-935 359.55,-935 413.55,-935 413.55,-935 419.55,-935 425.55,-941 425.55,-947 425.55,-947 425.55,-959 425.55,-959 425.55,-965 419.55,-971 413.55,-971"/>
<text text-anchor="middle" x="386.55" y="-950.8" font-family="Arial" font-size="9.00">person_profiles</text>
</g>
<!-- pt_person_or_team&#45;&gt;db_person_profiles -->
<g id="edge22" class="edge">
<title>pt_person_or_team&#45;&gt;db_person_profiles</title>
<path fill="none" stroke="#6b7c93" d="M247.55,-903.23C247.55,-922.59 247.55,-950.43 247.55,-950.43 247.55,-950.43 340.46,-950.43 340.46,-950.43"/>
<polygon fill="#6b7c93" stroke="#6b7c93" points="340.46,-952.88 347.46,-950.43 340.46,-947.98 340.46,-952.88"/>
</g>
<!-- pt_static_or_misc&#45;&gt;db_media_assets -->
<g id="edge23" class="edge">
<title>pt_static_or_misc&#45;&gt;db_media_assets</title>
<path fill="none" stroke="#6b7c93" d="M246.86,-354.5C265.63,-354.5 284.55,-354.5 284.55,-354.5 284.55,-354.5 284.55,-468.6 284.55,-468.6 284.55,-468.6 343.3,-468.6 343.3,-468.6"/>
<polygon fill="#6b7c93" stroke="#6b7c93" points="343.3,-471.05 350.3,-468.6 343.3,-466.15 343.3,-471.05"/>
</g>
<!-- db_page_blocks -->
<g id="node22" class="node">
<title>db_page_blocks</title>
<path fill="#e6fffa" stroke="#319795" d="M408.05,-359C408.05,-359 365.05,-359 365.05,-359 359.05,-359 353.05,-353 353.05,-347 353.05,-347 353.05,-335 353.05,-335 353.05,-329 359.05,-323 365.05,-323 365.05,-323 408.05,-323 408.05,-323 414.05,-323 420.05,-329 420.05,-335 420.05,-335 420.05,-347 420.05,-347 420.05,-353 414.05,-359 408.05,-359"/>
<text text-anchor="middle" x="386.55" y="-338.8" font-family="Arial" font-size="9.00">page_blocks</text>
</g>
<!-- pt_static_or_misc&#45;&gt;db_page_blocks -->
<g id="edge24" class="edge">
<title>pt_static_or_misc&#45;&gt;db_page_blocks</title>
<path fill="none" stroke="#6b7c93" d="M246.62,-327.5C246.62,-327.5 346.01,-327.5 346.01,-327.5"/>
<polygon fill="#6b7c93" stroke="#6b7c93" points="346.01,-329.95 353.01,-327.5 346.01,-325.05 346.01,-329.95"/>
</g>
<!-- db_pages -->
<g id="node23" class="node">
<title>db_pages</title>
<path fill="#e6fffa" stroke="#319795" d="M401.55,-427C401.55,-427 371.55,-427 371.55,-427 365.55,-427 359.55,-421 359.55,-415 359.55,-415 359.55,-403 359.55,-403 359.55,-397 365.55,-391 371.55,-391 371.55,-391 401.55,-391 401.55,-391 407.55,-391 413.55,-397 413.55,-403 413.55,-403 413.55,-415 413.55,-415 413.55,-421 407.55,-427 401.55,-427"/>
<text text-anchor="middle" x="386.55" y="-406.8" font-family="Arial" font-size="9.00">pages</text>
</g>
<!-- pt_static_or_misc&#45;&gt;db_pages -->
<g id="edge25" class="edge">
<title>pt_static_or_misc&#45;&gt;db_pages</title>
<path fill="none" stroke="#6b7c93" d="M246.8,-350C255.62,-350 262.55,-350 262.55,-350 262.55,-350 262.55,-403 262.55,-403 262.55,-403 352.34,-403 352.34,-403"/>
<polygon fill="#6b7c93" stroke="#6b7c93" points="352.34,-405.45 359.34,-403 352.34,-400.55 352.34,-405.45"/>
</g>
<!-- pt_data_page&#45;&gt;db_dataset_files -->
<g id="edge27" class="edge">
<title>pt_data_page&#45;&gt;db_dataset_files</title>
<path fill="none" stroke="#6b7c93" d="M239.69,-1117.67C267.41,-1117.67 304.55,-1117.67 304.55,-1117.67 304.55,-1117.67 304.55,-899 304.55,-899 304.55,-899 346.2,-899 346.2,-899"/>
<polygon fill="#6b7c93" stroke="#6b7c93" points="346.2,-901.45 353.2,-899 346.2,-896.55 346.2,-901.45"/>
</g>
<!-- pt_data_page&#45;&gt;db_media_assets -->
<g id="edge28" class="edge">
<title>pt_data_page&#45;&gt;db_media_assets</title>
<path fill="none" stroke="#6b7c93" d="M239.72,-1128.33C270.92,-1128.33 315.55,-1128.33 315.55,-1128.33 315.55,-1128.33 315.55,-492.6 315.55,-492.6 315.55,-492.6 343.22,-492.6 343.22,-492.6"/>
<polygon fill="#6b7c93" stroke="#6b7c93" points="343.22,-495.05 350.22,-492.6 343.22,-490.15 343.22,-495.05"/>
</g>
<!-- db_dataset_file_columns -->
<g id="node24" class="node">
<title>db_dataset_file_columns</title>
<path fill="#e6fffa" stroke="#319795" d="M425.55,-1243C425.55,-1243 347.55,-1243 347.55,-1243 341.55,-1243 335.55,-1237 335.55,-1231 335.55,-1231 335.55,-1219 335.55,-1219 335.55,-1213 341.55,-1207 347.55,-1207 347.55,-1207 425.55,-1207 425.55,-1207 431.55,-1207 437.55,-1213 437.55,-1219 437.55,-1219 437.55,-1231 437.55,-1231 437.55,-1237 431.55,-1243 425.55,-1243"/>
<text text-anchor="middle" x="386.55" y="-1222.8" font-family="Arial" font-size="9.00">dataset_file_columns</text>
</g>
<!-- pt_data_page&#45;&gt;db_dataset_file_columns -->
<g id="edge26" class="edge">
<title>pt_data_page&#45;&gt;db_dataset_file_columns</title>
<path fill="none" stroke="#6b7c93" d="M225.55,-1141.24C225.55,-1170.57 225.55,-1225 225.55,-1225 225.55,-1225 328.17,-1225 328.17,-1225"/>
<polygon fill="#6b7c93" stroke="#6b7c93" points="328.17,-1227.45 335.17,-1225 328.17,-1222.55 328.17,-1227.45"/>
</g>
<!-- db_regions -->
<g id="node25" class="node">
<title>db_regions</title>
<path fill="#e6fffa" stroke="#319795" d="M401.55,-1379C401.55,-1379 371.55,-1379 371.55,-1379 365.55,-1379 359.55,-1373 359.55,-1367 359.55,-1367 359.55,-1355 359.55,-1355 359.55,-1349 365.55,-1343 371.55,-1343 371.55,-1343 401.55,-1343 401.55,-1343 407.55,-1343 413.55,-1349 413.55,-1355 413.55,-1355 413.55,-1367 413.55,-1367 413.55,-1373 407.55,-1379 401.55,-1379"/>
<text text-anchor="middle" x="386.55" y="-1358.8" font-family="Arial" font-size="9.00">regions</text>
</g>
<!-- pt_data_page&#45;&gt;db_regions -->
<g id="edge29" class="edge">
<title>pt_data_page&#45;&gt;db_regions</title>
<path fill="none" stroke="#6b7c93" d="M195.55,-1141.28C195.55,-1197.01 195.55,-1361 195.55,-1361 195.55,-1361 352.19,-1361 352.19,-1361"/>
<polygon fill="#6b7c93" stroke="#6b7c93" points="352.19,-1363.45 359.19,-1361 352.19,-1358.55 352.19,-1363.45"/>
</g>
<!-- db_timeseries -->
<g id="node26" class="node">
<title>db_timeseries</title>
<path fill="#e6fffa" stroke="#319795" d="M403.05,-1311C403.05,-1311 370.05,-1311 370.05,-1311 364.05,-1311 358.05,-1305 358.05,-1299 358.05,-1299 358.05,-1287 358.05,-1287 358.05,-1281 364.05,-1275 370.05,-1275 370.05,-1275 403.05,-1275 403.05,-1275 409.05,-1275 415.05,-1281 415.05,-1287 415.05,-1287 415.05,-1299 415.05,-1299 415.05,-1305 409.05,-1311 403.05,-1311"/>
<text text-anchor="middle" x="386.55" y="-1290.8" font-family="Arial" font-size="9.00">timeseries</text>
</g>
<!-- pt_data_page&#45;&gt;db_timeseries -->
<g id="edge30" class="edge">
<title>pt_data_page&#45;&gt;db_timeseries</title>
<path fill="none" stroke="#6b7c93" d="M210.55,-1141.19C210.55,-1185.05 210.55,-1293 210.55,-1293 210.55,-1293 350.88,-1293 350.88,-1293"/>
<polygon fill="#6b7c93" stroke="#6b7c93" points="350.88,-1295.45 357.88,-1293 350.88,-1290.55 350.88,-1295.45"/>
</g>
<!-- pt_modeling&#45;&gt;db_dataset_files -->
<g id="edge31" class="edge">
<title>pt_modeling&#45;&gt;db_dataset_files</title>
<path fill="none" stroke="#6b7c93" d="M237.13,-940.14C247.8,-940.14 257.55,-940.14 257.55,-940.14 257.55,-940.14 257.55,-895 257.55,-895 257.55,-895 346.33,-895 346.33,-895"/>
<polygon fill="#6b7c93" stroke="#6b7c93" points="346.33,-897.45 353.33,-895 346.33,-892.55 346.33,-897.45"/>
</g>
<!-- pt_modeling&#45;&gt;db_media_assets -->
<g id="edge32" class="edge">
<title>pt_modeling&#45;&gt;db_media_assets</title>
<path fill="none" stroke="#6b7c93" d="M237.12,-945.29C256.27,-945.29 278.55,-945.29 278.55,-945.29 278.55,-945.29 278.55,-490.2 278.55,-490.2 278.55,-490.2 343.29,-490.2 343.29,-490.2"/>
<polygon fill="#6b7c93" stroke="#6b7c93" points="343.29,-492.65 350.29,-490.2 343.29,-487.75 343.29,-492.65"/>
</g>
<!-- db_model_descriptions -->
<g id="node27" class="node">
<title>db_model_descriptions</title>
<path fill="#e6fffa" stroke="#319795" d="M422.05,-699C422.05,-699 351.05,-699 351.05,-699 345.05,-699 339.05,-693 339.05,-687 339.05,-687 339.05,-675 339.05,-675 339.05,-669 345.05,-663 351.05,-663 351.05,-663 422.05,-663 422.05,-663 428.05,-663 434.05,-669 434.05,-675 434.05,-675 434.05,-687 434.05,-687 434.05,-693 428.05,-699 422.05,-699"/>
<text text-anchor="middle" x="386.55" y="-678.8" font-family="Arial" font-size="9.00">model_descriptions</text>
</g>
<!-- pt_modeling&#45;&gt;db_model_descriptions -->
<g id="edge33" class="edge">
<title>pt_modeling&#45;&gt;db_model_descriptions</title>
<path fill="none" stroke="#6b7c93" d="M237.18,-955.57C275.95,-955.57 342.55,-955.57 342.55,-955.57 342.55,-955.57 342.55,-706.02 342.55,-706.02"/>
<polygon fill="#6b7c93" stroke="#6b7c93" points="345,-706.02 342.55,-699.02 340.1,-706.02 345,-706.02"/>
</g>
<!-- db_model_parameters -->
<g id="node28" class="node">
<title>db_model_parameters</title>
<path fill="#e6fffa" stroke="#319795" d="M420.55,-1175C420.55,-1175 352.55,-1175 352.55,-1175 346.55,-1175 340.55,-1169 340.55,-1163 340.55,-1163 340.55,-1151 340.55,-1151 340.55,-1145 346.55,-1139 352.55,-1139 352.55,-1139 420.55,-1139 420.55,-1139 426.55,-1139 432.55,-1145 432.55,-1151 432.55,-1151 432.55,-1163 432.55,-1163 432.55,-1169 426.55,-1175 420.55,-1175"/>
<text text-anchor="middle" x="386.55" y="-1154.8" font-family="Arial" font-size="9.00">model_parameters</text>
</g>
<!-- pt_modeling&#45;&gt;db_model_parameters -->
<g id="edge34" class="edge">
<title>pt_modeling&#45;&gt;db_model_parameters</title>
<path fill="none" stroke="#6b7c93" d="M237.09,-965.86C240.9,-965.86 243.55,-965.86 243.55,-965.86 243.55,-965.86 243.55,-1158 243.55,-1158 243.55,-1158 333.52,-1158 333.52,-1158"/>
<polygon fill="#6b7c93" stroke="#6b7c93" points="333.52,-1160.45 340.52,-1158 333.52,-1155.55 333.52,-1160.45"/>
</g>
<!-- db_pages_page_blocks -->
<g id="node29" class="node">
<title>db_pages_page_blocks</title>
<path fill="#e6fffa" stroke="#319795" d="M422.05,-1107C422.05,-1107 351.05,-1107 351.05,-1107 345.05,-1107 339.05,-1101 339.05,-1095 339.05,-1095 339.05,-1083 339.05,-1083 339.05,-1077 345.05,-1071 351.05,-1071 351.05,-1071 422.05,-1071 422.05,-1071 428.05,-1071 434.05,-1077 434.05,-1083 434.05,-1083 434.05,-1095 434.05,-1095 434.05,-1101 428.05,-1107 422.05,-1107"/>
<text text-anchor="middle" x="386.55" y="-1086.8" font-family="Arial" font-size="9.00">pages/page_blocks</text>
</g>
<!-- pt_modeling&#45;&gt;db_pages_page_blocks -->
<g id="edge35" class="edge">
<title>pt_modeling&#45;&gt;db_pages_page_blocks</title>
<path fill="none" stroke="#6b7c93" d="M237.15,-960.71C276.69,-960.71 345.55,-960.71 345.55,-960.71 345.55,-960.71 345.55,-1063.89 345.55,-1063.89"/>
<polygon fill="#6b7c93" stroke="#6b7c93" points="343.1,-1063.89 345.55,-1070.89 348,-1063.89 343.1,-1063.89"/>
</g>
<!-- db_scenario_runs -->
<g id="node30" class="node">
<title>db_scenario_runs</title>
<path fill="#e6fffa" stroke="#319795" d="M411.05,-1039C411.05,-1039 362.05,-1039 362.05,-1039 356.05,-1039 350.05,-1033 350.05,-1027 350.05,-1027 350.05,-1015 350.05,-1015 350.05,-1009 356.05,-1003 362.05,-1003 362.05,-1003 411.05,-1003 411.05,-1003 417.05,-1003 423.05,-1009 423.05,-1015 423.05,-1015 423.05,-1027 423.05,-1027 423.05,-1033 417.05,-1039 411.05,-1039"/>
<text text-anchor="middle" x="386.55" y="-1018.8" font-family="Arial" font-size="9.00">scenario_runs</text>
</g>
<!-- pt_modeling&#45;&gt;db_scenario_runs -->
<g id="edge36" class="edge">
<title>pt_modeling&#45;&gt;db_scenario_runs</title>
<path fill="none" stroke="#6b7c93" d="M210.55,-971.22C210.55,-991.37 210.55,-1021 210.55,-1021 210.55,-1021 342.66,-1021 342.66,-1021"/>
<polygon fill="#6b7c93" stroke="#6b7c93" points="342.66,-1023.45 349.66,-1021 342.66,-1018.55 342.66,-1023.45"/>
</g>
<!-- pt_conference&#45;&gt;db_media_assets -->
<g id="edge38" class="edge">
<title>pt_conference&#45;&gt;db_media_assets</title>
<path fill="none" stroke="#6b7c93" d="M240.51,-602.2C266.11,-602.2 298.55,-602.2 298.55,-602.2 298.55,-602.2 298.55,-480.6 298.55,-480.6 298.55,-480.6 343.5,-480.6 343.5,-480.6"/>
<polygon fill="#6b7c93" stroke="#6b7c93" points="343.5,-483.05 350.5,-480.6 343.5,-478.15 343.5,-483.05"/>
</g>
<!-- db_conferences -->
<g id="node31" class="node">
<title>db_conferences</title>
<path fill="#e6fffa" stroke="#319795" d="M407.05,-563C407.05,-563 366.05,-563 366.05,-563 360.05,-563 354.05,-557 354.05,-551 354.05,-551 354.05,-539 354.05,-539 354.05,-533 360.05,-527 366.05,-527 366.05,-527 407.05,-527 407.05,-527 413.05,-527 419.05,-533 419.05,-539 419.05,-539 419.05,-551 419.05,-551 419.05,-557 413.05,-563 407.05,-563"/>
<text text-anchor="middle" x="386.55" y="-542.8" font-family="Arial" font-size="9.00">conferences</text>
</g>
<!-- pt_conference&#45;&gt;db_conferences -->
<g id="edge37" class="edge">
<title>pt_conference&#45;&gt;db_conferences</title>
<path fill="none" stroke="#6b7c93" d="M240.08,-609.4C255.69,-609.4 271.55,-609.4 271.55,-609.4 271.55,-609.4 271.55,-552.71 271.55,-552.71 271.55,-552.71 346.9,-552.71 346.9,-552.71"/>
<polygon fill="#6b7c93" stroke="#6b7c93" points="346.9,-555.16 353.9,-552.71 346.9,-550.26 346.9,-555.16"/>
</g>
<!-- pt_covid_or_epidemics&#45;&gt;db_dataset_files -->
<g id="edge39" class="edge">
<title>pt_covid_or_epidemics&#45;&gt;db_dataset_files</title>
<path fill="none" stroke="#6b7c93" d="M258.68,-547.57C268.33,-547.57 275.55,-547.57 275.55,-547.57 275.55,-547.57 275.55,-879 275.55,-879 275.55,-879 346.55,-879 346.55,-879"/>
<polygon fill="#6b7c93" stroke="#6b7c93" points="346.55,-881.45 353.55,-879 346.55,-876.55 346.55,-881.45"/>
</g>
<!-- pt_covid_or_epidemics&#45;&gt;db_media_assets -->
<g id="edge40" class="edge">
<title>pt_covid_or_epidemics&#45;&gt;db_media_assets</title>
<path fill="none" stroke="#6b7c93" d="M258.64,-542.43C265.1,-542.43 269.55,-542.43 269.55,-542.43 269.55,-542.43 269.55,-478.2 269.55,-478.2 269.55,-478.2 343.49,-478.2 343.49,-478.2"/>
<polygon fill="#6b7c93" stroke="#6b7c93" points="343.49,-480.65 350.49,-478.2 343.49,-475.75 343.49,-480.65"/>
</g>
<!-- pt_covid_or_epidemics&#45;&gt;db_page_blocks -->
<g id="edge42" class="edge">
<title>pt_covid_or_epidemics&#45;&gt;db_page_blocks</title>
<path fill="none" stroke="#6b7c93" d="M258.87,-532.14C276.23,-532.14 291.55,-532.14 291.55,-532.14 291.55,-532.14 291.55,-341 291.55,-341 291.55,-341 345.79,-341 345.79,-341"/>
<polygon fill="#6b7c93" stroke="#6b7c93" points="345.79,-343.45 352.79,-341 345.79,-338.55 345.79,-343.45"/>
</g>
<!-- pt_covid_or_epidemics&#45;&gt;db_pages -->
<g id="edge43" class="edge">
<title>pt_covid_or_epidemics&#45;&gt;db_pages</title>
<path fill="none" stroke="#6b7c93" d="M258.8,-537.29C278,-537.29 295.55,-537.29 295.55,-537.29 295.55,-537.29 295.55,-419 295.55,-419 295.55,-419 352.25,-419 352.25,-419"/>
<polygon fill="#6b7c93" stroke="#6b7c93" points="352.25,-421.45 359.25,-419 352.25,-416.55 352.25,-421.45"/>
</g>
<!-- pt_covid_or_epidemics&#45;&gt;db_model_descriptions -->
<g id="edge41" class="edge">
<title>pt_covid_or_epidemics&#45;&gt;db_model_descriptions</title>
<path fill="none" stroke="#6b7c93" d="M253.55,-563C253.55,-596.94 253.55,-667 253.55,-667 253.55,-667 331.91,-667 331.91,-667"/>
<polygon fill="#6b7c93" stroke="#6b7c93" points="331.91,-669.45 338.91,-667 331.91,-664.55 331.91,-669.45"/>
</g>
<!-- pt_tuberculosis&#45;&gt;db_dataset_files -->
<g id="edge44" class="edge">
<title>pt_tuberculosis&#45;&gt;db_dataset_files</title>
<path fill="none" stroke="#6b7c93" d="M242.41,-475.8C260.95,-475.8 280.55,-475.8 280.55,-475.8 280.55,-475.8 280.55,-871 280.55,-871 280.55,-871 346.3,-871 346.3,-871"/>
<polygon fill="#6b7c93" stroke="#6b7c93" points="346.3,-873.45 353.3,-871 346.3,-868.55 346.3,-873.45"/>
</g>
<!-- pt_tuberculosis&#45;&gt;db_page_blocks -->
<g id="edge45" class="edge">
<title>pt_tuberculosis&#45;&gt;db_page_blocks</title>
<path fill="none" stroke="#6b7c93" d="M242.39,-466.2C264.4,-466.2 289.55,-466.2 289.55,-466.2 289.55,-466.2 289.55,-336.5 289.55,-336.5 289.55,-336.5 345.9,-336.5 345.9,-336.5"/>
<polygon fill="#6b7c93" stroke="#6b7c93" points="345.9,-338.95 352.9,-336.5 345.9,-334.05 345.9,-338.95"/>
</g>
<!-- pt_tuberculosis&#45;&gt;db_pages -->
<g id="edge46" class="edge">
<title>pt_tuberculosis&#45;&gt;db_pages</title>
<path fill="none" stroke="#6b7c93" d="M242.38,-473.4C255.91,-473.4 268.55,-473.4 268.55,-473.4 268.55,-473.4 268.55,-415 268.55,-415 268.55,-415 352.48,-415 352.48,-415"/>
<polygon fill="#6b7c93" stroke="#6b7c93" points="352.48,-417.45 359.48,-415 352.48,-412.55 352.48,-417.45"/>
</g>
<!-- pt_publication&#45;&gt;db_dataset_files -->
<g id="edge47" class="edge">
<title>pt_publication&#45;&gt;db_dataset_files</title>
<path fill="none" stroke="#6b7c93" d="M240.15,-820.6C248.61,-820.6 255.55,-820.6 255.55,-820.6 255.55,-820.6 255.55,-887 255.55,-887 255.55,-887 346.49,-887 346.49,-887"/>
<polygon fill="#6b7c93" stroke="#6b7c93" points="346.49,-889.45 353.49,-887 346.49,-884.55 346.49,-889.45"/>
</g>
<!-- db_publications -->
<g id="node32" class="node">
<title>db_publications</title>
<path fill="#e6fffa" stroke="#319795" d="M406.55,-767C406.55,-767 366.55,-767 366.55,-767 360.55,-767 354.55,-761 354.55,-755 354.55,-755 354.55,-743 354.55,-743 354.55,-737 360.55,-731 366.55,-731 366.55,-731 406.55,-731 406.55,-731 412.55,-731 418.55,-737 418.55,-743 418.55,-743 418.55,-755 418.55,-755 418.55,-761 412.55,-767 406.55,-767"/>
<text text-anchor="middle" x="386.55" y="-746.8" font-family="Arial" font-size="9.00">publications</text>
</g>
<!-- pt_publication&#45;&gt;db_publications -->
<g id="edge48" class="edge">
<title>pt_publication&#45;&gt;db_publications</title>
<path fill="none" stroke="#6b7c93" d="M240.39,-813.4C245.16,-813.4 248.55,-813.4 248.55,-813.4 248.55,-813.4 248.55,-761 248.55,-761 248.55,-761 347.54,-761 347.54,-761"/>
<polygon fill="#6b7c93" stroke="#6b7c93" points="347.54,-763.45 354.54,-761 347.54,-758.55 347.54,-763.45"/>
</g>
<!-- db_external_links -->
<g id="node33" class="node">
<title>db_external_links</title>
<path fill="#e6fffa" stroke="#319795" d="M410.55,-240C410.55,-240 362.55,-240 362.55,-240 356.55,-240 350.55,-234 350.55,-228 350.55,-228 350.55,-216 350.55,-216 350.55,-210 356.55,-204 362.55,-204 362.55,-204 410.55,-204 410.55,-204 416.55,-204 422.55,-210 422.55,-216 422.55,-216 422.55,-228 422.55,-228 422.55,-234 416.55,-240 410.55,-240"/>
<text text-anchor="middle" x="386.55" y="-219.8" font-family="Arial" font-size="9.00">external_links</text>
</g>
<!-- pt_links&#45;&gt;db_external_links -->
<g id="edge49" class="edge">
<title>pt_links&#45;&gt;db_external_links</title>
<path fill="none" stroke="#6b7c93" d="M237.24,-213.5C237.24,-213.5 343.46,-213.5 343.46,-213.5"/>
<polygon fill="#6b7c93" stroke="#6b7c93" points="343.46,-215.95 350.46,-213.5 343.46,-211.05 343.46,-215.95"/>
</g>
<!-- pt_footer&#45;&gt;db_media_assets -->
<g id="edge51" class="edge">
<title>pt_footer&#45;&gt;db_media_assets</title>
<path fill="none" stroke="#6b7c93" d="M237.16,-148.67C259.51,-148.67 287.55,-148.67 287.55,-148.67 287.55,-148.67 287.55,-461.4 287.55,-461.4 287.55,-461.4 343.53,-461.4 343.53,-461.4"/>
<polygon fill="#6b7c93" stroke="#6b7c93" points="343.53,-463.85 350.53,-461.4 343.53,-458.95 343.53,-463.85"/>
</g>
<!-- db_contacts -->
<g id="node34" class="node">
<title>db_contacts</title>
<path fill="#e6fffa" stroke="#319795" d="M401.55,-172C401.55,-172 371.55,-172 371.55,-172 365.55,-172 359.55,-166 359.55,-160 359.55,-160 359.55,-148 359.55,-148 359.55,-142 365.55,-136 371.55,-136 371.55,-136 401.55,-136 401.55,-136 407.55,-136 413.55,-142 413.55,-148 413.55,-148 413.55,-160 413.55,-160 413.55,-166 407.55,-172 401.55,-172"/>
<text text-anchor="middle" x="386.55" y="-151.8" font-family="Arial" font-size="9.00">contacts</text>
</g>
<!-- pt_footer&#45;&gt;db_contacts -->
<g id="edge50" class="edge">
<title>pt_footer&#45;&gt;db_contacts</title>
<path fill="none" stroke="#6b7c93" d="M237.24,-142.33C237.24,-142.33 352.33,-142.33 352.33,-142.33"/>
<polygon fill="#6b7c93" stroke="#6b7c93" points="352.33,-144.78 359.33,-142.33 352.33,-139.88 352.33,-144.78"/>
</g>
<!-- db_site_settings -->
<g id="node35" class="node">
<title>db_site_settings</title>
<path fill="#e6fffa" stroke="#319795" d="M407.55,-104C407.55,-104 365.55,-104 365.55,-104 359.55,-104 353.55,-98 353.55,-92 353.55,-92 353.55,-80 353.55,-80 353.55,-74 359.55,-68 365.55,-68 365.55,-68 407.55,-68 407.55,-68 413.55,-68 419.55,-74 419.55,-80 419.55,-80 419.55,-92 419.55,-92 419.55,-98 413.55,-104 407.55,-104"/>
<text text-anchor="middle" x="386.55" y="-83.8" font-family="Arial" font-size="9.00">site_settings</text>
</g>
<!-- pt_footer&#45;&gt;db_site_settings -->
<g id="edge52" class="edge">
<title>pt_footer&#45;&gt;db_site_settings</title>
<path fill="none" stroke="#6b7c93" d="M237.24,-127.5C286.75,-127.5 386.55,-127.5 386.55,-127.5 386.55,-127.5 386.55,-111.32 386.55,-111.32"/>
<polygon fill="#6b7c93" stroke="#6b7c93" points="389,-111.32 386.55,-104.32 384.1,-111.32 389,-111.32"/>
</g>
<!-- pt_medicine&#45;&gt;db_media_assets -->
<g id="edge53" class="edge">
<title>pt_medicine&#45;&gt;db_media_assets</title>
<path fill="none" stroke="#6b7c93" d="M237.46,-411C257.99,-411 282.55,-411 282.55,-411 282.55,-411 282.55,-471 282.55,-471 282.55,-471 343.47,-471 343.47,-471"/>
<polygon fill="#6b7c93" stroke="#6b7c93" points="343.47,-473.45 350.47,-471 343.47,-468.55 343.47,-473.45"/>
</g>
<!-- pt_medicine&#45;&gt;db_page_blocks -->
<g id="edge54" class="edge">
<title>pt_medicine&#45;&gt;db_page_blocks</title>
<path fill="none" stroke="#6b7c93" d="M237.31,-399C251.76,-399 266.55,-399 266.55,-399 266.55,-399 266.55,-332 266.55,-332 266.55,-332 345.81,-332 345.81,-332"/>
<polygon fill="#6b7c93" stroke="#6b7c93" points="345.81,-334.45 352.81,-332 345.81,-329.55 345.81,-334.45"/>
</g>
<!-- pt_medicine&#45;&gt;db_pages -->
<g id="edge55" class="edge">
<title>pt_medicine&#45;&gt;db_pages</title>
<path fill="none" stroke="#6b7c93" d="M237.24,-407C237.24,-407 352.33,-407 352.33,-407"/>
<polygon fill="#6b7c93" stroke="#6b7c93" points="352.33,-409.45 359.33,-407 352.33,-404.55 352.33,-409.45"/>
</g>
<!-- pt_home&#45;&gt;db_media_assets -->
<g id="edge57" class="edge">
<title>pt_home&#45;&gt;db_media_assets</title>
<path fill="none" stroke="#6b7c93" d="M237.2,-683C263.86,-683 300.55,-683 300.55,-683 300.55,-683 300.55,-483 300.55,-483 300.55,-483 343.08,-483 343.08,-483"/>
<polygon fill="#6b7c93" stroke="#6b7c93" points="343.08,-485.45 350.08,-483 343.08,-480.55 343.08,-485.45"/>
</g>
<!-- pt_home&#45;&gt;db_news_items -->
<g id="edge58" class="edge">
<title>pt_home&#45;&gt;db_news_items</title>
<path fill="none" stroke="#6b7c93" d="M237.32,-671C242.08,-671 245.55,-671 245.55,-671 245.55,-671 245.55,-616.6 245.55,-616.6 245.55,-616.6 347.91,-616.6 347.91,-616.6"/>
<polygon fill="#6b7c93" stroke="#6b7c93" points="347.91,-619.05 354.91,-616.6 347.91,-614.15 347.91,-619.05"/>
</g>
<!-- pt_home&#45;&gt;db_people -->
<g id="edge61" class="edge">
<title>pt_home&#45;&gt;db_people</title>
<path fill="none" stroke="#6b7c93" d="M237.18,-695C240.39,-695 242.55,-695 242.55,-695 242.55,-695 242.55,-806.2 242.55,-806.2 242.55,-806.2 352.47,-806.2 352.47,-806.2"/>
<polygon fill="#6b7c93" stroke="#6b7c93" points="352.47,-808.65 359.47,-806.2 352.47,-803.75 352.47,-808.65"/>
</g>
<!-- pt_home&#45;&gt;db_page_blocks -->
<g id="edge59" class="edge">
<title>pt_home&#45;&gt;db_page_blocks</title>
<path fill="none" stroke="#6b7c93" d="M237.39,-675C261.74,-675 293.55,-675 293.55,-675 293.55,-675 293.55,-345.5 293.55,-345.5 293.55,-345.5 345.98,-345.5 345.98,-345.5"/>
<polygon fill="#6b7c93" stroke="#6b7c93" points="345.98,-347.95 352.98,-345.5 345.98,-343.05 345.98,-347.95"/>
</g>
<!-- pt_home&#45;&gt;db_pages -->
<g id="edge60" class="edge">
<title>pt_home&#45;&gt;db_pages</title>
<path fill="none" stroke="#6b7c93" d="M237.42,-679C262.76,-679 296.55,-679 296.55,-679 296.55,-679 296.55,-423 296.55,-423 296.55,-423 352.55,-423 352.55,-423"/>
<polygon fill="#6b7c93" stroke="#6b7c93" points="352.55,-425.45 359.55,-423 352.55,-420.55 352.55,-425.45"/>
</g>
<!-- pt_home&#45;&gt;db_conferences -->
<g id="edge56" class="edge">
<title>pt_home&#45;&gt;db_conferences</title>
<path fill="none" stroke="#6b7c93" d="M237.35,-687C254.56,-687 273.55,-687 273.55,-687 273.55,-687 273.55,-557.86 273.55,-557.86 273.55,-557.86 346.87,-557.86 346.87,-557.86"/>
<polygon fill="#6b7c93" stroke="#6b7c93" points="346.87,-560.31 353.87,-557.86 346.87,-555.41 346.87,-560.31"/>
</g>
<!-- pt_home&#45;&gt;db_publications -->
<g id="edge62" class="edge">
<title>pt_home&#45;&gt;db_publications</title>
<path fill="none" stroke="#6b7c93" d="M237.09,-691C240.9,-691 243.55,-691 243.55,-691 243.55,-691 243.55,-749 243.55,-749 243.55,-749 347.46,-749 347.46,-749"/>
<polygon fill="#6b7c93" stroke="#6b7c93" points="347.46,-751.45 354.46,-749 347.46,-746.55 347.46,-751.45"/>
</g>
<!-- pt_social_processes&#45;&gt;db_media_assets -->
<g id="edge63" class="edge">
<title>pt_social_processes&#45;&gt;db_media_assets</title>
<path fill="none" stroke="#6b7c93" d="M253.22,-282C270.57,-282 286.55,-282 286.55,-282 286.55,-282 286.55,-463.8 286.55,-463.8 286.55,-463.8 343.45,-463.8 343.45,-463.8"/>
<polygon fill="#6b7c93" stroke="#6b7c93" points="343.45,-466.25 350.45,-463.8 343.45,-461.35 343.45,-466.25"/>
</g>
<!-- pt_social_processes&#45;&gt;db_page_blocks -->
<g id="edge64" class="edge">
<title>pt_social_processes&#45;&gt;db_page_blocks</title>
<path fill="none" stroke="#6b7c93" d="M253.23,-264C305.48,-264 386.55,-264 386.55,-264 386.55,-264 386.55,-315.75 386.55,-315.75"/>
<polygon fill="#6b7c93" stroke="#6b7c93" points="384.1,-315.75 386.55,-322.75 389,-315.75 384.1,-315.75"/>
</g>
<!-- pt_social_processes&#45;&gt;db_pages -->
<g id="edge65" class="edge">
<title>pt_social_processes&#45;&gt;db_pages</title>
<path fill="none" stroke="#6b7c93" d="M253.26,-273C259.87,-273 264.55,-273 264.55,-273 264.55,-273 264.55,-395 264.55,-395 264.55,-395 352.48,-395 352.48,-395"/>
<polygon fill="#6b7c93" stroke="#6b7c93" points="352.48,-397.45 359.48,-395 352.48,-392.55 352.48,-397.45"/>
</g>
<!-- db_routes_metadata__not_necessarily_DB -->
<g id="node36" class="node">
<title>db_routes_metadata__not_necessarily_DB</title>
<path fill="#e6fffa" stroke="#319795" d="M455.55,-36C455.55,-36 317.55,-36 317.55,-36 311.55,-36 305.55,-30 305.55,-24 305.55,-24 305.55,-12 305.55,-12 305.55,-6 311.55,0 317.55,0 317.55,0 455.55,0 455.55,0 461.55,0 467.55,-6 467.55,-12 467.55,-12 467.55,-24 467.55,-24 467.55,-30 461.55,-36 455.55,-36"/>
<text text-anchor="middle" x="386.55" y="-15.8" font-family="Arial" font-size="9.00">routes metadata, not necessarily DB</text>
</g>
<!-- pt_app_router&#45;&gt;db_routes_metadata__not_necessarily_DB -->
<g id="edge66" class="edge">
<title>pt_app_router&#45;&gt;db_routes_metadata__not_necessarily_DB</title>
<path fill="none" stroke="#6b7c93" d="M240.1,-52C274.32,-52 325.55,-52 325.55,-52 325.55,-52 325.55,-43.19 325.55,-43.19"/>
<polygon fill="#6b7c93" stroke="#6b7c93" points="328,-43.19 325.55,-36.19 323.1,-43.19 328,-43.19"/>
</g>
</g>
</svg>
